<?xml version="1.0" encoding="utf-8"?>
<svg version="1.1" xmlns:xlink="http://www.w3.org/1999/xlink" width="22px" height="24px" xmlns="http://www.w3.org/2000/svg">
  <g transform="matrix(1 0 0 1 -306 -14 )">
    <path d="M 10.9090909090909 24  L 8.4490909090909 21.54  C 3.60872727272726 20.424  0 16.0876363636364  0 10.9090909090909  C 0 4.88400000000001  4.88400000000001 0  10.9090909090909 0  C 16.9341818181818 0  21.8181818181818 4.88400000000001  21.8181818181818 10.9090909090909  C 21.8181818181818 16.0876363636364  18.2094545454545 20.424  13.3690909090909 21.54  L 10.9090909090909 24  Z M 11.0836363636363 15.2727272727273  C 8.86254545454545 15.2727272727273  6.86181818181819 16.2218181818182  5.46763636363636 17.7349090909091  C 6.48414151657533 18.5478447178932  7.67053002420221 19.1216511016888  8.93890909090908 19.4138181818182  L 9.54981818181818 19.5545454545455  L 10.9090909090909 20.9149090909091  L 12.2694545454546 19.5545454545455  L 12.8803636363637 19.4127272727273  C 14.2315645335376 19.1012433778588  15.4884675058595 18.4705474221043  16.5458181818182 17.5734545454545  C 15.1106010763513 16.1002312231454  13.1403885317161 15.2703573951775  11.0836363636363 15.2727272727273  Z M 3.94472727272728 16.1683636363637  C 5.79788041622766 14.2017078935236  8.38143387744782 13.087288628589  11.0836363636363 13.0909090909091  C 13.6871874934138 13.0875213615907  16.1848001276119 14.1215848130962  18.024 15.9643636363637  C 19.0732187669378 14.4876520785638  19.6369171727432 12.7210420848538  19.6369171727432 10.9095407611352  C 19.6369171727432 6.08960112624828  15.7295840803574 2.1822680338625  10.9096444454704 2.1822680338625  C 6.0897048105835 2.1822680338625  2.18237171819771 6.08960112624828  2.18237171819771 10.9095407611352  C 2.18237171819771 12.8074799647788  2.80107949044549 14.6536877730816  3.94472727272728 16.1683636363637  Z M 10.9090909090909 12  C 8.49912109164745 12  6.54545454545456 10.0463334538071  6.54545454545456 7.63636363636363  C 6.54545454545456 5.2263938189202  8.49912109164745 3.27272727272725  10.9090909090909 3.27272727272725  C 13.3190607265344 3.27272727272725  15.2727272727273 5.2263938189202  15.2727272727273 7.63636363636363  C 15.2727272727273 10.0463334538071  13.3190607265344 12  10.9090909090909 12  Z M 10.9090909090909 9.81818181818181  C 12.1140758178126 9.81818181818181  13.0909090909091 8.84134854508534  13.0909090909091 7.63636363636363  C 13.0909090909091 6.43137872764191  12.1140758178126 5.45454545454544  10.9090909090909 5.45454545454544  C 9.70410600036917 5.45454545454544  8.72727272727275 6.43137872764191  8.72727272727275 7.63636363636363  C 8.72727272727275 8.84134854508534  9.70410600036917 9.81818181818181  10.9090909090909 9.81818181818181  Z " fill-rule="nonzero" fill="#999999" stroke="none" transform="matrix(1 0 0 1 306 14 )" />
  </g>
</svg>