<?xml version="1.0" encoding="utf-8"?>
<svg version="1.1" xmlns:xlink="http://www.w3.org/1999/xlink" width="19px" height="18px" xmlns="http://www.w3.org/2000/svg">
  <g transform="matrix(1 0 0 1 -276 -129 )">
    <path d="M 0 7.8107142857142  C 0 3.49920000000003  3.64800000000002 0  8.14285714285715 0  C 12.6377142857143 0  16.2857142857143 3.49920000000003  16.2857142857143 7.8107142857142  C 16.2857142857143 12.1222285714286  12.6377142857143 15.6214285714287  8.14285714285715 15.6214285714287  C 3.64800000000002 15.6214285714287  0 12.1222285714286  0 7.8107142857142  Z M 1.80952380952382 7.8107142857142  C 1.80952380952382 11.1667178571427  4.64323809523809 13.8857142857143  8.14285714285715 13.8857142857143  C 11.6415714285714 13.8857142857143  14.4761904761905 11.1667178571427  14.4761904761905 7.8107142857142  C 14.4761904761905 4.45384285714286  11.6415714285714 1.73571428571435  8.14285714285715 1.73571428571435  C 4.64323809523809 1.73571428571435  1.80952380952382 4.45384285714286  1.80952380952382 7.8107142857142  Z M 14.5404285714286 15.1744821428572  L 15.8197619047619 13.9473321428572  L 18.3793333333333 16.4016321428571  L 17.0990952380953 17.6296499999999  L 14.5404285714286 15.1744821428572  Z " fill-rule="nonzero" fill="#333333" stroke="none" transform="matrix(1 0 0 1 276 129 )" />
  </g>
</svg>