<?xml version="1.0" encoding="utf-8"?>
<svg version="1.1" xmlns:xlink="http://www.w3.org/1999/xlink" width="12px" height="12px" viewBox="278 226  12 12" xmlns="http://www.w3.org/2000/svg">
  <path d="M 284 226  C 287.36 226  290 228.64  290 232  C 290 235.36  287.36 238  284 238  C 280.64 238  278 235.36  278 232  C 278 228.64  280.64 226  284 226  Z " fill-rule="nonzero" fill="#ffffff" stroke="none" />
  <path d="M 284 226.5  C 287.08 226.5  289.5 228.92  289.5 232  C 289.5 235.08  287.08 237.5  284 237.5  C 280.92 237.5  278.5 235.08  278.5 232  C 278.5 228.92  280.92 226.5  284 226.5  Z " stroke-width="1" stroke="#797979" fill="none" />
  <path d="M 284 235  C 282.32 235  281 233.68  281 232  C 281 230.32  282.32 229  284 229  C 285.68 229  287 230.32  287 232  C 287 233.68  285.68 235  284 235  " fill-rule="nonzero" fill="#797979" stroke="none" />
</svg>