<?xml version="1.0" encoding="utf-8"?>
<svg version="1.1" xmlns:xlink="http://www.w3.org/1999/xlink" width="12px" height="12px" viewBox="178 226  12 12" xmlns="http://www.w3.org/2000/svg">
  <path d="M 184 226  C 187.36 226  190 228.64  190 232  C 190 235.36  187.36 238  184 238  C 180.64 238  178 235.36  178 232  C 178 228.64  180.64 226  184 226  Z " fill-rule="nonzero" fill="#ffffff" stroke="none" />
  <path d="M 184 226.5  C 187.08 226.5  189.5 228.92  189.5 232  C 189.5 235.08  187.08 237.5  184 237.5  C 180.92 237.5  178.5 235.08  178.5 232  C 178.5 228.92  180.92 226.5  184 226.5  Z " stroke-width="1" stroke="#797979" fill="none" />
  <path d="M 184 235  C 182.32 235  181 233.68  181 232  C 181 230.32  182.32 229  184 229  C 185.68 229  187 230.32  187 232  C 187 233.68  185.68 235  184 235  " fill-rule="nonzero" fill="#797979" stroke="none" />
</svg>