<?xml version="1.0" encoding="utf-8"?>
<svg version="1.1" xmlns:xlink="http://www.w3.org/1999/xlink" width="12px" height="12px" viewBox="273 621.5  12 12" xmlns="http://www.w3.org/2000/svg">
  <path d="M 279 621.5  C 282.36 621.5  285 624.14  285 627.5  C 285 630.86  282.36 633.5  279 633.5  C 275.64 633.5  273 630.86  273 627.5  C 273 624.14  275.64 621.5  279 621.5  Z " fill-rule="nonzero" fill="#ffffff" stroke="none" />
  <path d="M 279 622  C 282.08 622  284.5 624.42  284.5 627.5  C 284.5 630.58  282.08 633  279 633  C 275.92 633  273.5 630.58  273.5 627.5  C 273.5 624.42  275.92 622  279 622  Z " stroke-width="1" stroke="#797979" fill="none" />
  <path d="M 279 630.5  C 277.32 630.5  276 629.18  276 627.5  C 276 625.82  277.32 624.5  279 624.5  C 280.68 624.5  282 625.82  282 627.5  C 282 629.18  280.68 630.5  279 630.5  " fill-rule="nonzero" fill="#797979" stroke="none" />
</svg>