<?xml version="1.0" encoding="utf-8"?>
<svg version="1.1" xmlns:xlink="http://www.w3.org/1999/xlink" width="12px" height="12px" viewBox="1006 200  12 12" xmlns="http://www.w3.org/2000/svg">
  <path d="M 1012 200  C 1015.36 200  1018 202.64  1018 206  C 1018 209.36  1015.36 212  1012 212  C 1008.64 212  1006 209.36  1006 206  C 1006 202.64  1008.64 200  1012 200  Z " fill-rule="nonzero" fill="#ffffff" stroke="none" />
  <path d="M 1012 200.5  C 1015.08 200.5  1017.5 202.92  1017.5 206  C 1017.5 209.08  1015.08 211.5  1012 211.5  C 1008.92 211.5  1006.5 209.08  1006.5 206  C 1006.5 202.92  1008.92 200.5  1012 200.5  Z " stroke-width="1" stroke="#797979" fill="none" />
  <path d="M 1012 209  C 1010.32 209  1009 207.68  1009 206  C 1009 204.32  1010.32 203  1012 203  C 1013.68 203  1015 204.32  1015 206  C 1015 207.68  1013.68 209  1012 209  " fill-rule="nonzero" fill="#797979" stroke="none" />
</svg>