<?xml version="1.0" encoding="utf-8"?>
<svg version="1.1" xmlns:xlink="http://www.w3.org/1999/xlink" width="12px" height="12px" viewBox="195 604  12 12" xmlns="http://www.w3.org/2000/svg">
  <path d="M 201 604  C 204.36 604  207 606.64  207 610  C 207 613.36  204.36 616  201 616  C 197.64 616  195 613.36  195 610  C 195 606.64  197.64 604  201 604  Z " fill-rule="nonzero" fill="#ffffff" stroke="none" />
  <path d="M 201 604.5  C 204.08 604.5  206.5 606.92  206.5 610  C 206.5 613.08  204.08 615.5  201 615.5  C 197.92 615.5  195.5 613.08  195.5 610  C 195.5 606.92  197.92 604.5  201 604.5  Z " stroke-width="1" stroke="#797979" fill="none" />
  <path d="M 201 613  C 199.32 613  198 611.68  198 610  C 198 608.32  199.32 607  201 607  C 202.68 607  204 608.32  204 610  C 204 611.68  202.68 613  201 613  " fill-rule="nonzero" fill="#797979" stroke="none" />
</svg>