<?xml version="1.0" encoding="utf-8"?>
<svg version="1.1" xmlns:xlink="http://www.w3.org/1999/xlink" width="12px" height="12px" viewBox="227 663  12 12" xmlns="http://www.w3.org/2000/svg">
  <path d="M 233 663  C 236.36 663  239 665.64  239 669  C 239 672.36  236.36 675  233 675  C 229.64 675  227 672.36  227 669  C 227 665.64  229.64 663  233 663  Z " fill-rule="nonzero" fill="#ffffff" stroke="none" />
  <path d="M 233 663.5  C 236.08 663.5  238.5 665.92  238.5 669  C 238.5 672.08  236.08 674.5  233 674.5  C 229.92 674.5  227.5 672.08  227.5 669  C 227.5 665.92  229.92 663.5  233 663.5  Z " stroke-width="1" stroke="#797979" fill="none" />
  <path d="M 233 672  C 231.32 672  230 670.68  230 669  C 230 667.32  231.32 666  233 666  C 234.68 666  236 667.32  236 669  C 236 670.68  234.68 672  233 672  " fill-rule="nonzero" fill="#797979" stroke="none" />
</svg>