<?xml version="1.0" encoding="utf-8"?>
<svg version="1.1" xmlns:xlink="http://www.w3.org/1999/xlink" width="12px" height="12px" viewBox="237 917  12 12" xmlns="http://www.w3.org/2000/svg">
  <path d="M 243 917  C 246.36 917  249 919.64  249 923  C 249 926.36  246.36 929  243 929  C 239.64 929  237 926.36  237 923  C 237 919.64  239.64 917  243 917  Z " fill-rule="nonzero" fill="#ffffff" stroke="none" />
  <path d="M 243 917.5  C 246.08 917.5  248.5 919.92  248.5 923  C 248.5 926.08  246.08 928.5  243 928.5  C 239.92 928.5  237.5 926.08  237.5 923  C 237.5 919.92  239.92 917.5  243 917.5  Z " stroke-width="1" stroke="#797979" fill="none" />
  <path d="M 243 926  C 241.32 926  240 924.68  240 923  C 240 921.32  241.32 920  243 920  C 244.68 920  246 921.32  246 923  C 246 924.68  244.68 926  243 926  " fill-rule="nonzero" fill="#797979" stroke="none" />
</svg>