<?xml version="1.0" encoding="utf-8"?>
<svg version="1.1" xmlns:xlink="http://www.w3.org/1999/xlink" width="19px" height="20px" xmlns="http://www.w3.org/2000/svg">
  <defs>
    <filter x="578px" y="298px" width="19px" height="20px" filterUnits="userSpaceOnUse" id="filter2106">
      <feOffset dx="1" dy="1" in="SourceAlpha" result="shadowOffsetInner" />
      <feGaussianBlur stdDeviation="2.5" in="shadowOffsetInner" result="shadowGaussian" />
      <feComposite in2="shadowGaussian" operator="atop" in="SourceAlpha" result="shadowComposite" />
      <feColorMatrix type="matrix" values="0 0 0 0 0  0 0 0 0 0  0 0 0 0 0  0 0 0 0.698039215686274 0  " in="shadowComposite" />
    </filter>
    <g id="widget2107">
      <path d="M 586.5 302  C 589.02 302  591 304.2  591 307  C 591 309.8  589.02 312  586.5 312  C 583.98 312  582 309.8  582 307  C 582 304.2  583.98 302  586.5 302  Z " fill-rule="nonzero" fill="#339933" stroke="none" />
      <path d="M 586.5 302.5  C 588.74 302.5  590.5 304.48  590.5 307  C 590.5 309.52  588.74 311.5  586.5 311.5  C 584.26 311.5  582.5 309.52  582.5 307  C 582.5 304.48  584.26 302.5  586.5 302.5  Z " stroke-width="1" stroke="#ffffff" fill="none" />
    </g>
  </defs>
  <g transform="matrix(1 0 0 1 -578 -298 )">
    <use xlink:href="#widget2107" filter="url(#filter2106)" />
    <use xlink:href="#widget2107" />
  </g>
</svg>