<?xml version="1.0" encoding="utf-8"?>
<svg version="1.1" xmlns:xlink="http://www.w3.org/1999/xlink" width="19px" height="13px" xmlns="http://www.w3.org/2000/svg">
  <g transform="matrix(1 0 0 1 -592 -44 )">
    <path d="M 12.5677083333333 7.60795454545455  C 12.6336805555556 7.53409090909091  12.6666666666667 7.46022727272727  12.6666666666667 7.38636363636364  C 12.6666666666667 7.30018939393939  12.6369791666667 7.22940340909091  12.5776041666667 7.17400568181818  C 12.5182291666667 7.11860795454546  12.4423611111111 7.09090909090909  12.35 7.09090909090909  L 10.1333333333333 7.09090909090909  L 10.1333333333333 3.84090909090909  C 10.1333333333333 3.76089015151515  10.1019965277778 3.69164299242424  10.0393229166667 3.63316761363636  C 9.97664930555556 3.57469223484848  9.90243055555556 3.54545454545455  9.81666666666667 3.54545454545455  L 7.91666666666667 3.54545454545455  C 7.83090277777778 3.54545454545455  7.75668402777778 3.57469223484848  7.69401041666667 3.63316761363636  C 7.63133680555556 3.69164299242424  7.6 3.76089015151515  7.6 3.84090909090909  L 7.6 7.09090909090909  L 5.38333333333333 7.09090909090909  C 5.29756944444445 7.09090909090909  5.22335069444445 7.12014678030303  5.16067708333333 7.17862215909091  C 5.09800347222222 7.23709753787879  5.06666666666667 7.3063446969697  5.06666666666667 7.38636363636364  C 5.06666666666667 7.47253787878788  5.09635416666667 7.54332386363636  5.15572916666667 7.59872159090909  L 8.6390625 10.8487215909091  C 8.6984375 10.9041193181818  8.77430555555556 10.9318181818182  8.86666666666667 10.9318181818182  C 8.95902777777778 10.9318181818182  9.03489583333333 10.9041193181818  9.09427083333333 10.8487215909091  L 12.5677083333333 7.60795454545455  Z M 18.1736979166667 7.25248579545455  C 18.7245659722222 7.89571496212121  19 8.62973484848485  19 9.45454545454546  C 19 10.4332386363636  18.62890625 11.2688210227273  17.88671875 11.9612926136364  C 17.14453125 12.6537642045455  16.2489583333333 13  15.2 13  L 4.43333333333333 13  C 3.21284722222222 13  2.16883680555556 12.5952888257576  1.30130208333333 11.7858664772727  C 0.433767361111111 10.9764441287879  0 10.0023674242424  0 8.86363636363637  C 0 8.06344696969697  0.230902777777778 7.32481060606061  0.692708333333333 6.64772727272727  C 1.15451388888889 5.97064393939394  1.77465277777778 5.46283143939394  2.553125 5.12428977272727  C 2.53993055555556 4.93963068181818  2.53333333333333 4.80729166666667  2.53333333333333 4.72727272727273  C 2.53333333333333 3.42234848484848  3.028125 2.30823863636364  4.01770833333333 1.38494318181818  C 5.00729166666667 0.461647727272727  6.20138888888889 0  7.6 0  C 8.62916666666667 0  9.57092013888889 0.267755681818182  10.4252604166667 0.803267045454545  C 11.2796006944444 1.33877840909091  11.9013888888889 2.04971590909091  12.290625 2.93607954545455  C 12.7590277777778 2.55445075757576  13.3065972222222 2.36363636363636  13.9333333333333 2.36363636363636  C 14.6326388888889 2.36363636363636  15.2296875 2.59446022727273  15.7244791666667 3.05610795454546  C 16.2192708333333 3.51775568181818  16.4666666666667 4.0748106060606  16.4666666666667 4.72727272727273  C 16.4666666666667 5.19507575757576  16.3314236111111 5.61979166666667  16.0609375 6.00142045454546  C 16.9185763888889 6.19223484848485  17.6228298611111 6.60925662878788  18.1736979166667 7.25248579545455  Z " fill-rule="nonzero" fill="#009999" stroke="none" transform="matrix(1 0 0 1 592 44 )" />
  </g>
</svg>