<?xml version="1.0" encoding="utf-8"?>
<svg version="1.1" xmlns:xlink="http://www.w3.org/1999/xlink" width="12px" height="11px" xmlns="http://www.w3.org/2000/svg">
  <g transform="matrix(1 0 0 1 -864 -45 )">
    <path d="M 8.90959821428572 8.61762152777778  C 9.8046875 7.84418402777778  10.5491071428571 6.80497685185185  11.1428571428571 5.5  C 10.4642857142857 3.99768518518519  9.61383928571429 2.87413194444444  8.59151785714286 2.12934027777778  C 8.86383928571429 2.79137731481481  9 3.50752314814815  9 4.27777777777778  C 9 5.45543981481481  8.70647321428572 6.46281828703704  8.11941964285714 7.29991319444444  C 7.53236607142857 8.13700810185185  6.82589285714286 8.55555555555556  6 8.55555555555556  C 5.17410714285714 8.55555555555556  4.46763392857143 8.13700810185185  3.88058035714286 7.29991319444444  C 3.29352678571429 6.46281828703704  3 5.45543981481481  3 4.27777777777778  C 3 3.50752314814815  3.13616071428571 2.79137731481481  3.40848214285714 2.12934027777778  C 2.38616071428571 2.87413194444444  1.53571428571429 3.99768518518519  0.857142857142857 5.5  C 1.45089285714286 6.80497685185185  2.1953125 7.84418402777778  3.09040178571429 8.61762152777778  C 3.98549107142857 9.39105902777778  4.95535714285714 9.77777777777778  6 9.77777777777778  C 7.04464285714286 9.77777777777778  8.01450892857143 9.39105902777778  8.90959821428572 8.61762152777778  Z M 6.22767857142857 2.15798611111111  C 6.29017857142857 2.06886574074074  6.32142857142857 1.96064814814815  6.32142857142857 1.83333333333333  C 6.32142857142857 1.70601851851852  6.29017857142857 1.59780092592592  6.22767857142857 1.50868055555556  C 6.16517857142857 1.41956018518518  6.08928571428571 1.375  6 1.375  C 5.44196428571429 1.375  4.96316964285714 1.65986689814815  4.56361607142857 2.22960069444444  C 4.1640625 2.79933449074074  3.96428571428571 3.48206018518519  3.96428571428571 4.27777777777778  C 3.96428571428571 4.40509259259259  3.99553571428572 4.51331018518519  4.05803571428571 4.60243055555556  C 4.12053571428571 4.69155092592592  4.19642857142857 4.73611111111111  4.28571428571429 4.73611111111111  C 4.375 4.73611111111111  4.45089285714286 4.69155092592592  4.51339285714286 4.60243055555556  C 4.57589285714286 4.51331018518519  4.60714285714286 4.40509259259259  4.60714285714286 4.27777777777778  C 4.60714285714286 3.73032407407407  4.74330357142857 3.26244212962963  5.015625 2.87413194444444  C 5.28794642857143 2.48582175925926  5.61607142857143 2.29166666666667  6 2.29166666666667  C 6.08928571428571 2.29166666666667  6.16517857142857 2.24710648148148  6.22767857142857 2.15798611111111  Z M 11.8660714285714 4.84114583333333  C 11.9553571428571 5.06394675925926  12 5.28356481481481  12 5.5  C 12 5.71643518518518  11.9553571428571 5.93605324074074  11.8660714285714 6.15885416666667  C 11.2410714285714 7.62297453703704  10.4006696428571 8.79586226851852  9.34486607142857 9.67751736111111  C 8.2890625 10.5591724537037  7.17410714285714 11  6 11  C 4.82589285714286 11  3.7109375 10.5575810185185  2.65513392857143 9.67274305555556  C 1.59933035714286 8.78790509259259  0.758928571428572 7.6166087962963  0.133928571428571 6.15885416666667  C 0.0446428571428571 5.93605324074074  0 5.71643518518518  0 5.5  C 0 5.28356481481481  0.0446428571428571 5.06394675925926  0.133928571428571 4.84114583333333  C 0.758928571428572 3.3833912037037  1.59933035714286 2.21209490740741  2.65513392857143 1.32725694444444  C 3.7109375 0.442418981481481  4.82589285714286 0  6 0  C 7.17410714285714 0  8.2890625 0.442418981481481  9.34486607142857 1.32725694444444  C 10.4006696428571 2.21209490740741  11.2410714285714 3.3833912037037  11.8660714285714 4.84114583333333  Z " fill-rule="nonzero" fill="#009999" stroke="none" transform="matrix(1 0 0 1 864 45 )" />
  </g>
</svg>