<?xml version="1.0" encoding="utf-8"?>
<svg version="1.1" xmlns:xlink="http://www.w3.org/1999/xlink" width="19px" height="20px" xmlns="http://www.w3.org/2000/svg">
  <defs>
    <filter x="705px" y="371px" width="19px" height="20px" filterUnits="userSpaceOnUse" id="filter2187">
      <feOffset dx="1" dy="1" in="SourceAlpha" result="shadowOffsetInner" />
      <feGaussianBlur stdDeviation="2.5" in="shadowOffsetInner" result="shadowGaussian" />
      <feComposite in2="shadowGaussian" operator="atop" in="SourceAlpha" result="shadowComposite" />
      <feColorMatrix type="matrix" values="0 0 0 0 0  0 0 0 0 0  0 0 0 0 0  0 0 0 0.698039215686274 0  " in="shadowComposite" />
    </filter>
    <g id="widget2188">
      <path d="M 713.5 375  C 716.02 375  718 377.2  718 380  C 718 382.8  716.02 385  713.5 385  C 710.98 385  709 382.8  709 380  C 709 377.2  710.98 375  713.5 375  Z " fill-rule="nonzero" fill="#e4e4e4" stroke="none" />
      <path d="M 713.5 375.5  C 715.74 375.5  717.5 377.48  717.5 380  C 717.5 382.52  715.74 384.5  713.5 384.5  C 711.26 384.5  709.5 382.52  709.5 380  C 709.5 377.48  711.26 375.5  713.5 375.5  Z " stroke-width="1" stroke="#ffffff" fill="none" />
    </g>
  </defs>
  <g transform="matrix(1 0 0 1 -705 -371 )">
    <use xlink:href="#widget2188" filter="url(#filter2187)" />
    <use xlink:href="#widget2188" />
  </g>
</svg>