<?xml version="1.0" encoding="utf-8"?>
<svg version="1.1" xmlns:xlink="http://www.w3.org/1999/xlink" width="8px" height="7px" xmlns="http://www.w3.org/2000/svg">
  <g transform="matrix(1 0 0 1 -526 -125 )">
    <path d="M 7.91983967935874 0.721649484536073  C 7.97327989311958 0.801832760595644  8 0.894043528064145  8 0.998281786941575  C 8 1.10252004581902  7.97327989311958 1.19473081328752  7.91983967935874 1.27491408934708  L 4.18436873747493 6.87972508591065  C 4.13092852371409 6.95990836197021  4.06947227788913 7  4 7  C 3.93052772211087 7  3.86907147628591 6.95990836197021  3.81563126252507 6.87972508591065  L 0.0801603206412551 1.27491408934708  C 0.0267201068804184 1.19473081328752  0 1.10252004581902  0 0.998281786941575  C 0 0.894043528064145  0.0267201068804184 0.801832760595644  0.0801603206412551 0.721649484536073  L 0.480961923847701 0.12027491408935  C 0.534402137608538 0.0400916380297787  0.595858383433551 0  0.665330661322628 0  C 0.734802939211761 0  0.796259185036718 0.0400916380297787  0.849699398797611 0.12027491408935  L 4 4.84707903780068  L 7.15030060120239 0.12027491408935  C 7.20374081496328 0.0400916380297787  7.26519706078824 0  7.33466933867737 0  C 7.40414161656645 0  7.46559786239146 0.0400916380297787  7.5190380761523 0.12027491408935  L 7.91983967935874 0.721649484536073  Z " fill-rule="nonzero" fill="#a1a1a1" stroke="none" transform="matrix(1 0 0 1 526 125 )" />
  </g>
</svg>