<?xml version="1.0" encoding="utf-8"?>
<svg version="1.1" xmlns:xlink="http://www.w3.org/1999/xlink" width="15px" height="14px" xmlns="http://www.w3.org/2000/svg">
  <g transform="matrix(1 0 0 1 -648 -45 )">
    <path d="M 6.99551569506727 10.5  L 7.46636771300448 10.5  L 8.44170403587444 9.34659090909091  L 7.16367713004484 7.83522727272727  L 6.18834080717489 8.98863636363636  L 6.18834080717489 9.54545454545455  L 6.99551569506727 9.54545454545455  L 6.99551569506727 10.5  Z M 11.1575112107623 3.66903409090909  C 11.252802690583 3.5563446969697  11.2556053811659 3.4469696969697  11.1659192825112 3.34090909090909  C 11.0762331838565 3.23484848484848  10.9837443946188 3.23816287878788  10.8884529147982 3.35085227272727  L 7.94562780269058 6.83096590909091  C 7.85033632286996 6.9436553030303  7.847533632287 7.0530303030303  7.9372197309417 7.15909090909091  C 8.02690582959641 7.26515151515151  8.11939461883408 7.26183712121212  8.21468609865471 7.14914772727273  L 11.1575112107623 3.66903409090909  Z M 11.6704035874439 8.95880681818182  C 11.7825112107623 9.01183712121212  11.8385650224215 9.10795454545455  11.8385650224215 9.24715909090909  L 11.8385650224215 11.1363636363636  C 11.8385650224215 11.9251893939394  11.6017376681614 12.5996685606061  11.1280829596413 13.1598011363636  C 10.6544282511211 13.7199337121212  10.0840807174888 14  9.41704035874439 14  L 2.42152466367713 14  C 1.75448430493274 14  1.18413677130045 13.7199337121212  0.710482062780269 13.1598011363636  C 0.23682735426009 12.5996685606061  0 11.9251893939394  0 11.1363636363636  L 0 2.86363636363636  C 0 2.0748106060606  0.23682735426009 1.40033143939394  0.710482062780269 0.840198863636364  C 1.18413677130045 0.280066287878787  1.75448430493274 0  2.42152466367713 0  L 9.41704035874439 0  C 9.77017937219731 0  10.0980941704036 0.0828598484848477  10.4007847533632 0.248579545454545  C 10.484865470852 0.29498106060606  10.5353139013453 0.371212121212121  10.5521300448431 0.477272727272727  C 10.5689461883408 0.589962121212121  10.5437219730942 0.686079545454545  10.4764573991031 0.765625  L 10.0644618834081 1.25284090909091  C 9.9859865470852 1.34564393939394  9.89630044843049 1.37215909090909  9.79540358744395 1.33238636363636  C 9.6664798206278 1.29261363636364  9.54035874439462 1.27272727272727  9.41704035874439 1.27272727272727  L 2.42152466367713 1.27272727272727  C 2.05156950672646 1.27272727272727  1.73486547085202 1.42850378787879  1.47141255605381 1.74005681818182  C 1.20795964125561 2.05160984848485  1.0762331838565 2.42613636363636  1.0762331838565 2.86363636363636  L 1.0762331838565 11.1363636363636  C 1.0762331838565 11.5738636363636  1.20795964125561 11.9483901515152  1.47141255605381 12.2599431818182  C 1.73486547085202 12.5714962121212  2.05156950672646 12.7272727272727  2.42152466367713 12.7272727272727  L 9.41704035874439 12.7272727272727  C 9.78699551569507 12.7272727272727  10.1036995515695 12.5714962121212  10.3671524663677 12.2599431818182  C 10.6306053811659 11.9483901515152  10.762331838565 11.5738636363636  10.762331838565 11.1363636363636  L 10.762331838565 9.88352272727273  C 10.762331838565 9.79734848484848  10.7875560538117 9.72443181818182  10.8380044843049 9.66477272727273  L 11.3761210762332 9.02840909090909  C 11.460201793722 8.92897727272727  11.5582959641256 8.90577651515152  11.6704035874439 8.95880681818182  Z M 5.38116591928251 8.59090909090909  L 11.0313901345291 1.90909090909091  L 13.4529147982063 4.77272727272727  L 7.80269058295964 11.4545454545455  L 5.38116591928251 11.4545454545455  L 5.38116591928251 8.59090909090909  Z M 15 2.54545454545455  C 15 2.81060606060606  14.9215246636771 3.03598484848485  14.7645739910314 3.22159090909091  L 13.9910313901345 4.13636363636364  L 11.5695067264574 1.27272727272727  L 12.3430493273543 0.357954545454545  C 12.5 0.172348484848484  12.6905829596413 0.0795454545454553  12.914798206278 0.0795454545454553  C 13.1390134529148 0.0795454545454553  13.3295964125561 0.172348484848484  13.4865470852018 0.357954545454545  L 14.7645739910314 1.86931818181818  C 14.9215246636771 2.05492424242424  15 2.28030303030303  15 2.54545454545455  Z " fill-rule="nonzero" fill="#666666" stroke="none" transform="matrix(1 0 0 1 648 45 )" />
  </g>
</svg>