<?xml version="1.0" encoding="utf-8"?>
<svg version="1.1" xmlns:xlink="http://www.w3.org/1999/xlink" width="12px" height="12px" viewBox="175 480  12 12" xmlns="http://www.w3.org/2000/svg">
  <path d="M 181 480  C 184.36 480  187 482.64  187 486  C 187 489.36  184.36 492  181 492  C 177.64 492  175 489.36  175 486  C 175 482.64  177.64 480  181 480  Z " fill-rule="nonzero" fill="#ffffff" stroke="none" />
  <path d="M 181 480.5  C 184.08 480.5  186.5 482.92  186.5 486  C 186.5 489.08  184.08 491.5  181 491.5  C 177.92 491.5  175.5 489.08  175.5 486  C 175.5 482.92  177.92 480.5  181 480.5  Z " stroke-width="1" stroke="#797979" fill="none" />
  <path d="M 181 489  C 179.32 489  178 487.68  178 486  C 178 484.32  179.32 483  181 483  C 182.68 483  184 484.32  184 486  C 184 487.68  182.68 489  181 489  " fill-rule="nonzero" fill="#797979" stroke="none" />
</svg>