<?xml version="1.0" encoding="utf-8"?>
<svg version="1.1" xmlns:xlink="http://www.w3.org/1999/xlink" width="15px" height="6px" xmlns="http://www.w3.org/2000/svg">
  <g transform="matrix(1 0 0 1 -631 -119 )">
    <path d="M 14.8496993987976 0.618556701030928  C 14.9498997995992 0.687285223367696  15 0.766323024054982  15 0.855670103092784  C 15 0.945017182130584  14.9498997995992 1.02405498281787  14.8496993987976 1.09278350515464  L 7.84569138276553 5.89690721649484  C 7.74549098196393 5.96563573883161  7.63026052104208 6  7.5 6  C 7.36973947895792 6  7.25450901803607 5.96563573883161  7.15430861723447 5.89690721649484  L 0.150300601202405 1.09278350515464  C 0.0501002004008018 1.02405498281787  0 0.945017182130584  0 0.855670103092784  C 0 0.766323024054982  0.0501002004008018 0.687285223367696  0.150300601202405 0.618556701030928  L 0.901803607214429 0.103092783505155  C 1.00200400801603 0.0343642611683841  1.11723446893788 0  1.24749498997996 0  C 1.37775551102204 0  1.49298597194389 0.0343642611683841  1.59318637274549 0.103092783505155  L 7.5 4.15463917525773  L 13.4068136272545 0.103092783505155  C 13.5070140280561 0.0343642611683841  13.622244488978 0  13.75250501002 0  C 13.8827655310621 0  13.997995991984 0.0343642611683841  14.0981963927856 0.103092783505155  L 14.8496993987976 0.618556701030928  Z " fill-rule="nonzero" fill="#a1a1a1" stroke="none" transform="matrix(1 0 0 1 631 119 )" />
  </g>
</svg>