<?xml version="1.0" encoding="utf-8"?>
<svg version="1.1" xmlns:xlink="http://www.w3.org/1999/xlink" width="12px" height="12px" viewBox="186 590.5  12 12" xmlns="http://www.w3.org/2000/svg">
  <path d="M 192 590.5  C 195.36 590.5  198 593.14  198 596.5  C 198 599.86  195.36 602.5  192 602.5  C 188.64 602.5  186 599.86  186 596.5  C 186 593.14  188.64 590.5  192 590.5  Z " fill-rule="nonzero" fill="#ffffff" stroke="none" />
  <path d="M 192 591  C 195.08 591  197.5 593.42  197.5 596.5  C 197.5 599.58  195.08 602  192 602  C 188.92 602  186.5 599.58  186.5 596.5  C 186.5 593.42  188.92 591  192 591  Z " stroke-width="1" stroke="#797979" fill="none" />
  <path d="M 192 599.5  C 190.32 599.5  189 598.18  189 596.5  C 189 594.82  190.32 593.5  192 593.5  C 193.68 593.5  195 594.82  195 596.5  C 195 598.18  193.68 599.5  192 599.5  " fill-rule="nonzero" fill="#797979" stroke="none" />
</svg>