<?xml version="1.0" encoding="utf-8"?>
<svg version="1.1" xmlns:xlink="http://www.w3.org/1999/xlink" width="19px" height="19px" xmlns="http://www.w3.org/2000/svg">
  <defs>
    <filter x="848px" y="475px" width="19px" height="19px" filterUnits="userSpaceOnUse" id="filter2163">
      <feOffset dx="1" dy="1" in="SourceAlpha" result="shadowOffsetInner" />
      <feGaussianBlur stdDeviation="2.5" in="shadowOffsetInner" result="shadowGaussian" />
      <feComposite in2="shadowGaussian" operator="atop" in="SourceAlpha" result="shadowComposite" />
      <feColorMatrix type="matrix" values="0 0 0 0 0  0 0 0 0 0  0 0 0 0 0  0 0 0 0.698039215686274 0  " in="shadowComposite" />
    </filter>
    <g id="widget2164">
      <path d="M 856.5 479  C 859.02 479  861 480.98  861 483.5  C 861 486.02  859.02 488  856.5 488  C 853.98 488  852 486.02  852 483.5  C 852 480.98  853.98 479  856.5 479  Z " fill-rule="nonzero" fill="#33ffff" stroke="none" />
      <path d="M 856.5 479.5  C 858.74 479.5  860.5 481.26  860.5 483.5  C 860.5 485.74  858.74 487.5  856.5 487.5  C 854.26 487.5  852.5 485.74  852.5 483.5  C 852.5 481.26  854.26 479.5  856.5 479.5  Z " stroke-width="1" stroke="#ffffff" fill="none" />
    </g>
  </defs>
  <g transform="matrix(1 0 0 1 -848 -475 )">
    <use xlink:href="#widget2164" filter="url(#filter2163)" />
    <use xlink:href="#widget2164" />
  </g>
</svg>