<?xml version="1.0" encoding="utf-8"?>
<svg version="1.1" xmlns:xlink="http://www.w3.org/1999/xlink" width="138px" height="36px" xmlns="http://www.w3.org/2000/svg">
  <defs>
    <mask fill="white" id="clip1999">
      <path d="M 0 30.2222222222222  L 0 1.77777777777778  C 0 0.782222222222222  0.531171171171171 0  1.20720720720721 0  L 132.792792792793 0  C 133.468828828829 0  134 0.782222222222222  134 1.77777777777778  L 134 30.2222222222222  C 134 31.2177777777778  133.468828828829 32  132.792792792793 32  L 1.20720720720721 32  C 0.531171171171171 32  0 31.2177777777778  0 30.2222222222222  Z " fill-rule="evenodd" />
    </mask>
    <filter x="563px" y="33px" width="138px" height="36px" filterUnits="userSpaceOnUse" id="filter2000">
      <feOffset dx="0" dy="1" in="SourceAlpha" result="shadowOffsetInner" />
      <feGaussianBlur stdDeviation="1" in="shadowOffsetInner" result="shadowGaussian" />
      <feComposite in2="shadowGaussian" operator="atop" in="SourceAlpha" result="shadowComposite" />
      <feColorMatrix type="matrix" values="0 0 0 0 0.4  0 0 0 0 0.4  0 0 0 0 0.4  0 0 0 0.349019607843137 0  " in="shadowComposite" />
    </filter>
    <g id="widget2001">
      <path d="M 0 30.2222222222222  L 0 1.77777777777778  C 0 0.782222222222222  0.531171171171171 0  1.20720720720721 0  L 132.792792792793 0  C 133.468828828829 0  134 0.782222222222222  134 1.77777777777778  L 134 30.2222222222222  C 134 31.2177777777778  133.468828828829 32  132.792792792793 32  L 1.20720720720721 32  C 0.531171171171171 32  0 31.2177777777778  0 30.2222222222222  Z " fill-rule="nonzero" fill="#ffffff" stroke="none" transform="matrix(1 0 0 1 565 34 )" />
      <path d="M 0 30.2222222222222  L 0 1.77777777777778  C 0 0.782222222222222  0.531171171171171 0  1.20720720720721 0  L 132.792792792793 0  C 133.468828828829 0  134 0.782222222222222  134 1.77777777777778  L 134 30.2222222222222  C 134 31.2177777777778  133.468828828829 32  132.792792792793 32  L 1.20720720720721 32  C 0.531171171171171 32  0 31.2177777777778  0 30.2222222222222  Z " stroke-width="2" stroke="#009999" fill="none" transform="matrix(1 0 0 1 565 34 )" mask="url(#clip1999)" />
    </g>
  </defs>
  <g transform="matrix(1 0 0 1 -563 -33 )">
    <use xlink:href="#widget2001" filter="url(#filter2000)" />
    <use xlink:href="#widget2001" />
  </g>
</svg>