<?xml version="1.0" encoding="utf-8"?>
<svg version="1.1" xmlns:xlink="http://www.w3.org/1999/xlink" width="12px" height="12px" viewBox="319 313  12 12" xmlns="http://www.w3.org/2000/svg">
  <path d="M 325 313  C 328.36 313  331 315.64  331 319  C 331 322.36  328.36 325  325 325  C 321.64 325  319 322.36  319 319  C 319 315.64  321.64 313  325 313  Z " fill-rule="nonzero" fill="#ffffff" stroke="none" />
  <path d="M 325 313.5  C 328.08 313.5  330.5 315.92  330.5 319  C 330.5 322.08  328.08 324.5  325 324.5  C 321.92 324.5  319.5 322.08  319.5 319  C 319.5 315.92  321.92 313.5  325 313.5  Z " stroke-width="1" stroke="#797979" fill="none" />
  <path d="M 325 322  C 323.32 322  322 320.68  322 319  C 322 317.32  323.32 316  325 316  C 326.68 316  328 317.32  328 319  C 328 320.68  326.68 322  325 322  " fill-rule="nonzero" fill="#797979" stroke="none" />
</svg>