<?xml version="1.0" encoding="utf-8"?>
<svg version="1.1" xmlns:xlink="http://www.w3.org/1999/xlink" width="12px" height="12px" viewBox="1001 589  12 12" xmlns="http://www.w3.org/2000/svg">
  <path d="M 1007 589  C 1010.36 589  1013 591.64  1013 595  C 1013 598.36  1010.36 601  1007 601  C 1003.64 601  1001 598.36  1001 595  C 1001 591.64  1003.64 589  1007 589  Z " fill-rule="nonzero" fill="#ffffff" stroke="none" />
  <path d="M 1007 589.5  C 1010.08 589.5  1012.5 591.92  1012.5 595  C 1012.5 598.08  1010.08 600.5  1007 600.5  C 1003.92 600.5  1001.5 598.08  1001.5 595  C 1001.5 591.92  1003.92 589.5  1007 589.5  Z " stroke-width="1" stroke="#797979" fill="none" />
  <path d="M 1007 598  C 1005.32 598  1004 596.68  1004 595  C 1004 593.32  1005.32 592  1007 592  C 1008.68 592  1010 593.32  1010 595  C 1010 596.68  1008.68 598  1007 598  " fill-rule="nonzero" fill="#797979" stroke="none" />
</svg>