<?xml version="1.0" encoding="utf-8"?>
<svg version="1.1" xmlns:xlink="http://www.w3.org/1999/xlink" width="12px" height="12px" viewBox="193 231  12 12" xmlns="http://www.w3.org/2000/svg">
  <path d="M 199 231  C 202.36 231  205 233.64  205 237  C 205 240.36  202.36 243  199 243  C 195.64 243  193 240.36  193 237  C 193 233.64  195.64 231  199 231  Z " fill-rule="nonzero" fill="#ffffff" stroke="none" />
  <path d="M 199 231.5  C 202.08 231.5  204.5 233.92  204.5 237  C 204.5 240.08  202.08 242.5  199 242.5  C 195.92 242.5  193.5 240.08  193.5 237  C 193.5 233.92  195.92 231.5  199 231.5  Z " stroke-width="1" stroke="#797979" fill="none" />
  <path d="M 199 240  C 197.32 240  196 238.68  196 237  C 196 235.32  197.32 234  199 234  C 200.68 234  202 235.32  202 237  C 202 238.68  200.68 240  199 240  " fill-rule="nonzero" fill="#797979" stroke="none" />
</svg>