<?xml version="1.0" encoding="utf-8"?>
<svg version="1.1" xmlns:xlink="http://www.w3.org/1999/xlink" width="113px" height="36px" xmlns="http://www.w3.org/2000/svg">
  <defs>
    <mask fill="white" id="clip1969">
      <path d="M 0 30.2222222222222  L 0 1.77777777777778  C 0 0.782222222222222  0.432072072072072 0  0.981981981981982 0  L 108.018018018018 0  C 108.567927927928 0  109 0.782222222222222  109 1.77777777777778  L 109 30.2222222222222  C 109 31.2177777777778  108.567927927928 32  108.018018018018 32  L 0.981981981981982 32  C 0.432072072072072 32  0 31.2177777777778  0 30.2222222222222  Z " fill-rule="evenodd" />
    </mask>
    <filter x="487px" y="509px" width="113px" height="36px" filterUnits="userSpaceOnUse" id="filter1970">
      <feOffset dx="0" dy="1" in="SourceAlpha" result="shadowOffsetInner" />
      <feGaussianBlur stdDeviation="1" in="shadowOffsetInner" result="shadowGaussian" />
      <feComposite in2="shadowGaussian" operator="atop" in="SourceAlpha" result="shadowComposite" />
      <feColorMatrix type="matrix" values="0 0 0 0 0.4  0 0 0 0 0.4  0 0 0 0 0.4  0 0 0 0.349019607843137 0  " in="shadowComposite" />
    </filter>
    <g id="widget1971">
      <path d="M 0 30.2222222222222  L 0 1.77777777777778  C 0 0.782222222222222  0.432072072072072 0  0.981981981981982 0  L 108.018018018018 0  C 108.567927927928 0  109 0.782222222222222  109 1.77777777777778  L 109 30.2222222222222  C 109 31.2177777777778  108.567927927928 32  108.018018018018 32  L 0.981981981981982 32  C 0.432072072072072 32  0 31.2177777777778  0 30.2222222222222  Z " fill-rule="nonzero" fill="#ffffff" stroke="none" transform="matrix(1 0 0 1 489 510 )" />
      <path d="M 0 30.2222222222222  L 0 1.77777777777778  C 0 0.782222222222222  0.432072072072072 0  0.981981981981982 0  L 108.018018018018 0  C 108.567927927928 0  109 0.782222222222222  109 1.77777777777778  L 109 30.2222222222222  C 109 31.2177777777778  108.567927927928 32  108.018018018018 32  L 0.981981981981982 32  C 0.432072072072072 32  0 31.2177777777778  0 30.2222222222222  Z " stroke-width="2" stroke="#009999" fill="none" transform="matrix(1 0 0 1 489 510 )" mask="url(#clip1969)" />
    </g>
  </defs>
  <g transform="matrix(1 0 0 1 -487 -509 )">
    <use xlink:href="#widget1971" filter="url(#filter1970)" />
    <use xlink:href="#widget1971" />
  </g>
</svg>