<?xml version="1.0" encoding="utf-8"?>
<svg version="1.1" xmlns:xlink="http://www.w3.org/1999/xlink" width="92px" height="63px" xmlns="http://www.w3.org/2000/svg">
  <g transform="matrix(1 0 0 1 -434 -409 )">
    <path d="M 24.8995535714286 34.76953125  L 11.0892857142857 41.09765625  L 42 55.23046875  L 42 42.609375  L 24.8995535714286 34.76953125  Z M 7.90625 26.96484375  L 7.90625 36.03515625  L 17.8147321428571 31.5  L 7.90625 26.96484375  Z M 50 42.609375  L 50 55.23046875  L 80.9107142857143 41.09765625  L 67.1004464285714 34.76953125  L 50 42.609375  Z M 32.0357142857143 31.5  L 46 37.8984375  L 59.9642857142857 31.5  L 46 25.1015625  L 32.0357142857143 31.5  Z M 11.0892857142857 21.90234375  L 24.8995535714286 28.23046875  L 42 20.390625  L 42 7.76953125  L 11.0892857142857 21.90234375  Z M 84.09375 26.96484375  L 74.1852678571428 31.5  L 84.09375 36.03515625  L 84.09375 26.96484375  Z M 50 20.390625  L 67.1004464285714 28.23046875  L 80.9107142857143 21.90234375  L 50 7.76953125  L 50 20.390625  Z M 90.2544642857143 19.65234375  C 91.4181547619048 20.19140625  92 20.94140625  92 21.90234375  L 92 41.09765625  C 92 42.05859375  91.4181547619048 42.80859375  90.2544642857143 43.34765625  L 48.2075892857143 62.54296875  C 47.4888392857143 62.84765625  46.7529761904762 63  46 63  C 45.2470238095238 63  44.5111607142857 62.84765625  43.7924107142857 62.54296875  L 1.74553571428571 43.34765625  C 0.581845238095238 42.80859375  0 42.05859375  0 41.09765625  L 0 21.90234375  C 0 20.94140625  0.581845238095238 20.19140625  1.74553571428571 19.65234375  L 43.7924107142857 0.457031250000001  C 44.5111607142857 0.152343750000007  45.2470238095238 0  46 0  C 46.7529761904762 0  47.4888392857143 0.152343750000007  48.2075892857143 0.457031250000001  L 90.2544642857143 19.65234375  Z " fill-rule="nonzero" fill="#d7d7d7" stroke="none" transform="matrix(1 0 0 1 434 409 )" />
  </g>
</svg>