<?xml version="1.0" encoding="utf-8"?>
<svg version="1.1" xmlns:xlink="http://www.w3.org/1999/xlink" width="12px" height="12px" viewBox="287 731  12 12" xmlns="http://www.w3.org/2000/svg">
  <path d="M 293 731  C 296.36 731  299 733.64  299 737  C 299 740.36  296.36 743  293 743  C 289.64 743  287 740.36  287 737  C 287 733.64  289.64 731  293 731  Z " fill-rule="nonzero" fill="#ffffff" stroke="none" />
  <path d="M 293 731.5  C 296.08 731.5  298.5 733.92  298.5 737  C 298.5 740.08  296.08 742.5  293 742.5  C 289.92 742.5  287.5 740.08  287.5 737  C 287.5 733.92  289.92 731.5  293 731.5  Z " stroke-width="1" stroke="#797979" fill="none" />
  <path d="M 293 740  C 291.32 740  290 738.68  290 737  C 290 735.32  291.32 734  293 734  C 294.68 734  296 735.32  296 737  C 296 738.68  294.68 740  293 740  " fill-rule="nonzero" fill="#797979" stroke="none" />
</svg>