<?xml version="1.0" encoding="utf-8"?>
<svg version="1.1" xmlns:xlink="http://www.w3.org/1999/xlink" width="12px" height="12px" viewBox="187 775  12 12" xmlns="http://www.w3.org/2000/svg">
  <path d="M 193 775  C 196.36 775  199 777.64  199 781  C 199 784.36  196.36 787  193 787  C 189.64 787  187 784.36  187 781  C 187 777.64  189.64 775  193 775  Z " fill-rule="nonzero" fill="#ffffff" stroke="none" />
  <path d="M 193 775.5  C 196.08 775.5  198.5 777.92  198.5 781  C 198.5 784.08  196.08 786.5  193 786.5  C 189.92 786.5  187.5 784.08  187.5 781  C 187.5 777.92  189.92 775.5  193 775.5  Z " stroke-width="1" stroke="#797979" fill="none" />
  <path d="M 193 784  C 191.32 784  190 782.68  190 781  C 190 779.32  191.32 778  193 778  C 194.68 778  196 779.32  196 781  C 196 782.68  194.68 784  193 784  " fill-rule="nonzero" fill="#797979" stroke="none" />
</svg>