<?xml version="1.0" encoding="utf-8"?>
<svg version="1.1" xmlns:xlink="http://www.w3.org/1999/xlink" width="12px" height="12px" viewBox="465 897  12 12" xmlns="http://www.w3.org/2000/svg">
  <path d="M 471 897  C 474.36 897  477 899.64  477 903  C 477 906.36  474.36 909  471 909  C 467.64 909  465 906.36  465 903  C 465 899.64  467.64 897  471 897  Z " fill-rule="nonzero" fill="#ffffff" stroke="none" />
  <path d="M 471 897.5  C 474.08 897.5  476.5 899.92  476.5 903  C 476.5 906.08  474.08 908.5  471 908.5  C 467.92 908.5  465.5 906.08  465.5 903  C 465.5 899.92  467.92 897.5  471 897.5  Z " stroke-width="1" stroke="#797979" fill="none" />
  <path d="M 471 906  C 469.32 906  468 904.68  468 903  C 468 901.32  469.32 900  471 900  C 472.68 900  474 901.32  474 903  C 474 904.68  472.68 906  471 906  " fill-rule="nonzero" fill="#797979" stroke="none" />
</svg>