<?xml version="1.0" encoding="utf-8"?>
<svg version="1.1" xmlns:xlink="http://www.w3.org/1999/xlink" width="12px" height="12px" viewBox="325 897  12 12" xmlns="http://www.w3.org/2000/svg">
  <path d="M 331 897  C 334.36 897  337 899.64  337 903  C 337 906.36  334.36 909  331 909  C 327.64 909  325 906.36  325 903  C 325 899.64  327.64 897  331 897  Z " fill-rule="nonzero" fill="#ffffff" stroke="none" />
  <path d="M 331 897.5  C 334.08 897.5  336.5 899.92  336.5 903  C 336.5 906.08  334.08 908.5  331 908.5  C 327.92 908.5  325.5 906.08  325.5 903  C 325.5 899.92  327.92 897.5  331 897.5  Z " stroke-width="1" stroke="#797979" fill="none" />
  <path d="M 331 906  C 329.32 906  328 904.68  328 903  C 328 901.32  329.32 900  331 900  C 332.68 900  334 901.32  334 903  C 334 904.68  332.68 906  331 906  " fill-rule="nonzero" fill="#797979" stroke="none" />
</svg>