<?xml version="1.0" encoding="utf-8"?>
<svg version="1.1" xmlns:xlink="http://www.w3.org/1999/xlink" width="12px" height="12px" viewBox="227 1544  12 12" xmlns="http://www.w3.org/2000/svg">
  <path d="M 233 1544  C 236.36 1544  239 1546.64  239 1550  C 239 1553.36  236.36 1556  233 1556  C 229.64 1556  227 1553.36  227 1550  C 227 1546.64  229.64 1544  233 1544  Z " fill-rule="nonzero" fill="#ffffff" stroke="none" />
  <path d="M 233 1544.5  C 236.08 1544.5  238.5 1546.92  238.5 1550  C 238.5 1553.08  236.08 1555.5  233 1555.5  C 229.92 1555.5  227.5 1553.08  227.5 1550  C 227.5 1546.92  229.92 1544.5  233 1544.5  Z " stroke-width="1" stroke="#797979" fill="none" />
  <path d="M 233 1553  C 231.32 1553  230 1551.68  230 1550  C 230 1548.32  231.32 1547  233 1547  C 234.68 1547  236 1548.32  236 1550  C 236 1551.68  234.68 1553  233 1553  " fill-rule="nonzero" fill="#797979" stroke="none" />
</svg>