<?xml version="1.0" encoding="utf-8"?>
<svg version="1.1" xmlns:xlink="http://www.w3.org/1999/xlink" width="12px" height="12px" viewBox="212 596  12 12" xmlns="http://www.w3.org/2000/svg">
  <path d="M 218 596  C 221.36 596  224 598.64  224 602  C 224 605.36  221.36 608  218 608  C 214.64 608  212 605.36  212 602  C 212 598.64  214.64 596  218 596  Z " fill-rule="nonzero" fill="#ffffff" stroke="none" />
  <path d="M 218 596.5  C 221.08 596.5  223.5 598.92  223.5 602  C 223.5 605.08  221.08 607.5  218 607.5  C 214.92 607.5  212.5 605.08  212.5 602  C 212.5 598.92  214.92 596.5  218 596.5  Z " stroke-width="1" stroke="#797979" fill="none" />
  <path d="M 218 605  C 216.32 605  215 603.68  215 602  C 215 600.32  216.32 599  218 599  C 219.68 599  221 600.32  221 602  C 221 603.68  219.68 605  218 605  " fill-rule="nonzero" fill="#797979" stroke="none" />
</svg>