<?xml version="1.0" encoding="utf-8"?>
<svg version="1.1" xmlns:xlink="http://www.w3.org/1999/xlink" width="12px" height="12px" viewBox="146 742  12 12" xmlns="http://www.w3.org/2000/svg">
  <path d="M 152 742  C 155.36 742  158 744.64  158 748  C 158 751.36  155.36 754  152 754  C 148.64 754  146 751.36  146 748  C 146 744.64  148.64 742  152 742  Z " fill-rule="nonzero" fill="#ffffff" stroke="none" />
  <path d="M 152 742.5  C 155.08 742.5  157.5 744.92  157.5 748  C 157.5 751.08  155.08 753.5  152 753.5  C 148.92 753.5  146.5 751.08  146.5 748  C 146.5 744.92  148.92 742.5  152 742.5  Z " stroke-width="1" stroke="#797979" fill="none" />
  <path d="M 152 751  C 150.32 751  149 749.68  149 748  C 149 746.32  150.32 745  152 745  C 153.68 745  155 746.32  155 748  C 155 749.68  153.68 751  152 751  " fill-rule="nonzero" fill="#797979" stroke="none" />
</svg>