<?xml version="1.0" encoding="utf-8"?>
<svg version="1.1" xmlns:xlink="http://www.w3.org/1999/xlink" width="12px" height="12px" viewBox="187 727  12 12" xmlns="http://www.w3.org/2000/svg">
  <path d="M 193 727  C 196.36 727  199 729.64  199 733  C 199 736.36  196.36 739  193 739  C 189.64 739  187 736.36  187 733  C 187 729.64  189.64 727  193 727  Z " fill-rule="nonzero" fill="#ffffff" stroke="none" />
  <path d="M 193 727.5  C 196.08 727.5  198.5 729.92  198.5 733  C 198.5 736.08  196.08 738.5  193 738.5  C 189.92 738.5  187.5 736.08  187.5 733  C 187.5 729.92  189.92 727.5  193 727.5  Z " stroke-width="1" stroke="#797979" fill="none" />
  <path d="M 193 736  C 191.32 736  190 734.68  190 733  C 190 731.32  191.32 730  193 730  C 194.68 730  196 731.32  196 733  C 196 734.68  194.68 736  193 736  " fill-rule="nonzero" fill="#797979" stroke="none" />
</svg>