<?xml version="1.0" encoding="utf-8"?>
<svg version="1.1" xmlns:xlink="http://www.w3.org/1999/xlink" width="12px" height="12px" viewBox="287 835  12 12" xmlns="http://www.w3.org/2000/svg">
  <path d="M 293 835  C 296.36 835  299 837.64  299 841  C 299 844.36  296.36 847  293 847  C 289.64 847  287 844.36  287 841  C 287 837.64  289.64 835  293 835  Z " fill-rule="nonzero" fill="#ffffff" stroke="none" />
  <path d="M 293 835.5  C 296.08 835.5  298.5 837.92  298.5 841  C 298.5 844.08  296.08 846.5  293 846.5  C 289.92 846.5  287.5 844.08  287.5 841  C 287.5 837.92  289.92 835.5  293 835.5  Z " stroke-width="1" stroke="#797979" fill="none" />
  <path d="M 293 844  C 291.32 844  290 842.68  290 841  C 290 839.32  291.32 838  293 838  C 294.68 838  296 839.32  296 841  C 296 842.68  294.68 844  293 844  " fill-rule="nonzero" fill="#797979" stroke="none" />
</svg>