<?xml version="1.0" encoding="utf-8"?>
<svg version="1.1" xmlns:xlink="http://www.w3.org/1999/xlink" width="12px" height="12px" viewBox="727 117  12 12" xmlns="http://www.w3.org/2000/svg">
  <path d="M 733 117  C 736.36 117  739 119.64  739 123  C 739 126.36  736.36 129  733 129  C 729.64 129  727 126.36  727 123  C 727 119.64  729.64 117  733 117  Z " fill-rule="nonzero" fill="#ffffff" stroke="none" />
  <path d="M 733 117.5  C 736.08 117.5  738.5 119.92  738.5 123  C 738.5 126.08  736.08 128.5  733 128.5  C 729.92 128.5  727.5 126.08  727.5 123  C 727.5 119.92  729.92 117.5  733 117.5  Z " stroke-width="1" stroke="#797979" fill="none" />
  <path d="M 733 126  C 731.32 126  730 124.68  730 123  C 730 121.32  731.32 120  733 120  C 734.68 120  736 121.32  736 123  C 736 124.68  734.68 126  733 126  " fill-rule="nonzero" fill="#797979" stroke="none" />
</svg>