<?xml version="1.0" encoding="utf-8"?>
<svg version="1.1" xmlns:xlink="http://www.w3.org/1999/xlink" width="30px" height="25px" xmlns="http://www.w3.org/2000/svg">
  <g transform="matrix(1 0 0 1 -516 -300 )">
    <path d="M 21.69921875 12.646484375  C 21.81640625 12.744140625  21.875 12.8689236111111  21.875 13.0208333333333  C 21.875 13.1510416666667  21.8098958333333 13.28125  21.6796875 13.4114583333333  L 15.44921875 18.603515625  C 15.3059895833333 18.701171875  15.15625 18.75  15 18.75  C 14.84375 18.75  14.6940104166667 18.701171875  14.55078125 18.603515625  L 8.30078125 13.3951822916667  C 8.10546875 13.2215711805556  8.05989583333333 13.0316840277778  8.1640625 12.8255208333333  C 8.26822916666667 12.6085069444444  8.46354166666667 12.5  8.75 12.5  L 12.5 12.5  L 12.5 6.77083333333333  C 12.5 6.61892361111111  12.55859375 6.494140625  12.67578125 6.396484375  C 12.79296875 6.298828125  12.9427083333333 6.25  13.125 6.25  L 16.875 6.25  C 17.0572916666667 6.25  17.20703125 6.298828125  17.32421875 6.396484375  C 17.44140625 6.494140625  17.5 6.61892361111111  17.5 6.77083333333333  L 17.5 12.5  L 21.25 12.5  C 21.4322916666667 12.5  21.58203125 12.548828125  21.69921875 12.646484375  Z M 20.33203125 4.833984375  C 18.7044270833333 4.04188368055556  16.9270833333333 3.64583333333333  15 3.64583333333333  C 13.0729166666667 3.64583333333333  11.2955729166667 4.04188368055556  9.66796875 4.833984375  C 8.04036458333333 5.62608506944444  6.75130208333333 6.70030381944444  5.80078125 8.056640625  C 4.85026041666667 9.41297743055556  4.375 10.8940972222222  4.375 12.5  C 4.375 14.1059027777778  4.85026041666667 15.5870225694444  5.80078125 16.943359375  C 6.75130208333333 18.2996961805556  8.04036458333333 19.3739149305556  9.66796875 20.166015625  C 11.2955729166667 20.9581163194444  13.0729166666667 21.3541666666667  15 21.3541666666667  C 16.9270833333333 21.3541666666667  18.7044270833333 20.9581163194444  20.33203125 20.166015625  C 21.9596354166667 19.3739149305556  23.2486979166667 18.2996961805556  24.19921875 16.943359375  C 25.1497395833333 15.5870225694444  25.625 14.1059027777778  25.625 12.5  C 25.625 10.8940972222222  25.1497395833333 9.41297743055556  24.19921875 8.056640625  C 23.2486979166667 6.70030381944444  21.9596354166667 5.62608506944444  20.33203125 4.833984375  Z M 27.98828125 6.2255859375  C 29.3294270833333 8.14073350694444  30 10.2322048611111  30 12.5  C 30 14.7677951388889  29.3294270833333 16.8592664930556  27.98828125 18.7744140625  C 26.6471354166667 20.6895616319444  24.8274739583333 22.2059461805556  22.529296875 23.3235677083333  C 20.2311197916667 24.4411892361111  17.7213541666667 25  15 25  C 12.2786458333333 25  9.76888020833333 24.4411892361111  7.470703125 23.3235677083333  C 5.17252604166667 22.2059461805556  3.35286458333333 20.6895616319444  2.01171875 18.7744140625  C 0.670572916666667 16.8592664930556  0 14.7677951388889  0 12.5  C 0 10.2322048611111  0.670572916666667 8.14073350694444  2.01171875 6.2255859375  C 3.35286458333333 4.31043836805556  5.17252604166667 2.79405381944444  7.470703125 1.67643229166667  C 9.76888020833333 0.558810763888887  12.2786458333333 0  15 0  C 17.7213541666667 0  20.2311197916667 0.558810763888887  22.529296875 1.67643229166667  C 24.8274739583333 2.79405381944444  26.6471354166667 4.31043836805556  27.98828125 6.2255859375  Z " fill-rule="nonzero" fill="#000000" stroke="none" transform="matrix(1 0 0 1 516 300 )" />
  </g>
</svg>