<?xml version="1.0" encoding="utf-8"?>
<svg version="1.1" xmlns:xlink="http://www.w3.org/1999/xlink" width="30px" height="25px" xmlns="http://www.w3.org/2000/svg">
  <g transform="matrix(1 0 0 1 -552 -300 )">
    <path d="M 21.69921875 11.6048177083333  C 21.89453125 11.7784288194444  21.9401041666667 11.9683159722222  21.8359375 12.1744791666667  C 21.7317708333333 12.3914930555556  21.5364583333333 12.5  21.25 12.5  L 17.5 12.5  L 17.5 18.2291666666667  C 17.5 18.3810763888889  17.44140625 18.505859375  17.32421875 18.603515625  C 17.20703125 18.701171875  17.0572916666667 18.75  16.875 18.75  L 13.125 18.75  C 12.9427083333333 18.75  12.79296875 18.701171875  12.67578125 18.603515625  C 12.55859375 18.505859375  12.5 18.3810763888889  12.5 18.2291666666667  L 12.5 12.5  L 8.75 12.5  C 8.56770833333333 12.5  8.41796875 12.451171875  8.30078125 12.353515625  C 8.18359375 12.255859375  8.125 12.1310763888889  8.125 11.9791666666667  C 8.125 11.8489583333333  8.19010416666667 11.71875  8.3203125 11.5885416666667  L 14.55078125 6.396484375  C 14.6940104166667 6.298828125  14.84375 6.25  15 6.25  C 15.15625 6.25  15.3059895833333 6.298828125  15.44921875 6.396484375  L 21.69921875 11.6048177083333  Z M 20.33203125 4.833984375  C 18.7044270833333 4.04188368055556  16.9270833333333 3.64583333333333  15 3.64583333333333  C 13.0729166666667 3.64583333333333  11.2955729166667 4.04188368055556  9.66796875 4.833984375  C 8.04036458333333 5.62608506944444  6.75130208333333 6.70030381944444  5.80078125 8.056640625  C 4.85026041666667 9.41297743055556  4.375 10.8940972222222  4.375 12.5  C 4.375 14.1059027777778  4.85026041666667 15.5870225694444  5.80078125 16.943359375  C 6.75130208333333 18.2996961805556  8.04036458333333 19.3739149305556  9.66796875 20.166015625  C 11.2955729166667 20.9581163194444  13.0729166666667 21.3541666666667  15 21.3541666666667  C 16.9270833333333 21.3541666666667  18.7044270833333 20.9581163194444  20.33203125 20.166015625  C 21.9596354166667 19.3739149305556  23.2486979166667 18.2996961805556  24.19921875 16.943359375  C 25.1497395833333 15.5870225694444  25.625 14.1059027777778  25.625 12.5  C 25.625 10.8940972222222  25.1497395833333 9.41297743055556  24.19921875 8.056640625  C 23.2486979166667 6.70030381944444  21.9596354166667 5.62608506944444  20.33203125 4.833984375  Z M 27.98828125 6.2255859375  C 29.3294270833333 8.14073350694444  30 10.2322048611111  30 12.5  C 30 14.7677951388889  29.3294270833333 16.8592664930556  27.98828125 18.7744140625  C 26.6471354166667 20.6895616319444  24.8274739583333 22.2059461805556  22.529296875 23.3235677083333  C 20.2311197916667 24.4411892361111  17.7213541666667 25  15 25  C 12.2786458333333 25  9.76888020833333 24.4411892361111  7.470703125 23.3235677083333  C 5.17252604166667 22.2059461805556  3.35286458333333 20.6895616319444  2.01171875 18.7744140625  C 0.670572916666667 16.8592664930556  0 14.7677951388889  0 12.5  C 0 10.2322048611111  0.670572916666667 8.14073350694444  2.01171875 6.2255859375  C 3.35286458333333 4.31043836805556  5.17252604166667 2.79405381944444  7.470703125 1.67643229166667  C 9.76888020833333 0.558810763888887  12.2786458333333 0  15 0  C 17.7213541666667 0  20.2311197916667 0.558810763888887  22.529296875 1.67643229166667  C 24.8274739583333 2.79405381944444  26.6471354166667 4.31043836805556  27.98828125 6.2255859375  Z " fill-rule="nonzero" fill="#000000" stroke="none" transform="matrix(1 0 0 1 552 300 )" />
  </g>
</svg>