<?xml version="1.0" encoding="utf-8"?>
<svg version="1.1" xmlns:xlink="http://www.w3.org/1999/xlink" width="12px" height="12px" viewBox="203 174  12 12" xmlns="http://www.w3.org/2000/svg">
  <path d="M 209 174  C 212.36 174  215 176.64  215 180  C 215 183.36  212.36 186  209 186  C 205.64 186  203 183.36  203 180  C 203 176.64  205.64 174  209 174  Z " fill-rule="nonzero" fill="#ffffff" stroke="none" />
  <path d="M 209 174.5  C 212.08 174.5  214.5 176.92  214.5 180  C 214.5 183.08  212.08 185.5  209 185.5  C 205.92 185.5  203.5 183.08  203.5 180  C 203.5 176.92  205.92 174.5  209 174.5  Z " stroke-width="1" stroke="#797979" fill="none" />
  <path d="M 209 183  C 207.32 183  206 181.68  206 180  C 206 178.32  207.32 177  209 177  C 210.68 177  212 178.32  212 180  C 212 181.68  210.68 183  209 183  " fill-rule="nonzero" fill="#797979" stroke="none" />
</svg>