<?xml version="1.0" encoding="utf-8"?>
<svg version="1.1" xmlns:xlink="http://www.w3.org/1999/xlink" width="15px" height="14px" xmlns="http://www.w3.org/2000/svg">
  <g transform="matrix(1 0 0 1 -339 -182 )">
    <path d="M 8.662109375 3.58203125  C 8.720703125 3.63671875  8.75 3.70659722222223  8.75 3.79166666666666  L 8.75 7.875  C 8.75 7.96006944444446  8.720703125 8.02994791666666  8.662109375 8.08463541666666  C 8.603515625 8.13932291666666  8.52864583333337 8.16666666666666  8.4375 8.16666666666666  L 5.3125 8.16666666666666  C 5.22135416666669 8.16666666666666  5.146484375 8.13932291666666  5.087890625 8.08463541666666  C 5.029296875 8.02994791666666  5 7.96006944444446  5 7.875  L 5 7.29166666666666  C 5 7.20659722222223  5.029296875 7.13671875  5.087890625 7.08203125  C 5.146484375 7.02734375  5.22135416666669 7  5.3125 7  L 7.5 7  L 7.5 3.79166666666666  C 7.5 3.70659722222223  7.529296875 3.63671875  7.587890625 3.58203125  C 7.646484375 3.52734375  7.72135416666663 3.5  7.8125 3.5  L 8.4375 3.5  C 8.52864583333337 3.5  8.603515625 3.52734375  8.662109375 3.58203125  Z M 12.099609375 9.48828125  C 12.5748697916666 8.72873263888889  12.8125 7.89930555555554  12.8125 7  C 12.8125 6.10069444444446  12.5748697916666 5.27126736111111  12.099609375 4.51171875  C 11.6243489583334 3.75217013888889  10.9798177083334 3.15060763888889  10.166015625 2.70703125  C 9.35221354166663 2.26345486111111  8.46354166666663 2.04166666666666  7.5 2.04166666666666  C 6.53645833333337 2.04166666666666  5.64778645833337 2.26345486111111  4.833984375 2.70703125  C 4.02018229166669 3.15060763888889  3.37565104166669 3.75217013888889  2.900390625 4.51171875  C 2.42513020833331 5.27126736111111  2.1875 6.10069444444446  2.1875 7  C 2.1875 7.89930555555554  2.42513020833331 8.72873263888889  2.900390625 9.48828125  C 3.37565104166669 10.2478298611111  4.02018229166669 10.8493923611111  4.833984375 11.29296875  C 5.64778645833337 11.7365451388889  6.53645833333337 11.9583333333333  7.5 11.9583333333333  C 8.46354166666663 11.9583333333333  9.35221354166663 11.7365451388889  10.166015625 11.29296875  C 10.9798177083334 10.8493923611111  11.6243489583334 10.2478298611111  12.099609375 9.48828125  Z M 13.994140625 3.486328125  C 14.6647135416666 4.55881076388889  15 5.73003472222223  15 7  C 15 8.26996527777777  14.6647135416666 9.44118923611111  13.994140625 10.513671875  C 13.3235677083334 11.5861545138889  12.4137369791666 12.4353298611111  11.2646484375 13.0611979166667  C 10.1155598958334 13.6870659722222  8.86067708333337 14  7.5 14  C 6.13932291666663 14  4.88444010416669 13.6870659722222  3.7353515625 13.0611979166667  C 2.58626302083331 12.4353298611111  1.67643229166669 11.5861545138889  1.005859375 10.513671875  C 0.335286458333314 9.44118923611111  0 8.26996527777777  0 7  C 0 5.73003472222223  0.335286458333314 4.55881076388889  1.005859375 3.486328125  C 1.67643229166669 2.41384548611111  2.58626302083331 1.56467013888889  3.7353515625 0.938802083333343  C 4.88444010416669 0.312934027777771  6.13932291666663 0  7.5 0  C 8.86067708333337 0  10.1155598958334 0.312934027777771  11.2646484375 0.938802083333343  C 12.4137369791666 1.56467013888889  13.3235677083334 2.41384548611111  13.994140625 3.486328125  Z " fill-rule="nonzero" fill="#000000" stroke="none" transform="matrix(1 0 0 1 339 182 )" />
  </g>
</svg>