<?xml version="1.0" encoding="utf-8"?>
<svg version="1.1" xmlns:xlink="http://www.w3.org/1999/xlink" width="12px" height="12px" viewBox="225 897  12 12" xmlns="http://www.w3.org/2000/svg">
  <path d="M 231 897  C 234.36 897  237 899.64  237 903  C 237 906.36  234.36 909  231 909  C 227.64 909  225 906.36  225 903  C 225 899.64  227.64 897  231 897  Z " fill-rule="nonzero" fill="#ffffff" stroke="none" />
  <path d="M 231 897.5  C 234.08 897.5  236.5 899.92  236.5 903  C 236.5 906.08  234.08 908.5  231 908.5  C 227.92 908.5  225.5 906.08  225.5 903  C 225.5 899.92  227.92 897.5  231 897.5  Z " stroke-width="1" stroke="#797979" fill="none" />
  <path d="M 231 906  C 229.32 906  228 904.68  228 903  C 228 901.32  229.32 900  231 900  C 232.68 900  234 901.32  234 903  C 234 904.68  232.68 906  231 906  " fill-rule="nonzero" fill="#797979" stroke="none" />
</svg>