<?xml version="1.0" encoding="utf-8"?>
<svg version="1.1" xmlns:xlink="http://www.w3.org/1999/xlink" width="12px" height="12px" viewBox="586 896  12 12" xmlns="http://www.w3.org/2000/svg">
  <path d="M 592 896  C 595.36 896  598 898.64  598 902  C 598 905.36  595.36 908  592 908  C 588.64 908  586 905.36  586 902  C 586 898.64  588.64 896  592 896  Z " fill-rule="nonzero" fill="#ffffff" stroke="none" />
  <path d="M 592 896.5  C 595.08 896.5  597.5 898.92  597.5 902  C 597.5 905.08  595.08 907.5  592 907.5  C 588.92 907.5  586.5 905.08  586.5 902  C 586.5 898.92  588.92 896.5  592 896.5  Z " stroke-width="1" stroke="#797979" fill="none" />
  <path d="M 592 905  C 590.32 905  589 903.68  589 902  C 589 900.32  590.32 899  592 899  C 593.68 899  595 900.32  595 902  C 595 903.68  593.68 905  592 905  " fill-rule="nonzero" fill="#797979" stroke="none" />
</svg>