<?xml version="1.0" encoding="utf-8"?>
<svg version="1.1" xmlns:xlink="http://www.w3.org/1999/xlink" width="95px" height="36px" xmlns="http://www.w3.org/2000/svg">
  <defs>
    <mask fill="white" id="clip2119">
      <path d="M 0 30.2222222222222  L 0 1.77777777777778  C 0 0.782222222222222  0.360720720720721 0  0.81981981981982 0  L 90.1801801801802 0  C 90.6392792792793 0  91 0.782222222222222  91 1.77777777777778  L 91 30.2222222222222  C 91 31.2177777777778  90.6392792792793 32  90.1801801801802 32  L 0.81981981981982 32  C 0.360720720720721 32  0 31.2177777777778  0 30.2222222222222  Z " fill-rule="evenodd" />
    </mask>
    <filter x="57px" y="63px" width="95px" height="36px" filterUnits="userSpaceOnUse" id="filter2120">
      <feOffset dx="0" dy="1" in="SourceAlpha" result="shadowOffsetInner" />
      <feGaussianBlur stdDeviation="1" in="shadowOffsetInner" result="shadowGaussian" />
      <feComposite in2="shadowGaussian" operator="atop" in="SourceAlpha" result="shadowComposite" />
      <feColorMatrix type="matrix" values="0 0 0 0 0.4  0 0 0 0 0.4  0 0 0 0 0.4  0 0 0 0.349019607843137 0  " in="shadowComposite" />
    </filter>
    <g id="widget2121">
      <path d="M 0 30.2222222222222  L 0 1.77777777777778  C 0 0.782222222222222  0.360720720720721 0  0.81981981981982 0  L 90.1801801801802 0  C 90.6392792792793 0  91 0.782222222222222  91 1.77777777777778  L 91 30.2222222222222  C 91 31.2177777777778  90.6392792792793 32  90.1801801801802 32  L 0.81981981981982 32  C 0.360720720720721 32  0 31.2177777777778  0 30.2222222222222  Z " fill-rule="nonzero" fill="#ffffff" stroke="none" transform="matrix(1 0 0 1 59 64 )" />
      <path d="M 0 30.2222222222222  L 0 1.77777777777778  C 0 0.782222222222222  0.360720720720721 0  0.81981981981982 0  L 90.1801801801802 0  C 90.6392792792793 0  91 0.782222222222222  91 1.77777777777778  L 91 30.2222222222222  C 91 31.2177777777778  90.6392792792793 32  90.1801801801802 32  L 0.81981981981982 32  C 0.360720720720721 32  0 31.2177777777778  0 30.2222222222222  Z " stroke-width="2" stroke="#009999" fill="none" transform="matrix(1 0 0 1 59 64 )" mask="url(#clip2119)" />
    </g>
  </defs>
  <g transform="matrix(1 0 0 1 -57 -63 )">
    <use xlink:href="#widget2121" filter="url(#filter2120)" />
    <use xlink:href="#widget2121" />
  </g>
</svg>