<?xml version="1.0" encoding="utf-8"?>
<svg version="1.1" xmlns:xlink="http://www.w3.org/1999/xlink" width="19px" height="19px" xmlns="http://www.w3.org/2000/svg">
  <defs>
    <filter x="1124px" y="820px" width="19px" height="19px" filterUnits="userSpaceOnUse" id="filter2122">
      <feOffset dx="1" dy="1" in="SourceAlpha" result="shadowOffsetInner" />
      <feGaussianBlur stdDeviation="2.5" in="shadowOffsetInner" result="shadowGaussian" />
      <feComposite in2="shadowGaussian" operator="atop" in="SourceAlpha" result="shadowComposite" />
      <feColorMatrix type="matrix" values="0 0 0 0 0  0 0 0 0 0  0 0 0 0 0  0 0 0 0.698039215686274 0  " in="shadowComposite" />
    </filter>
    <g id="widget2123">
      <path d="M 1132.5 824  C 1135.02 824  1137 825.98  1137 828.5  C 1137 831.02  1135.02 833  1132.5 833  C 1129.98 833  1128 831.02  1128 828.5  C 1128 825.98  1129.98 824  1132.5 824  Z " fill-rule="nonzero" fill="#949494" stroke="none" />
      <path d="M 1132.5 824.5  C 1134.74 824.5  1136.5 826.26  1136.5 828.5  C 1136.5 830.74  1134.74 832.5  1132.5 832.5  C 1130.26 832.5  1128.5 830.74  1128.5 828.5  C 1128.5 826.26  1130.26 824.5  1132.5 824.5  Z " stroke-width="1" stroke="#ffffff" fill="none" />
    </g>
  </defs>
  <g transform="matrix(1 0 0 1 -1124 -820 )">
    <use xlink:href="#widget2123" filter="url(#filter2122)" />
    <use xlink:href="#widget2123" />
  </g>
</svg>