<?xml version="1.0" encoding="utf-8"?>
<svg version="1.1" xmlns:xlink="http://www.w3.org/1999/xlink" width="12px" height="12px" viewBox="280 315  12 12" xmlns="http://www.w3.org/2000/svg">
  <path d="M 286 315  C 289.36 315  292 317.64  292 321  C 292 324.36  289.36 327  286 327  C 282.64 327  280 324.36  280 321  C 280 317.64  282.64 315  286 315  Z " fill-rule="nonzero" fill="#ffffff" stroke="none" />
  <path d="M 286 315.5  C 289.08 315.5  291.5 317.92  291.5 321  C 291.5 324.08  289.08 326.5  286 326.5  C 282.92 326.5  280.5 324.08  280.5 321  C 280.5 317.92  282.92 315.5  286 315.5  Z " stroke-width="1" stroke="#797979" fill="none" />
  <path d="M 286 324  C 284.32 324  283 322.68  283 321  C 283 319.32  284.32 318  286 318  C 287.68 318  289 319.32  289 321  C 289 322.68  287.68 324  286 324  " fill-rule="nonzero" fill="#797979" stroke="none" />
</svg>