<?xml version="1.0" encoding="utf-8"?>
<svg version="1.1" xmlns:xlink="http://www.w3.org/1999/xlink" width="19px" height="19px" xmlns="http://www.w3.org/2000/svg">
  <defs>
    <filter x="1064px" y="499px" width="19px" height="19px" filterUnits="userSpaceOnUse" id="filter2114">
      <feOffset dx="1" dy="1" in="SourceAlpha" result="shadowOffsetInner" />
      <feGaussianBlur stdDeviation="2.5" in="shadowOffsetInner" result="shadowGaussian" />
      <feComposite in2="shadowGaussian" operator="atop" in="SourceAlpha" result="shadowComposite" />
      <feColorMatrix type="matrix" values="0 0 0 0 0  0 0 0 0 0  0 0 0 0 0  0 0 0 0.698039215686274 0  " in="shadowComposite" />
    </filter>
    <g id="widget2115">
      <path d="M 1072.5 503  C 1075.02 503  1077 504.98  1077 507.5  C 1077 510.02  1075.02 512  1072.5 512  C 1069.98 512  1068 510.02  1068 507.5  C 1068 504.98  1069.98 503  1072.5 503  Z " fill-rule="nonzero" fill="#1890ff" stroke="none" />
      <path d="M 1072.5 503.5  C 1074.74 503.5  1076.5 505.26  1076.5 507.5  C 1076.5 509.74  1074.74 511.5  1072.5 511.5  C 1070.26 511.5  1068.5 509.74  1068.5 507.5  C 1068.5 505.26  1070.26 503.5  1072.5 503.5  Z " stroke-width="1" stroke="#ffffff" fill="none" />
    </g>
  </defs>
  <g transform="matrix(1 0 0 1 -1064 -499 )">
    <use xlink:href="#widget2115" filter="url(#filter2114)" />
    <use xlink:href="#widget2115" />
  </g>
</svg>