<?xml version="1.0" encoding="utf-8"?>
<svg version="1.1" xmlns:xlink="http://www.w3.org/1999/xlink" width="24px" height="19px" xmlns="http://www.w3.org/2000/svg">
  <g transform="matrix(1 0 0 1 -229 -228 )">
    <path d="M 18.9230769230769 9.97712053571429  C 18.9230769230769 10.0690104166667  18.8798076923077 10.1502976190476  18.7932692307692 10.2209821428571  L 11.4086538461538 15.6495535714286  C 11.3125 15.7131696428571  11.2019230769231 15.7449776785714  11.0769230769231 15.7449776785714  C 10.9519230769231 15.7449776785714  10.8413461538462 15.7131696428571  10.7451923076923 15.6495535714286  L 6.59134615384615 12.5959821428571  C 6.50480769230769 12.5252976190476  6.46153846153846 12.4440104166667  6.46153846153846 12.3521205357143  C 6.46153846153846 12.2602306547619  6.50480769230769 12.1824776785714  6.59134615384615 12.1188616071429  L 7.25480769230769 11.6311383928571  C 7.34134615384615 11.5675223214286  7.44711538461539 11.5357142857143  7.57211538461539 11.5357142857143  C 7.69711538461539 11.5357142857143  7.80769230769231 11.5675223214286  7.90384615384615 11.6311383928571  L 11.0769230769231 13.9637276785714  L 17.4807692307692 9.25613839285714  C 17.5769230769231 9.19252232142857  17.6875 9.16071428571428  17.8125 9.16071428571428  C 17.9375 9.16071428571428  18.0432692307692 9.19252232142857  18.1298076923077 9.25613839285714  L 18.7932692307692 9.74386160714286  C 18.8798076923077 9.80747767857143  18.9230769230769 9.8852306547619  18.9230769230769 9.97712053571429  Z M 2 7  L 2 17.6428571428571  L 22 17.6428571428571  L 22 7  L 2 7  Z M 7.25480769230769 4.99386160714286  C 7.34134615384615 4.93024553571428  7.38461538461539 4.84895833333333  7.38461538461539 4.75  L 7.38461538461539 1.69642857142857  C 7.38461538461539 1.59747023809524  7.34134615384615 1.51618303571428  7.25480769230769 1.45256696428572  C 7.16826923076923 1.38895089285714  7.05769230769231 1.35714285714286  6.92307692307692 1.35714285714286  L 6 1.35714285714286  C 5.86538461538462 1.35714285714286  5.75480769230769 1.38895089285714  5.66826923076923 1.45256696428572  C 5.58173076923077 1.51618303571428  5.53846153846154 1.59747023809524  5.53846153846154 1.69642857142857  L 5.53846153846154 4.75  C 5.53846153846154 4.84895833333333  5.58173076923077 4.93024553571428  5.66826923076923 4.99386160714286  C 5.75480769230769 5.05747767857143  5.86538461538462 5.08928571428572  6 5.08928571428572  L 6.92307692307692 5.08928571428572  C 7.05769230769231 5.08928571428572  7.16826923076923 5.05747767857143  7.25480769230769 4.99386160714286  Z M 18.3317307692308 4.99386160714286  C 18.4182692307692 4.93024553571428  18.4615384615385 4.84895833333333  18.4615384615385 4.75  L 18.4615384615385 1.69642857142857  C 18.4615384615385 1.59747023809524  18.4182692307692 1.51618303571428  18.3317307692308 1.45256696428572  C 18.2451923076923 1.38895089285714  18.1346153846154 1.35714285714286  18 1.35714285714286  L 17.0769230769231 1.35714285714286  C 16.9423076923077 1.35714285714286  16.8317307692308 1.38895089285714  16.7451923076923 1.45256696428572  C 16.6586538461538 1.51618303571428  16.6153846153846 1.59747023809524  16.6153846153846 1.69642857142857  L 16.6153846153846 4.75  C 16.6153846153846 4.84895833333333  16.6586538461538 4.93024553571428  16.7451923076923 4.99386160714286  C 16.8317307692308 5.05747767857143  16.9423076923077 5.08928571428572  17.0769230769231 5.08928571428572  L 18 5.08928571428572  C 18.1346153846154 5.08928571428572  18.2451923076923 5.05747767857143  18.3317307692308 4.99386160714286  Z M 23.4519230769231 3.1171875  C 23.8173076923077 3.38578869047619  24 3.70386904761905  24 4.07142857142857  L 24 17.6428571428571  C 24 18.0104166666667  23.8173076923077 18.3284970238095  23.4519230769231 18.5970982142857  C 23.0865384615385 18.8656994047619  22.6538461538462 19  22.1538461538462 19  L 1.84615384615385 19  C 1.34615384615385 19  0.913461538461539 18.8656994047619  0.548076923076923 18.5970982142857  C 0.182692307692308 18.3284970238095  0 18.0104166666667  0 17.6428571428571  L 0 4.07142857142857  C 0 3.70386904761905  0.182692307692308 3.38578869047619  0.548076923076923 3.1171875  C 0.913461538461539 2.84858630952381  1.34615384615385 2.71428571428572  1.84615384615385 2.71428571428572  L 3.69230769230769 2.71428571428572  L 3.69230769230769 1.69642857142857  C 3.69230769230769 1.22991071428572  3.91826923076923 0.830543154761904  4.37019230769231 0.498325892857143  C 4.82211538461539 0.166108630952381  5.36538461538462 0  6 0  L 6.92307692307692 0  C 7.55769230769231 0  8.10096153846154 0.166108630952381  8.55288461538462 0.498325892857143  C 9.00480769230769 0.830543154761904  9.23076923076923 1.22991071428572  9.23076923076923 1.69642857142857  L 9.23076923076923 2.71428571428572  L 14.7692307692308 2.71428571428572  L 14.7692307692308 1.69642857142857  C 14.7692307692308 1.22991071428572  14.9951923076923 0.830543154761904  15.4471153846154 0.498325892857143  C 15.8990384615385 0.166108630952381  16.4423076923077 0  17.0769230769231 0  L 18 0  C 18.6346153846154 0  19.1778846153846 0.166108630952381  19.6298076923077 0.498325892857143  C 20.0817307692308 0.830543154761904  20.3076923076923 1.22991071428572  20.3076923076923 1.69642857142857  L 20.3076923076923 2.71428571428572  L 22.1538461538462 2.71428571428572  C 22.6538461538462 2.71428571428572  23.0865384615385 2.84858630952381  23.4519230769231 3.1171875  Z " fill-rule="nonzero" fill="#000000" stroke="none" transform="matrix(1 0 0 1 229 228 )" />
  </g>
</svg>