<?xml version="1.0" encoding="utf-8"?>
<svg version="1.1" xmlns:xlink="http://www.w3.org/1999/xlink" width="6px" height="5px" xmlns="http://www.w3.org/2000/svg">
  <g transform="matrix(1 0 0 1 -1115 -175 )">
    <path d="M 5.93987975951904 0.515463917525773  C 5.97995991983968 0.572737686139747  6 0.638602520045818  6 0.713058419243987  C 6 0.787514318442153  5.97995991983968 0.853379152348224  5.93987975951904 0.910652920962199  L 3.13827655310621 4.91408934707904  C 3.09819639278557 4.97136311569301  3.05210420841683 5  3 5  C 2.94789579158317 5  2.90180360721443 4.97136311569301  2.86172344689379 4.91408934707904  L 0.0601202404809619 0.910652920962199  C 0.0200400801603207 0.853379152348224  0 0.787514318442153  0 0.713058419243987  C 0 0.638602520045818  0.0200400801603207 0.572737686139747  0.0601202404809619 0.515463917525773  L 0.360721442885772 0.0859106529209624  C 0.400801603206413 0.0286368843069867  0.44689378757515 0  0.498997995991984 0  C 0.551102204408818 0  0.597194388777555 0.0286368843069867  0.637274549098196 0.0859106529209624  L 3 3.46219931271478  L 5.3627254509018 0.0859106529209624  C 5.40280561122245 0.0286368843069867  5.44889779559118 0  5.50100200400802 0  C 5.55310621242485 0  5.59919839679359 0.0286368843069867  5.63927855711423 0.0859106529209624  L 5.93987975951904 0.515463917525773  Z " fill-rule="nonzero" fill="#434343" stroke="none" transform="matrix(1 0 0 1 1115 175 )" />
  </g>
</svg>