<?xml version="1.0" encoding="utf-8"?>
<svg version="1.1" xmlns:xlink="http://www.w3.org/1999/xlink" width="12px" height="12px" viewBox="186 225.5  12 12" xmlns="http://www.w3.org/2000/svg">
  <path d="M 192 225.5  C 195.36 225.5  198 228.14  198 231.5  C 198 234.86  195.36 237.5  192 237.5  C 188.64 237.5  186 234.86  186 231.5  C 186 228.14  188.64 225.5  192 225.5  Z " fill-rule="nonzero" fill="#ffffff" stroke="none" />
  <path d="M 192 226  C 195.08 226  197.5 228.42  197.5 231.5  C 197.5 234.58  195.08 237  192 237  C 188.92 237  186.5 234.58  186.5 231.5  C 186.5 228.42  188.92 226  192 226  Z " stroke-width="1" stroke="#797979" fill="none" />
  <path d="M 192 234.5  C 190.32 234.5  189 233.18  189 231.5  C 189 229.82  190.32 228.5  192 228.5  C 193.68 228.5  195 229.82  195 231.5  C 195 233.18  193.68 234.5  192 234.5  " fill-rule="nonzero" fill="#797979" stroke="none" />
</svg>