<?xml version="1.0" encoding="utf-8"?>
<svg version="1.1" xmlns:xlink="http://www.w3.org/1999/xlink" width="16px" height="13px" xmlns="http://www.w3.org/2000/svg">
  <g transform="matrix(1 0 0 1 -233 -44 )">
    <path d="M 9.14285714285714 10.6363636363636  L 9.14285714285714 11.8181818181818  L 14.8571428571429 11.8181818181818  L 14.8571428571429 10.6363636363636  L 9.14285714285714 10.6363636363636  Z M 5.71428571428571 5.90909090909091  L 5.71428571428571 7.09090909090909  L 14.8571428571429 7.09090909090909  L 14.8571428571429 5.90909090909091  L 5.71428571428571 5.90909090909091  Z M 11.4285714285714 1.18181818181818  L 11.4285714285714 2.36363636363636  L 14.8571428571429 2.36363636363636  L 14.8571428571429 1.18181818181818  L 11.4285714285714 1.18181818181818  Z M 15.8303571428571 9.62997159090909  C 15.9434523809524 9.74692234848485  16 9.88541666666667  16 10.0454545454545  L 16 12.4090909090909  C 16 12.5691287878788  15.9434523809524 12.7076231060606  15.8303571428571 12.8245738636364  C 15.7172619047619 12.9415246212121  15.5833333333333 13  15.4285714285714 13  L 0.571428571428571 13  C 0.416666666666667 13  0.282738095238095 12.9415246212121  0.169642857142857 12.8245738636364  C 0.056547619047619 12.7076231060606  0 12.5691287878788  0 12.4090909090909  L 0 10.0454545454545  C 0 9.88541666666667  0.056547619047619 9.74692234848485  0.169642857142857 9.62997159090909  C 0.282738095238095 9.51302083333333  0.416666666666667 9.45454545454546  0.571428571428571 9.45454545454546  L 15.4285714285714 9.45454545454546  C 15.5833333333333 9.45454545454546  15.7172619047619 9.51302083333333  15.8303571428571 9.62997159090909  Z M 15.8303571428571 4.90269886363636  C 15.9434523809524 5.01964962121212  16 5.15814393939394  16 5.31818181818182  L 16 7.68181818181818  C 16 7.84185606060606  15.9434523809524 7.98035037878788  15.8303571428571 8.09730113636363  C 15.7172619047619 8.21425189393939  15.5833333333333 8.27272727272727  15.4285714285714 8.27272727272727  L 0.571428571428571 8.27272727272727  C 0.416666666666667 8.27272727272727  0.282738095238095 8.21425189393939  0.169642857142857 8.09730113636363  C 0.056547619047619 7.98035037878788  0 7.84185606060606  0 7.68181818181818  L 0 5.31818181818182  C 0 5.15814393939394  0.056547619047619 5.01964962121212  0.169642857142857 4.90269886363636  C 0.282738095238095 4.7857481060606  0.416666666666667 4.72727272727273  0.571428571428571 4.72727272727273  L 15.4285714285714 4.72727272727273  C 15.5833333333333 4.72727272727273  15.7172619047619 4.7857481060606  15.8303571428571 4.90269886363636  Z M 15.8303571428571 0.175426136363637  C 15.9434523809524 0.292376893939392  16 0.430871212121211  16 0.59090909090909  L 16 2.95454545454546  C 16 3.11458333333333  15.9434523809524 3.25307765151515  15.8303571428571 3.37002840909091  C 15.7172619047619 3.48697916666666  15.5833333333333 3.54545454545455  15.4285714285714 3.54545454545455  L 0.571428571428571 3.54545454545455  C 0.416666666666667 3.54545454545455  0.282738095238095 3.48697916666666  0.169642857142857 3.37002840909091  C 0.056547619047619 3.25307765151515  0 3.11458333333333  0 2.95454545454546  L 0 0.59090909090909  C 0 0.430871212121211  0.056547619047619 0.292376893939392  0.169642857142857 0.175426136363637  C 0.282738095238095 0.0584753787878776  0.416666666666667 0  0.571428571428571 0  L 15.4285714285714 0  C 15.5833333333333 0  15.7172619047619 0.0584753787878776  15.8303571428571 0.175426136363637  Z " fill-rule="nonzero" fill="#009999" stroke="none" transform="matrix(1 0 0 1 233 44 )" />
  </g>
</svg>