<?xml version="1.0" encoding="utf-8"?>
<svg version="1.1" xmlns:xlink="http://www.w3.org/1999/xlink" width="159px" height="36px" xmlns="http://www.w3.org/2000/svg">
  <defs>
    <mask fill="white" id="clip2130">
      <path d="M 0 30.2222222222222  L 0 1.77777777777778  C 0 0.782222222222222  0.614414414414414 0  1.3963963963964 0  L 153.603603603604 0  C 154.385585585586 0  155 0.782222222222222  155 1.77777777777778  L 155 30.2222222222222  C 155 31.2177777777778  154.385585585586 32  153.603603603604 32  L 1.3963963963964 32  C 0.614414414414414 32  0 31.2177777777778  0 30.2222222222222  Z " fill-rule="evenodd" />
    </mask>
    <filter x="217px" y="33px" width="159px" height="36px" filterUnits="userSpaceOnUse" id="filter2131">
      <feOffset dx="0" dy="1" in="SourceAlpha" result="shadowOffsetInner" />
      <feGaussianBlur stdDeviation="1" in="shadowOffsetInner" result="shadowGaussian" />
      <feComposite in2="shadowGaussian" operator="atop" in="SourceAlpha" result="shadowComposite" />
      <feColorMatrix type="matrix" values="0 0 0 0 0.4  0 0 0 0 0.4  0 0 0 0 0.4  0 0 0 0.349019607843137 0  " in="shadowComposite" />
    </filter>
    <g id="widget2132">
      <path d="M 0 30.2222222222222  L 0 1.77777777777778  C 0 0.782222222222222  0.614414414414414 0  1.3963963963964 0  L 153.603603603604 0  C 154.385585585586 0  155 0.782222222222222  155 1.77777777777778  L 155 30.2222222222222  C 155 31.2177777777778  154.385585585586 32  153.603603603604 32  L 1.3963963963964 32  C 0.614414414414414 32  0 31.2177777777778  0 30.2222222222222  Z " fill-rule="nonzero" fill="#ffffff" stroke="none" transform="matrix(1 0 0 1 219 34 )" />
      <path d="M 0 30.2222222222222  L 0 1.77777777777778  C 0 0.782222222222222  0.614414414414414 0  1.3963963963964 0  L 153.603603603604 0  C 154.385585585586 0  155 0.782222222222222  155 1.77777777777778  L 155 30.2222222222222  C 155 31.2177777777778  154.385585585586 32  153.603603603604 32  L 1.3963963963964 32  C 0.614414414414414 32  0 31.2177777777778  0 30.2222222222222  Z " stroke-width="2" stroke="#009999" fill="none" transform="matrix(1 0 0 1 219 34 )" mask="url(#clip2130)" />
    </g>
  </defs>
  <g transform="matrix(1 0 0 1 -217 -33 )">
    <use xlink:href="#widget2132" filter="url(#filter2131)" />
    <use xlink:href="#widget2132" />
  </g>
</svg>