<?xml version="1.0" encoding="utf-8"?>
<svg version="1.1" xmlns:xlink="http://www.w3.org/1999/xlink" width="322px" height="216px" xmlns="http://www.w3.org/2000/svg">
  <defs>
    <filter x="1254px" y="77px" width="322px" height="216px" filterUnits="userSpaceOnUse" id="filter2135">
      <feOffset dx="-5" dy="5" in="SourceAlpha" result="shadowOffsetInner" />
      <feGaussianBlur stdDeviation="2.5" in="shadowOffsetInner" result="shadowGaussian" />
      <feComposite in2="shadowGaussian" operator="atop" in="SourceAlpha" result="shadowComposite" />
      <feColorMatrix type="matrix" values="0 0 0 0 0  0 0 0 0 0  0 0 0 0 0  0 0 0 0.349019607843137 0  " in="shadowComposite" />
    </filter>
    <g id="widget2136">
      <path d="M 1264 197.928725832396  C 1264 197.928725832396  1264 82  1264 82  C 1264 79.238576250846  1266.23857625085 77  1269 77  C 1269 77  1571 77  1571 77  C 1573.76142374915 77  1576 79.238576250846  1576 82  C 1576 82  1576 197.928725832396  1576 197.928725832396  C 1576 200.690149581549  1573.76142374915 202.928725832396  1571 202.928725832396  C 1571 202.928725832396  1441.84 202.928725832396  1441.84 202.928725832396  C 1441.84 202.928725832396  1330 283  1330 283  C 1330 283  1398.16 202.928725832396  1398.16 202.928725832396  C 1398.16 202.928725832396  1269 202.928725832396  1269 202.928725832396  C 1266.23857625085 202.928725832396  1264 200.690149581549  1264 197.928725832396  Z " fill-rule="nonzero" fill="#ffffff" stroke="none" />
    </g>
  </defs>
  <g transform="matrix(1 0 0 1 -1254 -77 )">
    <use xlink:href="#widget2136" filter="url(#filter2135)" />
    <use xlink:href="#widget2136" />
  </g>
</svg>