<?xml version="1.0" encoding="utf-8"?>
<svg version="1.1" xmlns:xlink="http://www.w3.org/1999/xlink" width="19px" height="18px" xmlns="http://www.w3.org/2000/svg">
  <defs>
    <filter x="806px" y="731px" width="19px" height="18px" filterUnits="userSpaceOnUse" id="filter2133">
      <feOffset dx="1" dy="1" in="SourceAlpha" result="shadowOffsetInner" />
      <feGaussianBlur stdDeviation="2.5" in="shadowOffsetInner" result="shadowGaussian" />
      <feComposite in2="shadowGaussian" operator="atop" in="SourceAlpha" result="shadowComposite" />
      <feColorMatrix type="matrix" values="0 0 0 0 0  0 0 0 0 0  0 0 0 0 0  0 0 0 0.698039215686274 0  " in="shadowComposite" />
    </filter>
    <g id="widget2134">
      <path d="M 814.5 735  C 817.02 735  819 736.76  819 739  C 819 741.24  817.02 743  814.5 743  C 811.98 743  810 741.24  810 739  C 810 736.76  811.98 735  814.5 735  Z " fill-rule="nonzero" fill="#339933" stroke="none" />
      <path d="M 814.5 735.5  C 816.74 735.5  818.5 737.04  818.5 739  C 818.5 740.96  816.74 742.5  814.5 742.5  C 812.26 742.5  810.5 740.96  810.5 739  C 810.5 737.04  812.26 735.5  814.5 735.5  Z " stroke-width="1" stroke="#ffffff" fill="none" />
    </g>
  </defs>
  <g transform="matrix(1 0 0 1 -806 -731 )">
    <use xlink:href="#widget2134" filter="url(#filter2133)" />
    <use xlink:href="#widget2134" />
  </g>
</svg>