<?xml version="1.0" encoding="utf-8"?>
<svg version="1.1" xmlns:xlink="http://www.w3.org/1999/xlink" width="21px" height="19px" xmlns="http://www.w3.org/2000/svg">
  <g transform="matrix(1 0 0 1 -518 -122 )">
    <path d="M 16.5576923076923 9.97712053571429  C 16.5576923076923 10.0690104166667  16.5198317307692 10.1502976190476  16.4441105769231 10.2209821428571  L 9.98257211538462 15.6495535714286  C 9.8984375 15.7131696428571  9.80168269230769 15.7449776785714  9.69230769230769 15.7449776785714  C 9.58293269230769 15.7449776785714  9.48617788461539 15.7131696428571  9.40204326923077 15.6495535714286  L 5.76742788461538 12.5959821428571  C 5.69170673076923 12.5252976190476  5.65384615384615 12.4440104166667  5.65384615384615 12.3521205357143  C 5.65384615384615 12.2602306547619  5.69170673076923 12.1824776785714  5.76742788461538 12.1188616071429  L 6.34795673076923 11.6311383928571  C 6.42367788461538 11.5675223214286  6.51622596153846 11.5357142857143  6.62560096153846 11.5357142857143  C 6.73497596153846 11.5357142857143  6.83173076923077 11.5675223214286  6.91586538461538 11.6311383928571  L 9.69230769230769 13.9637276785714  L 15.2956730769231 9.25613839285714  C 15.3798076923077 9.19252232142857  15.4765625 9.16071428571428  15.5859375 9.16071428571428  C 15.6953125 9.16071428571428  15.7878605769231 9.19252232142857  15.8635817307692 9.25613839285714  L 16.4441105769231 9.74386160714286  C 16.5198317307692 9.80747767857143  16.5576923076923 9.8852306547619  16.5576923076923 9.97712053571429  Z M 2 7  L 2 17.6428571428571  L 19 17.6428571428571  L 19 7  L 2 7  Z M 6.34795673076923 4.99386160714286  C 6.42367788461538 4.93024553571428  6.46153846153846 4.84895833333333  6.46153846153846 4.75  L 6.46153846153846 1.69642857142857  C 6.46153846153846 1.59747023809524  6.42367788461538 1.51618303571428  6.34795673076923 1.45256696428572  C 6.27223557692308 1.38895089285714  6.17548076923077 1.35714285714286  6.05769230769231 1.35714285714286  L 5.25 1.35714285714286  C 5.13221153846154 1.35714285714286  5.03545673076923 1.38895089285714  4.95973557692308 1.45256696428572  C 4.88401442307692 1.51618303571428  4.84615384615385 1.59747023809524  4.84615384615385 1.69642857142857  L 4.84615384615385 4.75  C 4.84615384615385 4.84895833333333  4.88401442307692 4.93024553571428  4.95973557692308 4.99386160714286  C 5.03545673076923 5.05747767857143  5.13221153846154 5.08928571428572  5.25 5.08928571428572  L 6.05769230769231 5.08928571428572  C 6.17548076923077 5.08928571428572  6.27223557692308 5.05747767857143  6.34795673076923 4.99386160714286  Z M 16.0402644230769 4.99386160714286  C 16.1159855769231 4.93024553571428  16.1538461538462 4.84895833333333  16.1538461538462 4.75  L 16.1538461538462 1.69642857142857  C 16.1538461538462 1.59747023809524  16.1159855769231 1.51618303571428  16.0402644230769 1.45256696428572  C 15.9645432692308 1.38895089285714  15.8677884615385 1.35714285714286  15.75 1.35714285714286  L 14.9423076923077 1.35714285714286  C 14.8245192307692 1.35714285714286  14.7277644230769 1.38895089285714  14.6520432692308 1.45256696428572  C 14.5763221153846 1.51618303571428  14.5384615384615 1.59747023809524  14.5384615384615 1.69642857142857  L 14.5384615384615 4.75  C 14.5384615384615 4.84895833333333  14.5763221153846 4.93024553571428  14.6520432692308 4.99386160714286  C 14.7277644230769 5.05747767857143  14.8245192307692 5.08928571428572  14.9423076923077 5.08928571428572  L 15.75 5.08928571428572  C 15.8677884615385 5.08928571428572  15.9645432692308 5.05747767857143  16.0402644230769 4.99386160714286  Z M 20.5204326923077 3.1171875  C 20.8401442307692 3.38578869047619  21 3.70386904761905  21 4.07142857142857  L 21 17.6428571428571  C 21 18.0104166666667  20.8401442307692 18.3284970238095  20.5204326923077 18.5970982142857  C 20.2007211538462 18.8656994047619  19.8221153846154 19  19.3846153846154 19  L 1.61538461538462 19  C 1.17788461538462 19  0.799278846153846 18.8656994047619  0.479567307692308 18.5970982142857  C 0.159855769230769 18.3284970238095  0 18.0104166666667  0 17.6428571428571  L 0 4.07142857142857  C 0 3.70386904761905  0.159855769230769 3.38578869047619  0.479567307692308 3.1171875  C 0.799278846153846 2.84858630952381  1.17788461538462 2.71428571428572  1.61538461538462 2.71428571428572  L 3.23076923076923 2.71428571428572  L 3.23076923076923 1.69642857142857  C 3.23076923076923 1.22991071428572  3.42848557692308 0.830543154761904  3.82391826923077 0.498325892857143  C 4.21935096153846 0.166108630952381  4.69471153846154 0  5.25 0  L 6.05769230769231 0  C 6.61298076923077 0  7.08834134615385 0.166108630952381  7.48377403846154 0.498325892857143  C 7.87920673076923 0.830543154761904  8.07692307692308 1.22991071428572  8.07692307692308 1.69642857142857  L 8.07692307692308 2.71428571428572  L 12.9230769230769 2.71428571428572  L 12.9230769230769 1.69642857142857  C 12.9230769230769 1.22991071428572  13.1207932692308 0.830543154761904  13.5162259615385 0.498325892857143  C 13.9116586538462 0.166108630952381  14.3870192307692 0  14.9423076923077 0  L 15.75 0  C 16.3052884615385 0  16.7806490384615 0.166108630952381  17.1760817307692 0.498325892857143  C 17.5715144230769 0.830543154761904  17.7692307692308 1.22991071428572  17.7692307692308 1.69642857142857  L 17.7692307692308 2.71428571428572  L 19.3846153846154 2.71428571428572  C 19.8221153846154 2.71428571428572  20.2007211538462 2.84858630952381  20.5204326923077 3.1171875  Z " fill-rule="nonzero" fill="#000000" stroke="none" transform="matrix(1 0 0 1 518 122 )" />
  </g>
</svg>