<?xml version="1.0" encoding="utf-8"?>
<svg version="1.1" xmlns:xlink="http://www.w3.org/1999/xlink" width="19px" height="19px" xmlns="http://www.w3.org/2000/svg">
  <defs>
    <filter x="305px" y="344px" width="19px" height="19px" filterUnits="userSpaceOnUse" id="filter2002">
      <feOffset dx="1" dy="1" in="SourceAlpha" result="shadowOffsetInner" />
      <feGaussianBlur stdDeviation="2.5" in="shadowOffsetInner" result="shadowGaussian" />
      <feComposite in2="shadowGaussian" operator="atop" in="SourceAlpha" result="shadowComposite" />
      <feColorMatrix type="matrix" values="0 0 0 0 0  0 0 0 0 0  0 0 0 0 0  0 0 0 0.698039215686274 0  " in="shadowComposite" />
    </filter>
    <g id="widget2003">
      <path d="M 313.5 348  C 316.02 348  318 349.98  318 352.5  C 318 355.02  316.02 357  313.5 357  C 310.98 357  309 355.02  309 352.5  C 309 349.98  310.98 348  313.5 348  Z " fill-rule="nonzero" fill="#666666" stroke="none" />
      <path d="M 313.5 348.5  C 315.74 348.5  317.5 350.26  317.5 352.5  C 317.5 354.74  315.74 356.5  313.5 356.5  C 311.26 356.5  309.5 354.74  309.5 352.5  C 309.5 350.26  311.26 348.5  313.5 348.5  Z " stroke-width="1" stroke="#ffffff" fill="none" />
    </g>
  </defs>
  <g transform="matrix(1 0 0 1 -305 -344 )">
    <use xlink:href="#widget2003" filter="url(#filter2002)" />
    <use xlink:href="#widget2003" />
  </g>
</svg>