<?xml version="1.0" encoding="utf-8"?>
<svg version="1.1" xmlns:xlink="http://www.w3.org/1999/xlink" width="12px" height="12px" viewBox="174 1546  12 12" xmlns="http://www.w3.org/2000/svg">
  <path d="M 180 1546  C 183.36 1546  186 1548.64  186 1552  C 186 1555.36  183.36 1558  180 1558  C 176.64 1558  174 1555.36  174 1552  C 174 1548.64  176.64 1546  180 1546  Z " fill-rule="nonzero" fill="#ffffff" stroke="none" />
  <path d="M 180 1546.5  C 183.08 1546.5  185.5 1548.92  185.5 1552  C 185.5 1555.08  183.08 1557.5  180 1557.5  C 176.92 1557.5  174.5 1555.08  174.5 1552  C 174.5 1548.92  176.92 1546.5  180 1546.5  Z " stroke-width="1" stroke="#797979" fill="none" />
  <path d="M 180 1555  C 178.32 1555  177 1553.68  177 1552  C 177 1550.32  178.32 1549  180 1549  C 181.68 1549  183 1550.32  183 1552  C 183 1553.68  181.68 1555  180 1555  " fill-rule="nonzero" fill="#797979" stroke="none" />
</svg>