<?xml version="1.0" encoding="utf-8"?>
<svg version="1.1" xmlns:xlink="http://www.w3.org/1999/xlink" width="12px" height="12px" viewBox="645 1546  12 12" xmlns="http://www.w3.org/2000/svg">
  <path d="M 651 1546  C 654.36 1546  657 1548.64  657 1552  C 657 1555.36  654.36 1558  651 1558  C 647.64 1558  645 1555.36  645 1552  C 645 1548.64  647.64 1546  651 1546  Z " fill-rule="nonzero" fill="#ffffff" stroke="none" />
  <path d="M 651 1546.5  C 654.08 1546.5  656.5 1548.92  656.5 1552  C 656.5 1555.08  654.08 1557.5  651 1557.5  C 647.92 1557.5  645.5 1555.08  645.5 1552  C 645.5 1548.92  647.92 1546.5  651 1546.5  Z " stroke-width="1" stroke="#797979" fill="none" />
  <path d="M 651 1555  C 649.32 1555  648 1553.68  648 1552  C 648 1550.32  649.32 1549  651 1549  C 652.68 1549  654 1550.32  654 1552  C 654 1553.68  652.68 1555  651 1555  " fill-rule="nonzero" fill="#797979" stroke="none" />
</svg>