<?xml version="1.0" encoding="utf-8"?>
<svg version="1.1" xmlns:xlink="http://www.w3.org/1999/xlink" width="25px" height="22px" xmlns="http://www.w3.org/2000/svg">
  <g transform="matrix(1 0 0 1 -46 -15 )">
    <path d="M 5.5 8.97270000000002  L 5.5 19.8  L 18.7 19.8  L 18.7 8.97270000000002  L 12.1 2.97330000000001  L 5.5 8.97270000000002  Z M 20.9 20.9  C 20.9 21.5075132248139  20.4075132248139 22  19.8 22  L 4.40000000000001 22  C 3.79248677518611 22  3.30000000000002 21.5075132248139  3.30000000000002 20.9  L 3.30000000000002 11  L 0 11  L 11.3597 0.673199999999994  C 11.779370389942 0.291342305764289  12.420629610058 0.291342305764289  12.8403 0.673199999999994  L 24.2 11  L 20.9 11  L 20.9 20.9  Z M 12.1 18.15  C 9.36619048833757 18.15  7.15000000000001 15.9338095116625  7.15000000000001 13.2  L 9.34999999999999 13.2  C 9.34999999999999 14.7187830620347  10.5812169379653 15.95  12.1 15.95  C 13.6187830620347 15.95  14.85 14.7187830620347  14.85 13.2  L 17.05 13.2  C 17.05 15.9338095116625  14.8338095116624 18.15  12.1 18.15  Z " fill-rule="nonzero" fill="#999999" stroke="none" transform="matrix(1 0 0 1 46 15 )" />
  </g>
</svg>