<?xml version="1.0" encoding="utf-8"?>
<svg version="1.1" xmlns:xlink="http://www.w3.org/1999/xlink" width="20px" height="20px" xmlns="http://www.w3.org/2000/svg">
  <g transform="matrix(1 0 0 1 -217 -14 )">
    <path d="M 20 20  L 11 20  L 11 8.88888888888888  L 20 8.88888888888888  L 20 20  Z M 9 11.1111111111111  L 0 11.1111111111111  L 0 0  L 9 0  L 9 11.1111111111111  Z M 2.22222222222223 8.88888888888888  L 6.66666666666666 8.88888888888888  L 6.66666666666666 2.22222222222224  L 2.22222222222223 2.22222222222224  L 2.22222222222223 8.88888888888888  Z M 8.88888888888889 20  L 0 20  L 0 13.3333333333333  L 8.88888888888889 13.3333333333333  L 8.88888888888889 20  Z M 2.22222222222223 15.5555555555555  L 2.22222222222223 17.7777777777778  L 6.66666666666666 17.7777777777778  L 6.66666666666666 15.5555555555555  L 2.22222222222223 15.5555555555555  Z M 13.3333333333333 11.1111111111111  L 13.3333333333333 17.7777777777778  L 17.7777777777778 17.7777777777778  L 17.7777777777778 11.1111111111111  L 13.3333333333333 11.1111111111111  Z M 11.1111111111111 6.66666666666665  L 11.1111111111111 0  L 20 0  L 20 6.66666666666665  L 11.1111111111111 6.66666666666665  Z M 17.7777777777778 2.22222222222224  L 13.3333333333333 2.22222222222224  L 13.3333333333333 4.44444444444447  L 17.7777777777778 4.44444444444447  L 17.7777777777778 2.22222222222224  Z " fill-rule="nonzero" fill="#999999" stroke="none" transform="matrix(1 0 0 1 217 14 )" />
  </g>
</svg>