<?xml version="1.0" encoding="utf-8"?>
<svg version="1.1" xmlns:xlink="http://www.w3.org/1999/xlink" width="23px" height="20px" xmlns="http://www.w3.org/2000/svg">
  <g transform="matrix(1 0 0 1 -130 -14 )">
    <path d="M 0 13.34000308931  L 0 6.66000618789719  C 0 2.98424605795245  2.97979352075447 0  6.65555510925373 0  L 15.5555560026025 0  C 19.2366668668692 0  22.2222222222223 2.99445233264756  22 6.66000618789719  L 22 20  L 6.66666770977622 20  C 2.98555684550945 20  0 17.0055569445596  0 13.34000308931  Z M 6.66666770977622 17.7777788085786  L 20 17.7777788085786  L 20 6.66000618789719  C 19.9938800183713 4.20902783529654  18.0065417533502 2.22467136507256  15.5555560026025 2.22223046862862  L 6.66666770977622 2.2222304686286  C 4.21820548304626 2.2222304686286  2.22222132158475 4.20708656100986  2.22222132158475 6.65554781618175  L 2.222223563363 13.34000308931  C 2.22834369400732 15.7909814419107  4.21568195902842 17.7753379121346  6.66666770977622 17.7777788085786  Z M 13.3333339293959 11.1111152343143  L 13.3333339293959 8.88889404289289  L 15.5555560026025 8.88889404289289  L 15.5555560026025 11.1111152343143  L 13.3333339293959 11.1111152343143  Z M 6.66666770977622 11.1111152343143  L 6.66666770977622 8.88889404289289  L 8.88888978298269 8.88889404289289  L 8.88888978298269 11.1111152343143  L 6.66666770977622 11.1111152343143  Z " fill-rule="nonzero" fill="#999999" stroke="none" transform="matrix(1 0 0 1 130 14 )" />
  </g>
</svg>