<?xml version="1.0" encoding="utf-8"?>
<svg version="1.1" xmlns:xlink="http://www.w3.org/1999/xlink" width="5px" height="5px" xmlns="http://www.w3.org/2000/svg">
  <g>
    <path d="M 3.84265734265734 2.5  L 4.77272727272727 3.00130208333332  C 4.87995337995338 3.05772569444443  4.94930069930071 3.14181857638889  4.98076923076923 3.25358072916668  C 5.01223776223776 3.36534288194443  4.997668997669 3.47113715277779  4.93706293706294 3.57096354166668  L 4.71328671328671 3.92903645833332  C 4.65268065268065 4.02886284722221  4.56235431235431 4.09342447916668  4.44230769230769 4.12272135416668  C 4.32226107226107 4.15201822916668  4.2086247086247 4.13845486111111  4.10139860139861 4.08203125  L 3.17132867132868 3.583984375  L 3.17132867132868 4.58333333333332  C 3.17132867132868 4.69618055555557  3.12703962703963 4.79383680555557  3.03846153846154 4.87630208333332  C 2.94988344988345 4.95876736111111  2.84498834498835 5  2.72377622377622 5  L 2.27622377622378 5  C 2.15501165501166 5  2.05011655011655 4.95876736111111  1.96153846153846 4.87630208333332  C 1.87296037296037 4.79383680555557  1.82867132867132 4.69618055555557  1.82867132867132 4.58333333333332  L 1.82867132867132 3.583984375  L 0.898601398601393 4.08203125  C 0.791375291375296 4.13845486111111  0.677738927738929 4.15201822916668  0.55769230769231 4.12272135416668  C 0.437645687645691 4.09342447916668  0.347319347319353 4.02886284722221  0.286713286713294 3.92903645833332  L 0.0629370629370563 3.57096354166668  C 0.00233100233099748 3.47113715277779  -0.0122377622377634 3.36534288194443  0.0192307692307736 3.25358072916668  C 0.0506993006993017 3.14181857638889  0.120046620046619 3.05772569444443  0.227272727272734 3.00130208333332  L 1.15734265734266 2.5  L 0.227272727272734 1.99869791666668  C 0.120046620046619 1.94227430555557  0.0506993006993017 1.85818142361111  0.0192307692307736 1.74641927083332  C -0.0122377622377634 1.63465711805557  0.00233100233099748 1.52886284722221  0.0629370629370563 1.42903645833332  L 0.286713286713294 1.07096354166668  C 0.347319347319353 0.971137152777786  0.437645687645691 0.906575520833321  0.55769230769231 0.877278645833321  C 0.677738927738929 0.847981770833321  0.791375291375296 0.861545138888893  0.898601398601393 0.91796875  L 1.82867132867132 1.416015625  L 1.82867132867132 0.416666666666679  C 1.82867132867132 0.303819444444429  1.87296037296037 0.206163194444429  1.96153846153846 0.123697916666679  C 2.05011655011655 0.0412326388888928  2.15501165501166 0  2.27622377622378 0  L 2.72377622377622 0  C 2.84498834498835 0  2.94988344988345 0.0412326388888928  3.03846153846154 0.123697916666679  C 3.12703962703963 0.206163194444429  3.17132867132868 0.303819444444429  3.17132867132868 0.416666666666679  L 3.17132867132868 1.416015625  L 4.10139860139861 0.91796875  C 4.2086247086247 0.861545138888893  4.32226107226107 0.847981770833321  4.44230769230769 0.877278645833321  C 4.56235431235431 0.906575520833321  4.65268065268065 0.971137152777786  4.71328671328671 1.07096354166668  L 4.93706293706294 1.42903645833332  C 4.997668997669 1.52886284722221  5.01223776223776 1.63465711805557  4.98076923076923 1.74641927083332  C 4.94930069930071 1.85818142361111  4.87995337995338 1.94227430555557  4.77272727272727 1.99869791666668  L 3.84265734265734 2.5  Z " fill-rule="nonzero" fill="#cc0000" stroke="none" />
  </g>
</svg>