<?xml version="1.0" encoding="utf-8"?>
<svg version="1.1" xmlns:xlink="http://www.w3.org/1999/xlink" width="12px" height="12px" viewBox="588 207  12 12" xmlns="http://www.w3.org/2000/svg">
  <path d="M 594 207  C 597.36 207  600 209.64  600 213  C 600 216.36  597.36 219  594 219  C 590.64 219  588 216.36  588 213  C 588 209.64  590.64 207  594 207  Z " fill-rule="nonzero" fill="#ffffff" stroke="none" />
  <path d="M 594 207.5  C 597.08 207.5  599.5 209.92  599.5 213  C 599.5 216.08  597.08 218.5  594 218.5  C 590.92 218.5  588.5 216.08  588.5 213  C 588.5 209.92  590.92 207.5  594 207.5  Z " stroke-width="1" stroke="#797979" fill="none" />
  <path d="M 594 216  C 592.32 216  591 214.68  591 213  C 591 211.32  592.32 210  594 210  C 595.68 210  597 211.32  597 213  C 597 214.68  595.68 216  594 216  " fill-rule="nonzero" fill="#797979" stroke="none" />
</svg>