<?xml version="1.0" encoding="utf-8"?>
<svg version="1.1" xmlns:xlink="http://www.w3.org/1999/xlink" width="1108px" height="1099px" xmlns="http://www.w3.org/2000/svg">
  <defs>
    <mask fill="white" id="clip2014">
      <path d="M 0 978.021276595745  L 0 90.9787234042553  C 0 40.0306382978725  11.2933333333333 0  25.6666666666667 0  L 709.041666666667 0  L 1052.33333333333 0  C 1066.70666666667 0  1078 40.0306382978725  1078 90.9787234042553  L 1078 250.191489361702  L 1078 978.021276595745  C 1078 1028.96936170213  1066.70666666667 1069  1052.33333333333 1069  L 25.6666666666667 1069  C 11.2933333333333 1069  0 1028.96936170213  0 978.021276595745  Z " fill-rule="evenodd" />
    </mask>
    <filter x="-3px" y="48px" width="1108px" height="1099px" filterUnits="userSpaceOnUse" id="filter2015">
      <feOffset dx="2" dy="2" in="SourceAlpha" result="shadowOffsetInner" />
      <feGaussianBlur stdDeviation="7.5" in="shadowOffsetInner" result="shadowGaussian" />
      <feComposite in2="shadowGaussian" operator="atop" in="SourceAlpha" result="shadowComposite" />
      <feColorMatrix type="matrix" values="0 0 0 0 0.6  0 0 0 0 0.6  0 0 0 0 0.6  0 0 0 0.149019607843137 0  " in="shadowComposite" />
    </filter>
    <g id="widget2016">
      <path d="M 0 978.021276595745  L 0 90.9787234042553  C 0 40.0306382978725  11.2933333333333 0  25.6666666666667 0  L 709.041666666667 0  L 1052.33333333333 0  C 1066.70666666667 0  1078 40.0306382978725  1078 90.9787234042553  L 1078 250.191489361702  L 1078 978.021276595745  C 1078 1028.96936170213  1066.70666666667 1069  1052.33333333333 1069  L 25.6666666666667 1069  C 11.2933333333333 1069  0 1028.96936170213  0 978.021276595745  Z " fill-rule="nonzero" fill="#ffffff" stroke="none" transform="matrix(1 0 0 1 10 61 )" />
      <path d="M 0 978.021276595745  L 0 90.9787234042553  C 0 40.0306382978725  11.2933333333333 0  25.6666666666667 0  L 709.041666666667 0  L 1052.33333333333 0  C 1066.70666666667 0  1078 40.0306382978725  1078 90.9787234042553  L 1078 250.191489361702  L 1078 978.021276595745  C 1078 1028.96936170213  1066.70666666667 1069  1052.33333333333 1069  L 25.6666666666667 1069  C 11.2933333333333 1069  0 1028.96936170213  0 978.021276595745  Z " stroke-width="4" stroke="#f2f2f2" fill="none" transform="matrix(1 0 0 1 10 61 )" mask="url(#clip2014)" />
    </g>
  </defs>
  <g transform="matrix(1 0 0 1 3 -48 )">
    <use xlink:href="#widget2016" filter="url(#filter2015)" />
    <use xlink:href="#widget2016" />
  </g>
</svg>