<?xml version="1.0" encoding="utf-8"?>
<svg version="1.1" xmlns:xlink="http://www.w3.org/1999/xlink" width="12px" height="12px" viewBox="621 49  12 12" xmlns="http://www.w3.org/2000/svg">
  <path d="M 627 49  C 630.36 49  633 51.64  633 55  C 633 58.36  630.36 61  627 61  C 623.64 61  621 58.36  621 55  C 621 51.64  623.64 49  627 49  Z " fill-rule="nonzero" fill="#ffffff" stroke="none" />
  <path d="M 627 49.5  C 630.08 49.5  632.5 51.92  632.5 55  C 632.5 58.08  630.08 60.5  627 60.5  C 623.92 60.5  621.5 58.08  621.5 55  C 621.5 51.92  623.92 49.5  627 49.5  Z " stroke-width="1" stroke="#797979" fill="none" />
  <path d="M 627 58  C 625.32 58  624 56.68  624 55  C 624 53.32  625.32 52  627 52  C 628.68 52  630 53.32  630 55  C 630 56.68  628.68 58  627 58  " fill-rule="nonzero" fill="#797979" stroke="none" />
</svg>