<?xml version="1.0" encoding="utf-8"?>
<svg version="1.1" xmlns:xlink="http://www.w3.org/1999/xlink" width="19px" height="19px" xmlns="http://www.w3.org/2000/svg">
  <defs>
    <filter x="691px" y="551px" width="19px" height="19px" filterUnits="userSpaceOnUse" id="filter2144">
      <feOffset dx="1" dy="1" in="SourceAlpha" result="shadowOffsetInner" />
      <feGaussianBlur stdDeviation="2.5" in="shadowOffsetInner" result="shadowGaussian" />
      <feComposite in2="shadowGaussian" operator="atop" in="SourceAlpha" result="shadowComposite" />
      <feColorMatrix type="matrix" values="0 0 0 0 0  0 0 0 0 0  0 0 0 0 0  0 0 0 0.698039215686274 0  " in="shadowComposite" />
    </filter>
    <g id="widget2145">
      <path d="M 699.5 555  C 702.02 555  704 556.98  704 559.5  C 704 562.02  702.02 564  699.5 564  C 696.98 564  695 562.02  695 559.5  C 695 556.98  696.98 555  699.5 555  Z " fill-rule="nonzero" fill="#ffcc33" stroke="none" />
      <path d="M 699.5 555.5  C 701.74 555.5  703.5 557.26  703.5 559.5  C 703.5 561.74  701.74 563.5  699.5 563.5  C 697.26 563.5  695.5 561.74  695.5 559.5  C 695.5 557.26  697.26 555.5  699.5 555.5  Z " stroke-width="1" stroke="#ffffff" fill="none" />
    </g>
  </defs>
  <g transform="matrix(1 0 0 1 -691 -551 )">
    <use xlink:href="#widget2145" filter="url(#filter2144)" />
    <use xlink:href="#widget2145" />
  </g>
</svg>