<?xml version="1.0" encoding="utf-8"?>
<svg version="1.1" xmlns:xlink="http://www.w3.org/1999/xlink" width="17px" height="5px" xmlns="http://www.w3.org/2000/svg">
  <g transform="matrix(1 0 0 1 -1108 -127 )">
    <path d="M 16.8296593186373 0.515463917525773  C 16.9432197728791 0.572737686139747  17 0.638602520045818  17 0.713058419243987  C 17 0.787514318442153  16.9432197728791 0.853379152348224  16.8296593186373 0.910652920962199  L 8.89178356713427 4.91408934707904  C 8.77822311289245 4.97136311569301  8.64762859051436 5  8.5 5  C 8.35237140948564 5  8.22177688710755 4.97136311569301  8.10821643286573 4.91408934707904  L 0.170340681362725 0.910652920962199  C 0.0567802271209086 0.853379152348224  0 0.787514318442153  0 0.713058419243987  C 0 0.638602520045818  0.0567802271209086 0.572737686139747  0.170340681362725 0.515463917525773  L 1.02204408817635 0.0859106529209624  C 1.13560454241817 0.0286368843069867  1.26619906479626 0  1.41382765531062 0  C 1.56145624582498 0  1.69205076820307 0.0286368843069867  1.80561122244489 0.0859106529209624  L 8.5 3.46219931271478  L 15.1943887775551 0.0859106529209624  C 15.3079492317969 0.0286368843069867  15.438543754175 0  15.5861723446894 0  C 15.7338009352037 0  15.8643954575818 0.0286368843069867  15.9779559118236 0.0859106529209624  L 16.8296593186373 0.515463917525773  Z " fill-rule="nonzero" fill="#434343" stroke="none" transform="matrix(1 0 0 1 1108 127 )" />
  </g>
</svg>