<?xml version="1.0" encoding="utf-8"?>
<svg version="1.1" xmlns:xlink="http://www.w3.org/1999/xlink" width="12px" height="12px" viewBox="221 528  12 12" xmlns="http://www.w3.org/2000/svg">
  <path d="M 227 528  C 230.36 528  233 530.64  233 534  C 233 537.36  230.36 540  227 540  C 223.64 540  221 537.36  221 534  C 221 530.64  223.64 528  227 528  Z " fill-rule="nonzero" fill="#ffffff" stroke="none" />
  <path d="M 227 528.5  C 230.08 528.5  232.5 530.92  232.5 534  C 232.5 537.08  230.08 539.5  227 539.5  C 223.92 539.5  221.5 537.08  221.5 534  C 221.5 530.92  223.92 528.5  227 528.5  Z " stroke-width="1" stroke="#797979" fill="none" />
  <path d="M 227 537  C 225.32 537  224 535.68  224 534  C 224 532.32  225.32 531  227 531  C 228.68 531  230 532.32  230 534  C 230 535.68  228.68 537  227 537  " fill-rule="nonzero" fill="#797979" stroke="none" />
</svg>