<?xml version="1.0" encoding="utf-8"?>
<svg version="1.1" xmlns:xlink="http://www.w3.org/1999/xlink" width="12px" height="12px" viewBox="163 226  12 12" xmlns="http://www.w3.org/2000/svg">
  <path d="M 169 226  C 172.36 226  175 228.64  175 232  C 175 235.36  172.36 238  169 238  C 165.64 238  163 235.36  163 232  C 163 228.64  165.64 226  169 226  Z " fill-rule="nonzero" fill="#ffffff" stroke="none" />
  <path d="M 169 226.5  C 172.08 226.5  174.5 228.92  174.5 232  C 174.5 235.08  172.08 237.5  169 237.5  C 165.92 237.5  163.5 235.08  163.5 232  C 163.5 228.92  165.92 226.5  169 226.5  Z " stroke-width="1" stroke="#797979" fill="none" />
  <path d="M 169 235  C 167.32 235  166 233.68  166 232  C 166 230.32  167.32 229  169 229  C 170.68 229  172 230.32  172 232  C 172 233.68  170.68 235  169 235  " fill-rule="nonzero" fill="#797979" stroke="none" />
</svg>