<?xml version="1.0" encoding="utf-8"?>
<svg version="1.1" xmlns:xlink="http://www.w3.org/1999/xlink" width="12px" height="12px" viewBox="202 301  12 12" xmlns="http://www.w3.org/2000/svg">
  <path d="M 208 301  C 211.36 301  214 303.64  214 307  C 214 310.36  211.36 313  208 313  C 204.64 313  202 310.36  202 307  C 202 303.64  204.64 301  208 301  Z " fill-rule="nonzero" fill="#ffffff" stroke="none" />
  <path d="M 208 301.5  C 211.08 301.5  213.5 303.92  213.5 307  C 213.5 310.08  211.08 312.5  208 312.5  C 204.92 312.5  202.5 310.08  202.5 307  C 202.5 303.92  204.92 301.5  208 301.5  Z " stroke-width="1" stroke="#797979" fill="none" />
  <path d="M 208 310  C 206.32 310  205 308.68  205 307  C 205 305.32  206.32 304  208 304  C 209.68 304  211 305.32  211 307  C 211 308.68  209.68 310  208 310  " fill-rule="nonzero" fill="#797979" stroke="none" />
</svg>