<?xml version="1.0" encoding="utf-8"?>
<svg version="1.1" xmlns:xlink="http://www.w3.org/1999/xlink" width="67px" height="50px" xmlns="http://www.w3.org/2000/svg">
  <g transform="matrix(1 0 0 1 -505 -166 )">
    <path d="M 18.1333705357143 27.5948660714286  L 8.07589285714286 32.6171875  L 31 43.8337053571429  L 31 33.8169642857143  L 18.1333705357143 27.5948660714286  Z M 5.7578125 21.4006696428571  L 5.7578125 28.5993303571429  L 12.9737723214286 25  L 5.7578125 21.4006696428571  Z M 36 33.8169642857143  L 36 43.8337053571429  L 58.9241071428571 32.6171875  L 48.8666294642857 27.5948660714286  L 36 33.8169642857143  Z M 23.3303571428571 25  L 33.5 30.078125  L 43.6696428571429 25  L 33.5 19.921875  L 23.3303571428571 25  Z M 8.07589285714286 17.3828125  L 18.1333705357143 22.4051339285714  L 31 16.1830357142857  L 31 6.16629464285715  L 8.07589285714286 17.3828125  Z M 61.2421875 21.4006696428571  L 54.0262276785714 25  L 61.2421875 28.5993303571429  L 61.2421875 21.4006696428571  Z M 36 16.1830357142857  L 48.8666294642857 22.4051339285714  L 58.9241071428571 17.3828125  L 36 6.16629464285715  L 36 16.1830357142857  Z M 65.7287946428571 15.5970982142857  C 66.5762648809524 16.0249255952381  67 16.6201636904762  67 17.3828125  L 67 32.6171875  C 67 33.3798363095238  66.5762648809524 33.9750744047619  65.7287946428571 34.4029017857143  L 35.1077008928571 49.6372767857143  C 34.5842633928571 49.8790922619048  34.0483630952381 50  33.5 50  C 32.9516369047619 50  32.4157366071429 49.8790922619048  31.8922991071429 49.6372767857143  L 1.27120535714286 34.4029017857143  C 0.423735119047619 33.9750744047619  0 33.3798363095238  0 32.6171875  L 0 17.3828125  C 0 16.6201636904762  0.423735119047619 16.0249255952381  1.27120535714286 15.5970982142857  L 31.8922991071429 0.362723214285715  C 32.4157366071429 0.120907738095244  32.9516369047619 0  33.5 0  C 34.0483630952381 0  34.5842633928571 0.120907738095244  35.1077008928571 0.362723214285715  L 65.7287946428571 15.5970982142857  Z " fill-rule="nonzero" fill="#d7d7d7" stroke="none" transform="matrix(1 0 0 1 505 166 )" />
  </g>
</svg>