<?xml version="1.0" encoding="utf-8"?>
<svg version="1.1" xmlns:xlink="http://www.w3.org/1999/xlink" width="12px" height="12px" viewBox="326 207  12 12" xmlns="http://www.w3.org/2000/svg">
  <path d="M 332 207  C 335.36 207  338 209.64  338 213  C 338 216.36  335.36 219  332 219  C 328.64 219  326 216.36  326 213  C 326 209.64  328.64 207  332 207  Z " fill-rule="nonzero" fill="#ffffff" stroke="none" />
  <path d="M 332 207.5  C 335.08 207.5  337.5 209.92  337.5 213  C 337.5 216.08  335.08 218.5  332 218.5  C 328.92 218.5  326.5 216.08  326.5 213  C 326.5 209.92  328.92 207.5  332 207.5  Z " stroke-width="1" stroke="#797979" fill="none" />
  <path d="M 332 216  C 330.32 216  329 214.68  329 213  C 329 211.32  330.32 210  332 210  C 333.68 210  335 211.32  335 213  C 335 214.68  333.68 216  332 216  " fill-rule="nonzero" fill="#797979" stroke="none" />
</svg>