<?xml version="1.0" encoding="utf-8"?>
<svg version="1.1" xmlns:xlink="http://www.w3.org/1999/xlink" width="12px" height="12px" viewBox="234 108  12 12" xmlns="http://www.w3.org/2000/svg">
  <path d="M 240 108  C 243.36 108  246 110.64  246 114  C 246 117.36  243.36 120  240 120  C 236.64 120  234 117.36  234 114  C 234 110.64  236.64 108  240 108  Z " fill-rule="nonzero" fill="#ffffff" stroke="none" />
  <path d="M 240 108.5  C 243.08 108.5  245.5 110.92  245.5 114  C 245.5 117.08  243.08 119.5  240 119.5  C 236.92 119.5  234.5 117.08  234.5 114  C 234.5 110.92  236.92 108.5  240 108.5  Z " stroke-width="1" stroke="#797979" fill="none" />
  <path d="M 240 117  C 238.32 117  237 115.68  237 114  C 237 112.32  238.32 111  240 111  C 241.68 111  243 112.32  243 114  C 243 115.68  241.68 117  240 117  " fill-rule="nonzero" fill="#797979" stroke="none" />
</svg>