<?xml version="1.0" encoding="utf-8"?>
<svg version="1.1" xmlns:xlink="http://www.w3.org/1999/xlink" width="90px" height="70px" xmlns="http://www.w3.org/2000/svg">
  <g transform="matrix(1 0 0 1 -483 -301 )">
    <path d="M 24.3582589285714 38.6328125  L 10.8482142857143 45.6640625  L 42 61.3671875  L 42 47.34375  L 24.3582589285714 38.6328125  Z M 8 29.9609375  L 8 40.0390625  L 17.4274553571429 35  L 8 29.9609375  Z M 48 47.34375  L 48 61.3671875  L 79.1517857142857 45.6640625  L 65.6417410714286 38.6328125  L 48 47.34375  Z M 31.3392857142857 35  L 45 42.109375  L 58.6607142857143 35  L 45 27.890625  L 31.3392857142857 35  Z M 10.8482142857143 24.3359375  L 24.3582589285714 31.3671875  L 42 22.65625  L 42 8.6328125  L 10.8482142857143 24.3359375  Z M 82 29.9609375  L 72.5725446428571 35  L 82 40.0390625  L 82 29.9609375  Z M 48 22.65625  L 65.6417410714286 31.3671875  L 79.1517857142857 24.3359375  L 48 8.6328125  L 48 22.65625  Z M 88.2924107142857 21.8359375  C 89.4308035714286 22.4348958333333  90 23.2682291666667  90 24.3359375  L 90 45.6640625  C 90 46.7317708333333  89.4308035714286 47.5651041666667  88.2924107142857 48.1640625  L 47.1595982142857 69.4921875  C 46.4564732142857 69.8307291666667  45.7366071428571 70  45 70  C 44.2633928571429 70  43.5435267857143 69.8307291666667  42.8404017857143 69.4921875  L 1.70758928571429 48.1640625  C 0.569196428571428 47.5651041666667  0 46.7317708333333  0 45.6640625  L 0 24.3359375  C 0 23.2682291666667  0.569196428571428 22.4348958333333  1.70758928571429 21.8359375  L 42.8404017857143 0.507812500000001  C 43.5435267857143 0.169270833333341  44.2633928571429 0  45 0  C 45.7366071428571 0  46.4564732142857 0.169270833333341  47.1595982142857 0.507812500000001  L 88.2924107142857 21.8359375  Z " fill-rule="nonzero" fill="#d7d7d7" stroke="none" transform="matrix(1 0 0 1 483 301 )" />
  </g>
</svg>