<svg class="icon" viewBox="0 0 1072 1024" version="1.1" xmlns="http://www.w3.org/2000/svg" p-id="1121" height="128" width="128"><path d="M529.67619 1007.664762H110.665143c-36.912762 0-67.047619-11.629714-90.550857-38.765714-10.093714-11.654095-13.409524-27.160381-13.409524-42.715429V189.001143C6.704762 146.285714 46.933333 111.37219 93.866667 107.52h87.161904c13.409524 0 20.114286-3.876571 20.114286-15.506286V60.952381C207.847619 29.891048 227.961905 14.384762 261.485714 14.384762c26.819048 0 46.933333 19.431619 50.322286 50.44419v3.852191c3.31581 42.691048 3.31581 42.691048 46.933333 42.691047H724.114286c16.725333 0 23.503238-3.85219 23.503238-19.407238V64.828952C750.933333 33.767619 774.436571 18.261333 804.571429 18.261333c30.134857 0 50.322286 19.407238 53.638095 46.567619 0 15.481905-6.704762 34.913524 3.315809 42.666667 13.409524 7.801905 33.52381 3.900952 50.322286 3.900952h50.322286c50.297905 3.85219 90.526476 38.765714 90.526476 85.333334v729.404952c0 50.41981-43.544381 85.333333-103.936 89.258667-134.095238-7.728762-278.28419-7.728762-419.084191-7.728762z m3.388953-663.454476H113.980952c-16.725333 0-23.503238 3.876571-23.503238 19.431619v535.405714c0 23.28381 10.093714 27.136 30.159238 27.136h824.685715c30.134857 0 30.134857 0 30.134857-27.136V367.494095c0-19.407238-3.31581-23.28381-23.478857-23.283809H533.065143z" fill="#7F7F7F" p-id="1122"></path><path d="M271.579429 812.739048h-53.638096c-23.503238 0-33.52381-11.459048-36.912762-30.573715v-64.999619c0-19.139048 13.409524-30.573714 33.52381-30.573714h113.980952c23.503238 0 33.52381 11.459048 33.52381 34.425905v61.19619c0 19.163429-10.093714 30.598095-33.52381 30.598095h-56.953904v-0.073142z m261.485714 0h-53.638095c-23.454476 0-36.912762-11.459048-36.912762-30.573715v-61.19619c0-22.942476 10.093714-30.573714 33.523809-34.425905h110.592c20.114286 0 33.52381 11.459048 33.52381 30.573714v64.999619c0 19.163429-13.409524 30.573714-33.52381 30.573715h-53.564952v0.048762z m261.412571-126.19581h57.051429c20.089905 0 33.499429 11.459048 30.110476 30.573714v68.876191c0 19.139048-13.409524 30.573714-33.523809 30.573714h-113.980953c-20.114286 0-33.52381-11.483429-33.523809-30.573714V720.944762c0-19.139048 13.409524-30.573714 33.523809-30.573714 20.187429-7.728762 40.301714-3.85219 60.342857-3.852191z m-261.412571-91.843048h-57.027048c-23.503238 0-33.52381-7.655619-33.523809-30.573714v-68.851809c0-19.163429 10.093714-26.770286 30.134857-26.770286H590.019048c20.114286 0 30.134857 11.459048 33.523809 30.573714v64.999619c0 19.163429-10.093714 30.573714-33.523809 30.573715 0 0.048762-57.027048 0.048762-56.953905 0.048761z m-261.485714-126.195809h56.953904c20.114286 0 33.52381 11.459048 33.52381 26.770286v68.851809c0 19.163429-10.093714 26.770286-30.134857 26.770286H214.552381c-20.114286 0-30.134857-7.655619-30.134857-26.770286v-72.655238c0-19.163429 13.409524-26.770286 33.523809-26.770286 16.725333 3.803429 33.52381 3.803429 53.638096 3.803429z m519.582476 126.195809h-56.953905c-20.114286 0-33.52381-11.459048-33.52381-30.573714v-68.851809c0-19.163429 10.069333-26.770286 30.134858-26.770286h117.369904c20.114286 0 30.134857 11.459048 30.134858 26.770286v68.851809c0 15.286857-10.093714 26.770286-30.134858 26.770286-16.798476 3.803429-36.912762 3.803429-57.027047 3.803428z" fill="#7F7F7F" p-id="1123"></path></svg>