<?xml version="1.0" encoding="utf-8"?>
<svg version="1.1" xmlns:xlink="http://www.w3.org/1999/xlink" width="12px" height="12px" viewBox="231 506  12 12" xmlns="http://www.w3.org/2000/svg">
  <path d="M 237 506  C 240.36 506  243 508.64  243 512  C 243 515.36  240.36 518  237 518  C 233.64 518  231 515.36  231 512  C 231 508.64  233.64 506  237 506  Z " fill-rule="nonzero" fill="#ffffff" stroke="none" />
  <path d="M 237 506.5  C 240.08 506.5  242.5 508.92  242.5 512  C 242.5 515.08  240.08 517.5  237 517.5  C 233.92 517.5  231.5 515.08  231.5 512  C 231.5 508.92  233.92 506.5  237 506.5  Z " stroke-width="1" stroke="#797979" fill="none" />
  <path d="M 237 515  C 235.32 515  234 513.68  234 512  C 234 510.32  235.32 509  237 509  C 238.68 509  240 510.32  240 512  C 240 513.68  238.68 515  237 515  " fill-rule="nonzero" fill="#797979" stroke="none" />
</svg>