<?xml version="1.0" encoding="utf-8"?>
<svg version="1.1" xmlns:xlink="http://www.w3.org/1999/xlink" width="59px" height="37px" xmlns="http://www.w3.org/2000/svg">
  <g transform="matrix(1 0 0 1 -291 -146 )">
    <path d="M 291 146  L 350 146  L 350 183  L 291 183  L 291 146  " fill-rule="nonzero" fill="#cccccc" stroke="none" />
    <path d="M 294 149  L 347 149  L 347 180  L 294 180  L 294 149  " fill-rule="nonzero" fill="#ffffff" stroke="none" />
    <path d="M 324.455 157.1  C 322.901 157.1  321.68 155.879  321.68 154.325  C 321.68 152.771  322.901 151.55  324.455 151.55  C 326.009 151.55  327.23 152.771  327.23 154.325  C 327.23 155.879  326.009 157.1  324.455 157.1  " fill-rule="nonzero" fill="#cccccc" stroke="none" />
    <path d="M 295 179  L 295 163.05  L 307.75 155.8  L 325.6 168.08813559322  L 335.8 160.15  L 346 168.08813559322  L 346 179  L 295 179  " fill-rule="nonzero" fill="#169bd5" stroke="none" />
  </g>
</svg>