<?xml version="1.0" encoding="utf-8"?>
<svg version="1.1" xmlns:xlink="http://www.w3.org/1999/xlink" width="7px" height="7px" xmlns="http://www.w3.org/2000/svg">
  <g transform="matrix(1 0 0 1 -667 -375 )">
    <path d="M 6.92985971943888 0.721649484536082  C 6.97661990647963 0.801832760595645  7 0.894043528064146  7 0.998281786941581  C 7 1.10252004581901  6.97661990647963 1.19473081328751  6.92985971943888 1.27491408934708  L 3.66132264529058 6.87972508591065  C 3.61456245824983 6.95990836197022  3.56078824315297 7  3.5 7  C 3.43921175684703 7  3.38543754175017 6.95990836197022  3.33867735470942 6.87972508591065  L 0.0701402805611222 1.27491408934708  C 0.0233800935203742 1.19473081328751  0 1.10252004581901  0 0.998281786941581  C 0 0.894043528064146  0.0233800935203742 0.801832760595645  0.0701402805611222 0.721649484536082  L 0.420841683366733 0.120274914089347  C 0.467601870407482 0.0400916380297814  0.521376085504342 0  0.582164328657315 0  C 0.642952571810287 0  0.696726786907148 0.0400916380297814  0.743486973947896 0.120274914089347  L 3.5 4.84707903780069  L 6.2565130260521 0.120274914089347  C 6.30327321309285 0.0400916380297814  6.35704742818971 0  6.41783567134268 0  C 6.47862391449566 0  6.53239812959252 0.0400916380297814  6.57915831663327 0.120274914089347  L 6.92985971943888 0.721649484536082  Z " fill-rule="nonzero" fill="#434343" stroke="none" transform="matrix(1 0 0 1 667 375 )" />
  </g>
</svg>