<?xml version="1.0" encoding="utf-8"?>
<svg version="1.1" xmlns:xlink="http://www.w3.org/1999/xlink" width="12px" height="12px" viewBox="1201 429  12 12" xmlns="http://www.w3.org/2000/svg">
  <path d="M 1207 429  C 1210.36 429  1213 431.64  1213 435  C 1213 438.36  1210.36 441  1207 441  C 1203.64 441  1201 438.36  1201 435  C 1201 431.64  1203.64 429  1207 429  Z " fill-rule="nonzero" fill="#ffffff" stroke="none" />
  <path d="M 1207 429.5  C 1210.08 429.5  1212.5 431.92  1212.5 435  C 1212.5 438.08  1210.08 440.5  1207 440.5  C 1203.92 440.5  1201.5 438.08  1201.5 435  C 1201.5 431.92  1203.92 429.5  1207 429.5  Z " stroke-width="1" stroke="#797979" fill="none" />
  <path d="M 1207 438  C 1205.32 438  1204 436.68  1204 435  C 1204 433.32  1205.32 432  1207 432  C 1208.68 432  1210 433.32  1210 435  C 1210 436.68  1208.68 438  1207 438  " fill-rule="nonzero" fill="#797979" stroke="none" />
</svg>