<?xml version="1.0" encoding="utf-8"?>
<svg version="1.1" xmlns:xlink="http://www.w3.org/1999/xlink" width="12px" height="5px" xmlns="http://www.w3.org/2000/svg">
  <g transform="matrix(1 0 0 1 -631 -121 )">
    <path d="M 11.8797595190381 0.515463917525773  C 11.9599198396794 0.572737686139747  12 0.638602520045818  12 0.713058419243987  C 12 0.787514318442153  11.9599198396794 0.853379152348224  11.8797595190381 0.910652920962199  L 6.27655310621242 4.91408934707904  C 6.19639278557114 4.97136311569301  6.10420841683367 5  6 5  C 5.89579158316633 5  5.80360721442886 4.97136311569301  5.72344689378757 4.91408934707904  L 0.120240480961924 0.910652920962199  C 0.0400801603206414 0.853379152348224  0 0.787514318442153  0 0.713058419243987  C 0 0.638602520045818  0.0400801603206414 0.572737686139747  0.120240480961924 0.515463917525773  L 0.721442885771543 0.0859106529209624  C 0.801603206412826 0.0286368843069867  0.893787575150301 0  0.997995991983968 0  C 1.10220440881764 0  1.19438877755511 0.0286368843069867  1.27454909819639 0.0859106529209624  L 6 3.46219931271478  L 10.7254509018036 0.0859106529209624  C 10.8056112224449 0.0286368843069867  10.8977955911824 0  11.002004008016 0  C 11.1062124248497 0  11.1983967935872 0.0286368843069867  11.2785571142285 0.0859106529209624  L 11.8797595190381 0.515463917525773  Z " fill-rule="nonzero" fill="#434343" stroke="none" transform="matrix(1 0 0 1 631 121 )" />
  </g>
</svg>