<?xml version="1.0" encoding="utf-8"?>
<svg version="1.1" xmlns:xlink="http://www.w3.org/1999/xlink" width="12px" height="12px" viewBox="917 1552  12 12" xmlns="http://www.w3.org/2000/svg">
  <path d="M 923 1552  C 926.36 1552  929 1554.64  929 1558  C 929 1561.36  926.36 1564  923 1564  C 919.64 1564  917 1561.36  917 1558  C 917 1554.64  919.64 1552  923 1552  Z " fill-rule="nonzero" fill="#ffffff" stroke="none" />
  <path d="M 923 1552.5  C 926.08 1552.5  928.5 1554.92  928.5 1558  C 928.5 1561.08  926.08 1563.5  923 1563.5  C 919.92 1563.5  917.5 1561.08  917.5 1558  C 917.5 1554.92  919.92 1552.5  923 1552.5  Z " stroke-width="1" stroke="#797979" fill="none" />
  <path d="M 923 1561  C 921.32 1561  920 1559.68  920 1558  C 920 1556.32  921.32 1555  923 1555  C 924.68 1555  926 1556.32  926 1558  C 926 1559.68  924.68 1561  923 1561  " fill-rule="nonzero" fill="#797979" stroke="none" />
</svg>