<?xml version="1.0" encoding="utf-8"?>
<svg version="1.1" xmlns:xlink="http://www.w3.org/1999/xlink" width="12px" height="12px" viewBox="330 847  12 12" xmlns="http://www.w3.org/2000/svg">
  <path d="M 336 847  C 339.36 847  342 849.64  342 853  C 342 856.36  339.36 859  336 859  C 332.64 859  330 856.36  330 853  C 330 849.64  332.64 847  336 847  Z " fill-rule="nonzero" fill="#ffffff" stroke="none" />
  <path d="M 336 847.5  C 339.08 847.5  341.5 849.92  341.5 853  C 341.5 856.08  339.08 858.5  336 858.5  C 332.92 858.5  330.5 856.08  330.5 853  C 330.5 849.92  332.92 847.5  336 847.5  Z " stroke-width="1" stroke="#797979" fill="none" />
  <path d="M 336 856  C 334.32 856  333 854.68  333 853  C 333 851.32  334.32 850  336 850  C 337.68 850  339 851.32  339 853  C 339 854.68  337.68 856  336 856  " fill-rule="nonzero" fill="#797979" stroke="none" />
</svg>