<?xml version="1.0" encoding="utf-8"?>
<svg version="1.1" xmlns:xlink="http://www.w3.org/1999/xlink" width="12px" height="12px" viewBox="319 1312  12 12" xmlns="http://www.w3.org/2000/svg">
  <path d="M 325 1312  C 328.36 1312  331 1314.64  331 1318  C 331 1321.36  328.36 1324  325 1324  C 321.64 1324  319 1321.36  319 1318  C 319 1314.64  321.64 1312  325 1312  Z " fill-rule="nonzero" fill="#ffffff" stroke="none" />
  <path d="M 325 1312.5  C 328.08 1312.5  330.5 1314.92  330.5 1318  C 330.5 1321.08  328.08 1323.5  325 1323.5  C 321.92 1323.5  319.5 1321.08  319.5 1318  C 319.5 1314.92  321.92 1312.5  325 1312.5  Z " stroke-width="1" stroke="#797979" fill="none" />
  <path d="M 325 1321  C 323.32 1321  322 1319.68  322 1318  C 322 1316.32  323.32 1315  325 1315  C 326.68 1315  328 1316.32  328 1318  C 328 1319.68  326.68 1321  325 1321  " fill-rule="nonzero" fill="#797979" stroke="none" />
</svg>