<?xml version="1.0" encoding="utf-8"?>
<svg version="1.1" xmlns:xlink="http://www.w3.org/1999/xlink" width="12px" height="12px" viewBox="248 1873  12 12" xmlns="http://www.w3.org/2000/svg">
  <path d="M 254 1873  C 257.36 1873  260 1875.64  260 1879  C 260 1882.36  257.36 1885  254 1885  C 250.64 1885  248 1882.36  248 1879  C 248 1875.64  250.64 1873  254 1873  Z " fill-rule="nonzero" fill="#ffffff" stroke="none" />
  <path d="M 254 1873.5  C 257.08 1873.5  259.5 1875.92  259.5 1879  C 259.5 1882.08  257.08 1884.5  254 1884.5  C 250.92 1884.5  248.5 1882.08  248.5 1879  C 248.5 1875.92  250.92 1873.5  254 1873.5  Z " stroke-width="1" stroke="#797979" fill="none" />
  <path d="M 254 1882  C 252.32 1882  251 1880.68  251 1879  C 251 1877.32  252.32 1876  254 1876  C 255.68 1876  257 1877.32  257 1879  C 257 1880.68  255.68 1882  254 1882  " fill-rule="nonzero" fill="#797979" stroke="none" />
</svg>