<?xml version="1.0" encoding="utf-8"?>
<svg version="1.1" xmlns:xlink="http://www.w3.org/1999/xlink" width="12px" height="12px" viewBox="313 824  12 12" xmlns="http://www.w3.org/2000/svg">
  <path d="M 319 824  C 322.36 824  325 826.64  325 830  C 325 833.36  322.36 836  319 836  C 315.64 836  313 833.36  313 830  C 313 826.64  315.64 824  319 824  Z " fill-rule="nonzero" fill="#ffffff" stroke="none" />
  <path d="M 319 824.5  C 322.08 824.5  324.5 826.92  324.5 830  C 324.5 833.08  322.08 835.5  319 835.5  C 315.92 835.5  313.5 833.08  313.5 830  C 313.5 826.92  315.92 824.5  319 824.5  Z " stroke-width="1" stroke="#797979" fill="none" />
  <path d="M 319 833  C 317.32 833  316 831.68  316 830  C 316 828.32  317.32 827  319 827  C 320.68 827  322 828.32  322 830  C 322 831.68  320.68 833  319 833  " fill-rule="nonzero" fill="#797979" stroke="none" />
</svg>