<?xml version="1.0" encoding="utf-8"?>
<svg version="1.1" xmlns:xlink="http://www.w3.org/1999/xlink" width="12px" height="12px" viewBox="896 200  12 12" xmlns="http://www.w3.org/2000/svg">
  <path d="M 902 200  C 905.36 200  908 202.64  908 206  C 908 209.36  905.36 212  902 212  C 898.64 212  896 209.36  896 206  C 896 202.64  898.64 200  902 200  Z " fill-rule="nonzero" fill="#ffffff" stroke="none" />
  <path d="M 902 200.5  C 905.08 200.5  907.5 202.92  907.5 206  C 907.5 209.08  905.08 211.5  902 211.5  C 898.92 211.5  896.5 209.08  896.5 206  C 896.5 202.92  898.92 200.5  902 200.5  Z " stroke-width="1" stroke="#797979" fill="none" />
  <path d="M 902 209  C 900.32 209  899 207.68  899 206  C 899 204.32  900.32 203  902 203  C 903.68 203  905 204.32  905 206  C 905 207.68  903.68 209  902 209  " fill-rule="nonzero" fill="#797979" stroke="none" />
</svg>