<?xml version="1.0" encoding="utf-8"?>
<svg version="1.1" xmlns:xlink="http://www.w3.org/1999/xlink" width="12px" height="12px" viewBox="1006 248  12 12" xmlns="http://www.w3.org/2000/svg">
  <path d="M 1012 248  C 1015.36 248  1018 250.64  1018 254  C 1018 257.36  1015.36 260  1012 260  C 1008.64 260  1006 257.36  1006 254  C 1006 250.64  1008.64 248  1012 248  Z " fill-rule="nonzero" fill="#ffffff" stroke="none" />
  <path d="M 1012 248.5  C 1015.08 248.5  1017.5 250.92  1017.5 254  C 1017.5 257.08  1015.08 259.5  1012 259.5  C 1008.92 259.5  1006.5 257.08  1006.5 254  C 1006.5 250.92  1008.92 248.5  1012 248.5  Z " stroke-width="1" stroke="#797979" fill="none" />
  <path d="M 1012 257  C 1010.32 257  1009 255.68  1009 254  C 1009 252.32  1010.32 251  1012 251  C 1013.68 251  1015 252.32  1015 254  C 1015 255.68  1013.68 257  1012 257  " fill-rule="nonzero" fill="#797979" stroke="none" />
</svg>