<?xml version="1.0" encoding="utf-8"?>
<svg version="1.1" xmlns:xlink="http://www.w3.org/1999/xlink" width="4px" height="6px" xmlns="http://www.w3.org/2000/svg">
  <g transform="matrix(1 0 0 1 -458 -116 )">
    <path d="M 3.95991983967934 0.618556701030926  C 3.98663994655976 0.687285223367695  4 0.766323024054984  4 0.855670103092777  C 4 0.945017182130584  3.98663994655976 1.02405498281787  3.95991983967934 1.09278350515464  L 2.09218436873749 5.89690721649484  C 2.06546426185702 5.96563573883161  2.03473613894454 6  2 6  C 1.96526386105546 6  1.93453573814298 5.96563573883161  1.90781563126251 5.89690721649484  L 0.040080160320656 1.09278350515464  C 0.0133600534402376 1.02405498281787  0 0.945017182130584  0 0.855670103092777  C 0 0.766323024054984  0.0133600534402376 0.687285223367695  0.040080160320656 0.618556701030926  L 0.240480961923879 0.103092783505161  C 0.267201068804297 0.0343642611683777  0.297929191716776 0  0.332665330661314 0  C 0.367401469605909 0  0.398129592518387 0.0343642611683777  0.424849699398806 0.103092783505161  L 2 4.15463917525773  L 3.57515030060119 0.103092783505161  C 3.60187040748161 0.0343642611683777  3.63259853039409 0  3.66733466933869 0  C 3.70207080828322 0  3.7327989311957 0.0343642611683777  3.75951903807612 0.103092783505161  L 3.95991983967934 0.618556701030926  Z " fill-rule="nonzero" fill="#a1a1a1" stroke="none" transform="matrix(1 0 0 1 458 116 )" />
  </g>
</svg>