<?xml version="1.0" encoding="utf-8"?>
<svg version="1.1" xmlns:xlink="http://www.w3.org/1999/xlink" width="12px" height="12px" viewBox="225 167  12 12" xmlns="http://www.w3.org/2000/svg">
  <path d="M 231 167  C 234.36 167  237 169.64  237 173  C 237 176.36  234.36 179  231 179  C 227.64 179  225 176.36  225 173  C 225 169.64  227.64 167  231 167  Z " fill-rule="nonzero" fill="#ffffff" stroke="none" />
  <path d="M 231 167.5  C 234.08 167.5  236.5 169.92  236.5 173  C 236.5 176.08  234.08 178.5  231 178.5  C 227.92 178.5  225.5 176.08  225.5 173  C 225.5 169.92  227.92 167.5  231 167.5  Z " stroke-width="1" stroke="#797979" fill="none" />
  <path d="M 231 176  C 229.32 176  228 174.68  228 173  C 228 171.32  229.32 170  231 170  C 232.68 170  234 171.32  234 173  C 234 174.68  232.68 176  231 176  " fill-rule="nonzero" fill="#797979" stroke="none" />
</svg>