<?xml version="1.0" encoding="utf-8"?>
<svg version="1.1" xmlns:xlink="http://www.w3.org/1999/xlink" width="12px" height="12px" viewBox="404 630.5  12 12" xmlns="http://www.w3.org/2000/svg">
  <path d="M 410 630.5  C 413.36 630.5  416 633.14  416 636.5  C 416 639.86  413.36 642.5  410 642.5  C 406.64 642.5  404 639.86  404 636.5  C 404 633.14  406.64 630.5  410 630.5  Z " fill-rule="nonzero" fill="#ffffff" stroke="none" />
  <path d="M 410 631  C 413.08 631  415.5 633.42  415.5 636.5  C 415.5 639.58  413.08 642  410 642  C 406.92 642  404.5 639.58  404.5 636.5  C 404.5 633.42  406.92 631  410 631  Z " stroke-width="1" stroke="#797979" fill="none" />
  <path d="M 410 639.5  C 408.32 639.5  407 638.18  407 636.5  C 407 634.82  408.32 633.5  410 633.5  C 411.68 633.5  413 634.82  413 636.5  C 413 638.18  411.68 639.5  410 639.5  " fill-rule="nonzero" fill="#797979" stroke="none" />
</svg>