<?xml version="1.0" encoding="utf-8"?>
<svg version="1.1" xmlns:xlink="http://www.w3.org/1999/xlink" width="19px" height="19px" xmlns="http://www.w3.org/2000/svg">
  <defs>
    <filter x="305px" y="442px" width="19px" height="19px" filterUnits="userSpaceOnUse" id="filter2006">
      <feOffset dx="1" dy="1" in="SourceAlpha" result="shadowOffsetInner" />
      <feGaussianBlur stdDeviation="2.5" in="shadowOffsetInner" result="shadowGaussian" />
      <feComposite in2="shadowGaussian" operator="atop" in="SourceAlpha" result="shadowComposite" />
      <feColorMatrix type="matrix" values="0 0 0 0 0  0 0 0 0 0  0 0 0 0 0  0 0 0 0.698039215686274 0  " in="shadowComposite" />
    </filter>
    <g id="widget2007">
      <path d="M 313.5 446  C 316.02 446  318 447.98  318 450.5  C 318 453.02  316.02 455  313.5 455  C 310.98 455  309 453.02  309 450.5  C 309 447.98  310.98 446  313.5 446  Z " fill-rule="nonzero" fill="#ff0000" stroke="none" />
      <path d="M 313.5 446.5  C 315.74 446.5  317.5 448.26  317.5 450.5  C 317.5 452.74  315.74 454.5  313.5 454.5  C 311.26 454.5  309.5 452.74  309.5 450.5  C 309.5 448.26  311.26 446.5  313.5 446.5  Z " stroke-width="1" stroke="#ffffff" fill="none" />
    </g>
  </defs>
  <g transform="matrix(1 0 0 1 -305 -442 )">
    <use xlink:href="#widget2007" filter="url(#filter2006)" />
    <use xlink:href="#widget2007" />
  </g>
</svg>