<?xml version="1.0" encoding="utf-8"?>
<svg version="1.1" xmlns:xlink="http://www.w3.org/1999/xlink" width="19px" height="19px" xmlns="http://www.w3.org/2000/svg">
  <defs>
    <filter x="305px" y="493px" width="19px" height="19px" filterUnits="userSpaceOnUse" id="filter2004">
      <feOffset dx="1" dy="1" in="SourceAlpha" result="shadowOffsetInner" />
      <feGaussianBlur stdDeviation="2.5" in="shadowOffsetInner" result="shadowGaussian" />
      <feComposite in2="shadowGaussian" operator="atop" in="SourceAlpha" result="shadowComposite" />
      <feColorMatrix type="matrix" values="0 0 0 0 0  0 0 0 0 0  0 0 0 0 0  0 0 0 0.698039215686274 0  " in="shadowComposite" />
    </filter>
    <g id="widget2005">
      <path d="M 313.5 497  C 316.02 497  318 498.98  318 501.5  C 318 504.02  316.02 506  313.5 506  C 310.98 506  309 504.02  309 501.5  C 309 498.98  310.98 497  313.5 497  Z " fill-rule="nonzero" fill="#339933" stroke="none" />
      <path d="M 313.5 497.5  C 315.74 497.5  317.5 499.26  317.5 501.5  C 317.5 503.74  315.74 505.5  313.5 505.5  C 311.26 505.5  309.5 503.74  309.5 501.5  C 309.5 499.26  311.26 497.5  313.5 497.5  Z " stroke-width="1" stroke="#ffffff" fill="none" />
    </g>
  </defs>
  <g transform="matrix(1 0 0 1 -305 -493 )">
    <use xlink:href="#widget2005" filter="url(#filter2004)" />
    <use xlink:href="#widget2005" />
  </g>
</svg>