<?xml version="1.0" encoding="utf-8"?>
<svg version="1.1" xmlns:xlink="http://www.w3.org/1999/xlink" width="12px" height="12px" viewBox="178 260.5  12 12" xmlns="http://www.w3.org/2000/svg">
  <path d="M 184 260.5  C 187.36 260.5  190 263.14  190 266.5  C 190 269.86  187.36 272.5  184 272.5  C 180.64 272.5  178 269.86  178 266.5  C 178 263.14  180.64 260.5  184 260.5  Z " fill-rule="nonzero" fill="#ffffff" stroke="none" />
  <path d="M 184 261  C 187.08 261  189.5 263.42  189.5 266.5  C 189.5 269.58  187.08 272  184 272  C 180.92 272  178.5 269.58  178.5 266.5  C 178.5 263.42  180.92 261  184 261  Z " stroke-width="1" stroke="#797979" fill="none" />
  <path d="M 184 269.5  C 182.32 269.5  181 268.18  181 266.5  C 181 264.82  182.32 263.5  184 263.5  C 185.68 263.5  187 264.82  187 266.5  C 187 268.18  185.68 269.5  184 269.5  " fill-rule="nonzero" fill="#797979" stroke="none" />
</svg>