<?xml version="1.0" encoding="utf-8"?>
<svg version="1.1" xmlns:xlink="http://www.w3.org/1999/xlink" width="16px" height="20px" xmlns="http://www.w3.org/2000/svg">
  <g transform="matrix(1 0 0 1 -164 -199 )">
    <path d="M 3.984375 1.34114583333331  C 5.21006944444443 0.447048611111086  6.5486111111111 0  8 0  C 9.45138888888886 0  10.7899305555555 0.447048611111086  12.015625 1.34114583333331  C 13.2413194444445 2.23524305555557  14.2118055555555 3.44835069444443  14.9270833333333 4.98046875  C 15.6423611111111 6.51258680555554  16 8.18576388888891  16 10  C 16 11.8142361111111  15.6423611111111 13.4874131944445  14.9270833333333 15.01953125  C 14.2118055555555 16.5516493055555  13.2413194444445 17.7647569444445  12.015625 18.6588541666667  C 10.7899305555555 19.5529513888889  9.45138888888886 20  8 20  C 6.5486111111111 20  5.21006944444443 19.5529513888889  3.984375 18.6588541666667  C 2.75868055555557 17.7647569444445  1.78819444444443 16.5516493055555  1.07291666666666 15.01953125  C 0.3576388888889 13.4874131944445  0 11.8142361111111  0 10  C 0 8.18576388888891  0.3576388888889 6.51258680555554  1.07291666666666 4.98046875  C 1.78819444444443 3.44835069444443  2.75868055555557 2.23524305555557  3.984375 1.34114583333331  Z M 9.23958333333333 16.54296875  C 9.30208333333333 16.4605034722222  9.33333333333333 16.3585069444445  9.33333333333333 16.2369791666667  L 9.33333333333333 13.7630208333333  C 9.33333333333333 13.6414930555555  9.30208333333333 13.5394965277778  9.23958333333333 13.45703125  C 9.17708333333333 13.3745659722222  9.10069444444447 13.3333333333333  9.01041666666671 13.3333333333333  L 7.01041666666671 13.3333333333333  C 6.9201388888889 13.3333333333333  6.84027777777776 13.3767361111111  6.77083333333329 13.4635416666667  C 6.7013888888889 13.5503472222222  6.66666666666671 13.6501736111111  6.66666666666671 13.7630208333333  L 6.66666666666671 16.2369791666667  C 6.66666666666671 16.3498263888889  6.7013888888889 16.4496527777778  6.77083333333329 16.5364583333333  C 6.84027777777776 16.6232638888889  6.9201388888889 16.6666666666667  7.01041666666671 16.6666666666667  L 9.01041666666671 16.6666666666667  C 9.10069444444447 16.6666666666667  9.17708333333333 16.6254340277778  9.23958333333333 16.54296875  Z M 9.203125 11.9856770833333  C 9.2690972222222 11.9205729166667  9.30555555555553 11.8446180555555  9.3125 11.7578125  L 9.36273557187867 9.59140346272983  L 9.5 3.671875  C 9.5 3.56770833333331  9.4652777777778 3.48958333333331  9.39583333333333 3.4375  C 9.32638888888886 3.36805555555557  9.24305555555553 3.33333333333331  9.14583333333333 3.33333333333331  L 6.85416666666671 3.33333333333331  C 6.75694444444443 3.33333333333331  6.6736111111111 3.36805555555557  6.60416666666671 3.4375  C 6.53472222222224 3.48958333333331  6.5 3.56770833333331  6.5 3.671875  L 6.67708333333329 11.7578125  C 6.67708333333329 11.8446180555555  6.71180555555557 11.9205729166667  6.78125 11.9856770833333  C 6.85069444444443 12.05078125  6.93402777777776 12.0833333333333  7.03125 12.0833333333333  L 8.95833333333329 12.0833333333333  C 9.05555555555553 12.0833333333333  9.1371527777778 12.05078125  9.203125 11.9856770833333  Z " fill-rule="nonzero" fill="#000000" stroke="none" transform="matrix(1 0 0 1 164 199 )" />
  </g>
</svg>