<?xml version="1.0" encoding="utf-8"?>
<svg version="1.1" xmlns:xlink="http://www.w3.org/1999/xlink" width="12px" height="12px" viewBox="189 291  12 12" xmlns="http://www.w3.org/2000/svg">
  <path d="M 195 291  C 198.36 291  201 293.64  201 297  C 201 300.36  198.36 303  195 303  C 191.64 303  189 300.36  189 297  C 189 293.64  191.64 291  195 291  Z " fill-rule="nonzero" fill="#ffffff" stroke="none" />
  <path d="M 195 291.5  C 198.08 291.5  200.5 293.92  200.5 297  C 200.5 300.08  198.08 302.5  195 302.5  C 191.92 302.5  189.5 300.08  189.5 297  C 189.5 293.92  191.92 291.5  195 291.5  Z " stroke-width="1" stroke="#797979" fill="none" />
  <path d="M 195 300  C 193.32 300  192 298.68  192 297  C 192 295.32  193.32 294  195 294  C 196.68 294  198 295.32  198 297  C 198 298.68  196.68 300  195 300  " fill-rule="nonzero" fill="#797979" stroke="none" />
</svg>