<?xml version="1.0" encoding="utf-8"?>
<svg version="1.1" xmlns:xlink="http://www.w3.org/1999/xlink" width="15px" height="14px" xmlns="http://www.w3.org/2000/svg">
  <g transform="matrix(1 0 0 1 -636 -482 )">
    <path d="M 8.88198757763975 12.5130260521042  C 8.98550724637681 12.6065464261857  9.03726708074534 12.7140948563794  9.03726708074534 12.8356713426854  C 9.03726708074534 12.9572478289913  8.98550724637681 13.064796259185  8.88198757763975 13.1583166332665  L 8.1055900621118 13.8597194388778  C 8.00207039337474 13.9532398129593  7.88302277432712 14  7.74844720496894 14  C 7.61387163561077 14  7.49482401656315 13.9532398129593  7.39130434782609 13.8597194388778  L 0.15527950310559 7.32264529058116  C 0.0517598343685301 7.22912491649967  0 7.12157648630594  0 7  C 0 6.87842351369405  0.0517598343685301 6.77087508350033  0.15527950310559 6.67735470941884  L 7.39130434782609 0.140280561122245  C 7.49482401656315 0.0467601870407477  7.61387163561077 0  7.74844720496894 0  C 7.88302277432712 0  8.00207039337474 0.0467601870407477  8.1055900621118 0.140280561122245  L 8.88198757763975 0.841683366733466  C 8.98550724637681 0.935203740814962  9.03726708074534 1.04275217100868  9.03726708074534 1.16432865731463  C 9.03726708074534 1.28590514362057  8.98550724637681 1.39345357381429  8.88198757763975 1.48697394789579  L 2.77950310559006 7  L 8.88198757763975 12.5130260521042  Z M 14.8447204968944 12.5130260521042  C 14.9482401656315 12.6065464261857  15 12.7140948563794  15 12.8356713426854  C 15 12.9572478289913  14.9482401656315 13.064796259185  14.8447204968944 13.1583166332665  L 14.0683229813665 13.8597194388778  C 13.9648033126294 13.9532398129593  13.8457556935818 14  13.7111801242236 14  C 13.5766045548654 14  13.4575569358178 13.9532398129593  13.3540372670807 13.8597194388778  L 6.11801242236025 7.32264529058116  C 6.01449275362319 7.22912491649967  5.96273291925466 7.12157648630594  5.96273291925466 7  C 5.96273291925466 6.87842351369405  6.01449275362319 6.77087508350033  6.11801242236025 6.67735470941884  L 13.3540372670807 0.140280561122245  C 13.4575569358178 0.0467601870407477  13.5766045548654 0  13.7111801242236 0  C 13.8457556935818 0  13.9648033126294 0.0467601870407477  14.0683229813665 0.140280561122245  L 14.8447204968944 0.841683366733466  C 14.9482401656315 0.935203740814962  15 1.04275217100868  15 1.16432865731463  C 15 1.28590514362057  14.9482401656315 1.39345357381429  14.8447204968944 1.48697394789579  L 8.74223602484472 7  L 14.8447204968944 12.5130260521042  Z " fill-rule="nonzero" fill="#ffffff" stroke="none" transform="matrix(1 0 0 1 636 482 )" />
  </g>
</svg>