<?xml version="1.0" encoding="utf-8"?>
<svg version="1.1" xmlns:xlink="http://www.w3.org/1999/xlink" width="8px" height="3px" xmlns="http://www.w3.org/2000/svg">
  <g transform="matrix(1 0 0 1 -499 -129 )">
    <path d="M 7.91983967935872 0.309278350515464  C 7.97327989311957 0.343642611683848  8 0.383161512027491  8 0.427835051546392  C 8 0.472508591065292  7.97327989311957 0.512027491408934  7.91983967935872 0.54639175257732  L 4.18436873747495 2.94845360824742  C 4.1309285237141 2.98281786941581  4.06947227788911 3  4 3  C 3.93052772211089 3  3.86907147628591 2.98281786941581  3.81563126252505 2.94845360824742  L 0.0801603206412826 0.54639175257732  C 0.0267201068804276 0.512027491408934  0 0.472508591065292  0 0.427835051546392  C 0 0.383161512027491  0.0267201068804276 0.343642611683848  0.0801603206412826 0.309278350515464  L 0.480961923847695 0.0515463917525775  C 0.534402137608551 0.017182130584192  0.595858383433534 0  0.665330661322645 0  C 0.734802939211757 0  0.79625918503674 0.017182130584192  0.849699398797595 0.0515463917525775  L 4 2.07731958762887  L 7.1503006012024 0.0515463917525775  C 7.20374081496326 0.017182130584192  7.26519706078824 0  7.33466933867735 0  C 7.40414161656647 0  7.46559786239145 0.017182130584192  7.51903807615231 0.0515463917525775  L 7.91983967935872 0.309278350515464  Z " fill-rule="nonzero" fill="#a1a1a1" stroke="none" transform="matrix(1 0 0 1 499 129 )" />
  </g>
</svg>