<?xml version="1.0" encoding="utf-8"?>
<svg version="1.1" xmlns:xlink="http://www.w3.org/1999/xlink" width="12px" height="12px" viewBox="539 -142  12 12" xmlns="http://www.w3.org/2000/svg">
  <path d="M 545 -142  C 548.36 -142  551 -139.36  551 -136  C 551 -132.64  548.36 -130  545 -130  C 541.64 -130  539 -132.64  539 -136  C 539 -139.36  541.64 -142  545 -142  Z " fill-rule="nonzero" fill="#ffffff" stroke="none" />
  <path d="M 545 -141.5  C 548.08 -141.5  550.5 -139.08  550.5 -136  C 550.5 -132.92  548.08 -130.5  545 -130.5  C 541.92 -130.5  539.5 -132.92  539.5 -136  C 539.5 -139.08  541.92 -141.5  545 -141.5  Z " stroke-width="1" stroke="#797979" fill="none" />
  <path d="M 545 -133  C 543.32 -133  542 -134.32  542 -136  C 542 -137.68  543.32 -139  545 -139  C 546.68 -139  548 -137.68  548 -136  C 548 -134.32  546.68 -133  545 -133  " fill-rule="nonzero" fill="#797979" stroke="none" />
</svg>