<?xml version="1.0" encoding="utf-8"?>
<svg version="1.1" xmlns:xlink="http://www.w3.org/1999/xlink" width="15px" height="17px" xmlns="http://www.w3.org/2000/svg">
  <g transform="matrix(1 0 0 1 -508 -25 )">
    <path d="M 14.7017045454545 6.51988636363636  C 14.9005681818182 6.74526515151515  15 7.01893939393939  15 7.34090909090909  L 15 9.65909090909091  C 15 9.98106060606061  14.9005681818182 10.2547348484848  14.7017045454545 10.4801136363636  C 14.5028409090909 10.7054924242424  14.2613636363636 10.8181818181818  13.9772727272727 10.8181818181818  L 9.54545454545455 10.8181818181818  L 9.54545454545455 15.8409090909091  C 9.54545454545455 16.1628787878788  9.44602272727273 16.436553030303  9.24715909090909 16.6619318181818  C 9.04829545454546 16.8873106060606  8.80681818181818 17  8.52272727272727 17  L 6.47727272727273 17  C 6.19318181818182 17  5.95170454545455 16.8873106060606  5.75284090909091 16.6619318181818  C 5.55397727272727 16.436553030303  5.45454545454546 16.1628787878788  5.45454545454546 15.8409090909091  L 5.45454545454546 10.8181818181818  L 1.02272727272727 10.8181818181818  C 0.738636363636364 10.8181818181818  0.497159090909091 10.7054924242424  0.298295454545455 10.4801136363636  C 0.0994318181818182 10.2547348484848  0 9.98106060606061  0 9.65909090909091  L 0 7.34090909090909  C 0 7.01893939393939  0.0994318181818182 6.74526515151515  0.298295454545455 6.51988636363636  C 0.497159090909091 6.29450757575758  0.738636363636364 6.18181818181818  1.02272727272727 6.18181818181818  L 5.45454545454546 6.18181818181818  L 5.45454545454546 1.15909090909091  C 5.45454545454546 0.837121212121211  5.55397727272727 0.563446969696969  5.75284090909091 0.338068181818182  C 5.95170454545455 0.112689393939393  6.19318181818182 0  6.47727272727273 0  L 8.52272727272727 0  C 8.80681818181818 0  9.04829545454546 0.112689393939393  9.24715909090909 0.338068181818182  C 9.44602272727273 0.563446969696969  9.54545454545455 0.837121212121211  9.54545454545455 1.15909090909091  L 9.54545454545455 6.18181818181818  L 13.9772727272727 6.18181818181818  C 14.2613636363636 6.18181818181818  14.5028409090909 6.29450757575758  14.7017045454545 6.51988636363636  Z " fill-rule="nonzero" fill="#008080" stroke="none" transform="matrix(1 0 0 1 508 25 )" />
  </g>
</svg>