<?xml version="1.0" encoding="utf-8"?>
<svg version="1.1" xmlns:xlink="http://www.w3.org/1999/xlink" width="12px" height="12px" viewBox="187 835  12 12" xmlns="http://www.w3.org/2000/svg">
  <path d="M 193 835  C 196.36 835  199 837.64  199 841  C 199 844.36  196.36 847  193 847  C 189.64 847  187 844.36  187 841  C 187 837.64  189.64 835  193 835  Z " fill-rule="nonzero" fill="#ffffff" stroke="none" />
  <path d="M 193 835.5  C 196.08 835.5  198.5 837.92  198.5 841  C 198.5 844.08  196.08 846.5  193 846.5  C 189.92 846.5  187.5 844.08  187.5 841  C 187.5 837.92  189.92 835.5  193 835.5  Z " stroke-width="1" stroke="#797979" fill="none" />
  <path d="M 193 844  C 191.32 844  190 842.68  190 841  C 190 839.32  191.32 838  193 838  C 194.68 838  196 839.32  196 841  C 196 842.68  194.68 844  193 844  " fill-rule="nonzero" fill="#797979" stroke="none" />
</svg>