<?xml version="1.0" encoding="utf-8"?>
<svg version="1.1" xmlns:xlink="http://www.w3.org/1999/xlink" width="12px" height="12px" viewBox="287 727  12 12" xmlns="http://www.w3.org/2000/svg">
  <path d="M 293 727  C 296.36 727  299 729.64  299 733  C 299 736.36  296.36 739  293 739  C 289.64 739  287 736.36  287 733  C 287 729.64  289.64 727  293 727  Z " fill-rule="nonzero" fill="#ffffff" stroke="none" />
  <path d="M 293 727.5  C 296.08 727.5  298.5 729.92  298.5 733  C 298.5 736.08  296.08 738.5  293 738.5  C 289.92 738.5  287.5 736.08  287.5 733  C 287.5 729.92  289.92 727.5  293 727.5  Z " stroke-width="1" stroke="#797979" fill="none" />
  <path d="M 293 736  C 291.32 736  290 734.68  290 733  C 290 731.32  291.32 730  293 730  C 294.68 730  296 731.32  296 733  C 296 734.68  294.68 736  293 736  " fill-rule="nonzero" fill="#797979" stroke="none" />
</svg>