<?xml version="1.0" encoding="utf-8"?>
<svg version="1.1" xmlns:xlink="http://www.w3.org/1999/xlink" width="6px" height="6px" xmlns="http://www.w3.org/2000/svg">
  <g transform="matrix(1 0 0 1 -733 -109 )">
    <path d="M 5.93987975951904 0.618556701030928  C 5.97995991983968 0.687285223367696  6 0.766323024054982  6 0.855670103092784  C 6 0.945017182130584  5.97995991983968 1.02405498281787  5.93987975951904 1.09278350515464  L 3.13827655310621 5.89690721649484  C 3.09819639278557 5.96563573883161  3.05210420841683 6  3 6  C 2.94789579158317 6  2.90180360721443 5.96563573883161  2.86172344689379 5.89690721649484  L 0.0601202404809619 1.09278350515464  C 0.0200400801603207 1.02405498281787  0 0.945017182130584  0 0.855670103092784  C 0 0.766323024054982  0.0200400801603207 0.687285223367696  0.0601202404809619 0.618556701030928  L 0.360721442885772 0.103092783505155  C 0.400801603206413 0.0343642611683841  0.44689378757515 0  0.498997995991984 0  C 0.551102204408818 0  0.597194388777555 0.0343642611683841  0.637274549098196 0.103092783505155  L 3 4.15463917525773  L 5.3627254509018 0.103092783505155  C 5.40280561122245 0.0343642611683841  5.44889779559118 0  5.50100200400802 0  C 5.55310621242485 0  5.59919839679359 0.0343642611683841  5.63927855711423 0.103092783505155  L 5.93987975951904 0.618556701030928  Z " fill-rule="nonzero" fill="#a1a1a1" stroke="none" transform="matrix(1 0 0 1 733 109 )" />
  </g>
</svg>