<?xml version="1.0" encoding="utf-8"?>
<svg version="1.1" xmlns:xlink="http://www.w3.org/1999/xlink" width="12px" height="12px" viewBox="135 202  12 12" xmlns="http://www.w3.org/2000/svg">
  <path d="M 141 202  C 144.36 202  147 204.64  147 208  C 147 211.36  144.36 214  141 214  C 137.64 214  135 211.36  135 208  C 135 204.64  137.64 202  141 202  Z " fill-rule="nonzero" fill="#ffffff" stroke="none" />
  <path d="M 141 202.5  C 144.08 202.5  146.5 204.92  146.5 208  C 146.5 211.08  144.08 213.5  141 213.5  C 137.92 213.5  135.5 211.08  135.5 208  C 135.5 204.92  137.92 202.5  141 202.5  Z " stroke-width="1" stroke="#797979" fill="none" />
  <path d="M 141 211  C 139.32 211  138 209.68  138 208  C 138 206.32  139.32 205  141 205  C 142.68 205  144 206.32  144 208  C 144 209.68  142.68 211  141 211  " fill-rule="nonzero" fill="#797979" stroke="none" />
</svg>