<?xml version="1.0" encoding="utf-8"?>
<svg version="1.1" xmlns:xlink="http://www.w3.org/1999/xlink" width="17px" height="18px" xmlns="http://www.w3.org/2000/svg">
  <g transform="matrix(1 0 0 1 -215 -151 )">
    <path d="M 9.81705729166669 4.60546875  C 9.88346354166669 4.67578125  9.91666666666669 4.765625  9.91666666666669 4.875  L 9.91666666666669 10.125  C 9.91666666666669 10.234375  9.88346354166669 10.32421875  9.81705729166669 10.39453125  C 9.75065104166669 10.46484375  9.66579861111109 10.5  9.5625 10.5  L 6.02083333333331 10.5  C 5.91753472222223 10.5  5.83268229166669 10.46484375  5.76627604166669 10.39453125  C 5.69986979166669 10.32421875  5.66666666666669 10.234375  5.66666666666669 10.125  L 5.66666666666669 9.375  C 5.66666666666669 9.265625  5.69986979166669 9.17578125  5.76627604166669 9.10546875  C 5.83268229166669 9.03515625  5.91753472222223 9  6.02083333333331 9  L 8.5 9  L 8.5 4.875  C 8.5 4.765625  8.533203125 4.67578125  8.599609375 4.60546875  C 8.666015625 4.53515625  8.75086805555554 4.5  8.85416666666669 4.5  L 9.5625 4.5  C 9.66579861111109 4.5  9.75065104166669 4.53515625  9.81705729166669 4.60546875  Z M 13.712890625 12.19921875  C 14.2515190972222 11.22265625  14.5208333333333 10.15625  14.5208333333333 9  C 14.5208333333333 7.84375  14.2515190972222 6.77734375  13.712890625 5.80078125  C 13.1742621527778 4.82421875  12.4437934027778 4.05078125  11.521484375 3.48046875  C 10.5991753472222 2.91015625  9.59201388888891 2.625  8.5 2.625  C 7.40798611111109 2.625  6.40082465277777 2.91015625  5.478515625 3.48046875  C 4.55620659722223 4.05078125  3.82573784722223 4.82421875  3.287109375 5.80078125  C 2.74848090277777 6.77734375  2.47916666666669 7.84375  2.47916666666669 9  C 2.47916666666669 10.15625  2.74848090277777 11.22265625  3.287109375 12.19921875  C 3.82573784722223 13.17578125  4.55620659722223 13.94921875  5.478515625 14.51953125  C 6.40082465277777 15.08984375  7.40798611111109 15.375  8.5 15.375  C 9.59201388888891 15.375  10.5991753472222 15.08984375  11.521484375 14.51953125  C 12.4437934027778 13.94921875  13.1742621527778 13.17578125  13.712890625 12.19921875  Z M 15.8600260416667 4.482421875  C 16.6200086805555 5.861328125  17 7.3671875  17 9  C 17 10.6328125  16.6200086805555 12.138671875  15.8600260416667 13.517578125  C 15.1000434027778 14.896484375  14.0689019097222 15.98828125  12.7666015625 16.79296875  C 11.4643012152778 17.59765625  10.0421006944445 18  8.5 18  C 6.95789930555554 18  5.53569878472223 17.59765625  4.2333984375 16.79296875  C 2.93109809027777 15.98828125  1.89995659722223 14.896484375  1.13997395833331 13.517578125  C 0.379991319444457 12.138671875  0 10.6328125  0 9  C 0 7.3671875  0.379991319444457 5.861328125  1.13997395833331 4.482421875  C 1.89995659722223 3.103515625  2.93109809027777 2.01171875  4.2333984375 1.20703125  C 5.53569878472223 0.40234375  6.95789930555554 0  8.5 0  C 10.0421006944445 0  11.4643012152778 0.40234375  12.7666015625 1.20703125  C 14.0689019097222 2.01171875  15.1000434027778 3.103515625  15.8600260416667 4.482421875  Z " fill-rule="nonzero" fill="#000000" stroke="none" transform="matrix(1 0 0 1 215 151 )" />
  </g>
</svg>