<?xml version="1.0" encoding="utf-8"?>
<svg version="1.1" xmlns:xlink="http://www.w3.org/1999/xlink" width="12px" height="12px" viewBox="325 167  12 12" xmlns="http://www.w3.org/2000/svg">
  <path d="M 331 167  C 334.36 167  337 169.64  337 173  C 337 176.36  334.36 179  331 179  C 327.64 179  325 176.36  325 173  C 325 169.64  327.64 167  331 167  Z " fill-rule="nonzero" fill="#ffffff" stroke="none" />
  <path d="M 331 167.5  C 334.08 167.5  336.5 169.92  336.5 173  C 336.5 176.08  334.08 178.5  331 178.5  C 327.92 178.5  325.5 176.08  325.5 173  C 325.5 169.92  327.92 167.5  331 167.5  Z " stroke-width="1" stroke="#797979" fill="none" />
  <path d="M 331 176  C 329.32 176  328 174.68  328 173  C 328 171.32  329.32 170  331 170  C 332.68 170  334 171.32  334 173  C 334 174.68  332.68 176  331 176  " fill-rule="nonzero" fill="#797979" stroke="none" />
</svg>