<svg class="icon" viewBox="0 0 1024 1024" version="1.1" xmlns="http://www.w3.org/2000/svg" p-id="6957" height="128" width="128"><path d="M128.13 255.96h767.89c23.56 0 42.66-19.1 42.66-42.66s-19.1-42.66-42.66-42.66H128.13c-23.56 0-42.66 19.1-42.66 42.66s19.1 42.66 42.66 42.66zM896.02 469.27H128.13c-23.56 0-42.66 19.1-42.66 42.66 0 23.56 19.1 42.66 42.66 42.66h767.89c23.56 0 42.66-19.1 42.66-42.66 0-23.56-19.1-42.66-42.66-42.66zM896.02 767.89H128.13c-23.56 0-42.66 19.1-42.66 42.66 0 23.56 19.1 42.66 42.66 42.66h767.89c23.56 0 42.66-19.1 42.66-42.66 0-23.56-19.1-42.66-42.66-42.66z" fill="#1A1A1A" p-id="6958"></path></svg>