<?xml version="1.0" encoding="utf-8"?>
<svg version="1.1" xmlns:xlink="http://www.w3.org/1999/xlink" width="12px" height="12px" viewBox="163 289  12 12" xmlns="http://www.w3.org/2000/svg">
  <path d="M 169 289  C 172.36 289  175 291.64  175 295  C 175 298.36  172.36 301  169 301  C 165.64 301  163 298.36  163 295  C 163 291.64  165.64 289  169 289  Z " fill-rule="nonzero" fill="#ffffff" stroke="none" />
  <path d="M 169 289.5  C 172.08 289.5  174.5 291.92  174.5 295  C 174.5 298.08  172.08 300.5  169 300.5  C 165.92 300.5  163.5 298.08  163.5 295  C 163.5 291.92  165.92 289.5  169 289.5  Z " stroke-width="1" stroke="#797979" fill="none" />
  <path d="M 169 298  C 167.32 298  166 296.68  166 295  C 166 293.32  167.32 292  169 292  C 170.68 292  172 293.32  172 295  C 172 296.68  170.68 298  169 298  " fill-rule="nonzero" fill="#797979" stroke="none" />
</svg>