<?xml version="1.0" encoding="utf-8"?>
<svg version="1.1" xmlns:xlink="http://www.w3.org/1999/xlink" width="26px" height="29px" xmlns="http://www.w3.org/2000/svg">
  <g transform="matrix(1 0 0 1 -383 -686 )">
    <path d="M 7.90833333333333 5.890625  C 8.41388888888889 6.59548611111111  8.66666666666667 7.45138888888888  8.66666666666667 8.45833333333333  C 8.66666666666667 9.46527777777778  8.41388888888889 10.3211805555556  7.90833333333333 11.0260416666667  C 7.40277777777778 11.7309027777778  6.78888888888889 12.0833333333333  6.06666666666667 12.0833333333333  C 5.34444444444445 12.0833333333333  4.73055555555556 11.7309027777778  4.225 11.0260416666667  C 3.71944444444445 10.3211805555556  3.46666666666667 9.46527777777778  3.46666666666667 8.45833333333333  C 3.46666666666667 7.45138888888888  3.71944444444445 6.59548611111111  4.225 5.890625  C 4.73055555555556 5.18576388888888  5.34444444444445 4.83333333333333  6.06666666666667 4.83333333333333  C 6.78888888888889 4.83333333333333  7.40277777777778 5.18576388888888  7.90833333333333 5.890625  Z M 16.9 7.85416666666667  L 22.5333333333333 15.7083333333333  L 22.5333333333333 24  L 3.46666666666667 24  L 3.46666666666667 20.5416666666667  L 7.8 14.5  L 9.96666666666667 17.5208333333333  L 16.9 7.85416666666667  Z M 24.1380208333333 2.59602864583333  C 24.0522569444444 2.47645399305555  23.9506944444444 2.41666666666667  23.8333333333333 2.41666666666667  L 2.16666666666667 2.41666666666667  C 2.04930555555556 2.41666666666667  1.94774305555556 2.47645399305555  1.86197916666667 2.59602864583333  C 1.77621527777778 2.71560329861111  1.73333333333333 2.85720486111111  2 3.02083333333333  L 2 25.9791666666667  C 1.73333333333333 26.1427951388889  1.77621527777778 26.2843967013889  1.86197916666667 26.4039713541667  C 1.94774305555556 26.5235460069444  2.04930555555556 26.5833333333333  2.16666666666667 26.5833333333333  L 23.8333333333333 26.5833333333333  C 23.9506944444444 26.5833333333333  24.0522569444444 26.5235460069444  24.1380208333333 26.4039713541667  C 24.2237847222222 26.2843967013889  24.2666666666667 26.1427951388889  24 25.9791666666667  L 24 3.02083333333333  C 24.2666666666667 2.85720486111111  24.2237847222222 2.71560329861111  24.1380208333333 2.59602864583333  Z M 25.3635416666667 0.887369791666668  C 25.7878472222222 1.47894965277778  26 2.19010416666667  26 3.02083333333333  L 26 25.9791666666667  C 26 26.8098958333333  25.7878472222222 27.5210503472222  25.3635416666667 28.1126302083333  C 24.9392361111111 28.7042100694444  24.4291666666667 29  23.8333333333333 29  L 2.16666666666667 29  C 1.57083333333333 29  1.06076388888889 28.7042100694444  0.636458333333333 28.1126302083333  C 0.212152777777778 27.5210503472222  0 26.8098958333333  0 25.9791666666667  L 0 3.02083333333333  C 0 2.19010416666667  0.212152777777778 1.47894965277778  0.636458333333333 0.887369791666668  C 1.06076388888889 0.295789930555553  1.57083333333333 0  2.16666666666667 0  L 23.8333333333333 0  C 24.4291666666667 0  24.9392361111111 0.295789930555553  25.3635416666667 0.887369791666668  Z " fill-rule="nonzero" fill="#000000" stroke="none" transform="matrix(1 0 0 1 383 686 )" />
  </g>
</svg>