<?xml version="1.0" encoding="utf-8"?>
<svg version="1.1" xmlns:xlink="http://www.w3.org/1999/xlink" width="29px" height="29px" xmlns="http://www.w3.org/2000/svg">
  <g transform="matrix(1 0 0 1 -557 -686 )">
    <path d="M 11.4263020833333 13.1841947115385  C 12.2771701388889 12.2024238782051  13.3017361111111 11.7115384615385  14.5 11.7115384615385  C 15.6982638888889 11.7115384615385  16.7228298611111 12.2024238782051  17.5736979166667 13.1841947115385  C 18.4245659722222 14.1659655448718  18.85 15.348157051282  18.85 16.7307692307692  C 18.85 18.1133814102564  18.4245659722222 19.2955729166667  17.5736979166667 20.27734375  C 16.7228298611111 21.2591145833333  15.6982638888889 21.75  14.5 21.75  C 13.3017361111111 21.75  12.2771701388889 21.2591145833333  11.4263020833333 20.27734375  C 10.5754340277778 19.2955729166667  10.15 18.1133814102564  10.15 16.7307692307692  C 10.15 15.348157051282  10.5754340277778 14.1659655448718  11.4263020833333 13.1841947115385  Z M 21.75 4.46153846153846  L 25.1333333333333 4.46153846153846  C 26.2006944444444 4.46153846153846  27.1119791666667 4.89723557692308  27.8671875 5.76862980769231  C 28.6223958333333 6.64002403846154  29 7.69150641025641  29 8.92307692307692  L 29 24.5384615384615  C 29 25.7700320512821  28.6223958333333 26.8215144230769  27.8671875 27.6929086538462  C 27.1119791666667 28.5643028846154  26.2006944444444 29  25.1333333333333 29  L 3.86666666666667 29  C 2.79930555555556 29  1.88802083333333 28.5643028846154  1.1328125 27.6929086538462  C 0.377604166666667 26.8215144230769  0 25.7700320512821  0 24.5384615384615  L 0 8.92307692307692  C 0 7.69150641025641  0.377604166666667 6.64002403846154  1.1328125 5.76862980769231  C 1.88802083333333 4.89723557692308  2.79930555555556 4.46153846153846  3.86666666666667 4.46153846153846  L 7.25 4.46153846153846  L 8.0203125 2.09134615384615  C 8.21163194444445 1.52203525641026  8.56154513888889 1.03114983974359  9.07005208333333 0.618689903846153  C 9.57855902777778 0.206229967948721  10.0996527777778 0  10.6333333333333 0  L 18.3666666666667 0  C 18.9003472222222 0  19.4214409722222 0.206229967948721  19.9299479166667 0.618689903846153  C 20.4384548611111 1.03114983974359  20.7883680555556 1.52203525641026  20.9796875 2.09134615384615  L 21.75 4.46153846153846  Z M 9.71953125 22.2466947115385  C 11.0436631944444 23.7745392628205  12.6371527777778 24.5384615384615  14.5 24.5384615384615  C 16.3628472222222 24.5384615384615  17.9563368055556 23.7745392628205  19.28046875 22.2466947115385  C 20.6046006944444 20.7188501602564  21.2666666666667 18.8802083333333  21.2666666666667 16.7307692307692  C 21.2666666666667 14.5813301282051  20.6046006944444 12.742688301282  19.28046875 11.21484375  C 17.9563368055556 9.68699919871795  16.3628472222222 8.92307692307692  14.5 8.92307692307692  C 12.6371527777778 8.92307692307692  11.0436631944444 9.68699919871795  9.71953125 11.21484375  C 8.39539930555556 12.742688301282  7.73333333333333 14.5813301282051  7.73333333333333 16.7307692307692  C 7.73333333333333 18.8802083333333  8.39539930555556 20.7188501602564  9.71953125 22.2466947115385  Z " fill-rule="nonzero" fill="#000000" stroke="none" transform="matrix(1 0 0 1 557 686 )" />
  </g>
</svg>