<?xml version="1.0" encoding="utf-8"?>
<svg version="1.1" xmlns:xlink="http://www.w3.org/1999/xlink" width="12px" height="12px" viewBox="453 344  12 12" xmlns="http://www.w3.org/2000/svg">
  <path d="M 459 344  C 462.36 344  465 346.64  465 350  C 465 353.36  462.36 356  459 356  C 455.64 356  453 353.36  453 350  C 453 346.64  455.64 344  459 344  Z " fill-rule="nonzero" fill="#ffffff" stroke="none" />
  <path d="M 459 344.5  C 462.08 344.5  464.5 346.92  464.5 350  C 464.5 353.08  462.08 355.5  459 355.5  C 455.92 355.5  453.5 353.08  453.5 350  C 453.5 346.92  455.92 344.5  459 344.5  Z " stroke-width="1" stroke="#797979" fill="none" />
  <path d="M 459 353  C 457.32 353  456 351.68  456 350  C 456 348.32  457.32 347  459 347  C 460.68 347  462 348.32  462 350  C 462 351.68  460.68 353  459 353  " fill-rule="nonzero" fill="#797979" stroke="none" />
</svg>