<?xml version="1.0" encoding="utf-8"?>
<svg version="1.1" xmlns:xlink="http://www.w3.org/1999/xlink" width="12px" height="12px" viewBox="220 344  12 12" xmlns="http://www.w3.org/2000/svg">
  <path d="M 226 344  C 229.36 344  232 346.64  232 350  C 232 353.36  229.36 356  226 356  C 222.64 356  220 353.36  220 350  C 220 346.64  222.64 344  226 344  Z " fill-rule="nonzero" fill="#ffffff" stroke="none" />
  <path d="M 226 344.5  C 229.08 344.5  231.5 346.92  231.5 350  C 231.5 353.08  229.08 355.5  226 355.5  C 222.92 355.5  220.5 353.08  220.5 350  C 220.5 346.92  222.92 344.5  226 344.5  Z " stroke-width="1" stroke="#797979" fill="none" />
  <path d="M 226 353  C 224.32 353  223 351.68  223 350  C 223 348.32  224.32 347  226 347  C 227.68 347  229 348.32  229 350  C 229 351.68  227.68 353  226 353  " fill-rule="nonzero" fill="#797979" stroke="none" />
</svg>