<?xml version="1.0" encoding="utf-8"?>
<svg version="1.1" xmlns:xlink="http://www.w3.org/1999/xlink" width="12px" height="12px" viewBox="317 231  12 12" xmlns="http://www.w3.org/2000/svg">
  <path d="M 323 231  C 326.36 231  329 233.64  329 237  C 329 240.36  326.36 243  323 243  C 319.64 243  317 240.36  317 237  C 317 233.64  319.64 231  323 231  Z " fill-rule="nonzero" fill="#ffffff" stroke="none" />
  <path d="M 323 231.5  C 326.08 231.5  328.5 233.92  328.5 237  C 328.5 240.08  326.08 242.5  323 242.5  C 319.92 242.5  317.5 240.08  317.5 237  C 317.5 233.92  319.92 231.5  323 231.5  Z " stroke-width="1" stroke="#797979" fill="none" />
  <path d="M 323 240  C 321.32 240  320 238.68  320 237  C 320 235.32  321.32 234  323 234  C 324.68 234  326 235.32  326 237  C 326 238.68  324.68 240  323 240  " fill-rule="nonzero" fill="#797979" stroke="none" />
</svg>