<?xml version="1.0" encoding="utf-8"?>
<svg version="1.1" xmlns:xlink="http://www.w3.org/1999/xlink" width="12px" height="12px" viewBox="582 344  12 12" xmlns="http://www.w3.org/2000/svg">
  <path d="M 588 344  C 591.36 344  594 346.64  594 350  C 594 353.36  591.36 356  588 356  C 584.64 356  582 353.36  582 350  C 582 346.64  584.64 344  588 344  Z " fill-rule="nonzero" fill="#ffffff" stroke="none" />
  <path d="M 588 344.5  C 591.08 344.5  593.5 346.92  593.5 350  C 593.5 353.08  591.08 355.5  588 355.5  C 584.92 355.5  582.5 353.08  582.5 350  C 582.5 346.92  584.92 344.5  588 344.5  Z " stroke-width="1" stroke="#797979" fill="none" />
  <path d="M 588 353  C 586.32 353  585 351.68  585 350  C 585 348.32  586.32 347  588 347  C 589.68 347  591 348.32  591 350  C 591 351.68  589.68 353  588 353  " fill-rule="nonzero" fill="#797979" stroke="none" />
</svg>