<?xml version="1.0" encoding="utf-8"?>
<svg version="1.1" xmlns:xlink="http://www.w3.org/1999/xlink" width="12px" height="12px" viewBox="320 344  12 12" xmlns="http://www.w3.org/2000/svg">
  <path d="M 326 344  C 329.36 344  332 346.64  332 350  C 332 353.36  329.36 356  326 356  C 322.64 356  320 353.36  320 350  C 320 346.64  322.64 344  326 344  Z " fill-rule="nonzero" fill="#ffffff" stroke="none" />
  <path d="M 326 344.5  C 329.08 344.5  331.5 346.92  331.5 350  C 331.5 353.08  329.08 355.5  326 355.5  C 322.92 355.5  320.5 353.08  320.5 350  C 320.5 346.92  322.92 344.5  326 344.5  Z " stroke-width="1" stroke="#797979" fill="none" />
  <path d="M 326 353  C 324.32 353  323 351.68  323 350  C 323 348.32  324.32 347  326 347  C 327.68 347  329 348.32  329 350  C 329 351.68  327.68 353  326 353  " fill-rule="nonzero" fill="#797979" stroke="none" />
</svg>