<?xml version="1.0" encoding="utf-8"?>
<svg version="1.1" xmlns:xlink="http://www.w3.org/1999/xlink" width="12px" height="12px" viewBox="280 373  12 12" xmlns="http://www.w3.org/2000/svg">
  <path d="M 286 373  C 289.36 373  292 375.64  292 379  C 292 382.36  289.36 385  286 385  C 282.64 385  280 382.36  280 379  C 280 375.64  282.64 373  286 373  Z " fill-rule="nonzero" fill="#ffffff" stroke="none" />
  <path d="M 286 373.5  C 289.08 373.5  291.5 375.92  291.5 379  C 291.5 382.08  289.08 384.5  286 384.5  C 282.92 384.5  280.5 382.08  280.5 379  C 280.5 375.92  282.92 373.5  286 373.5  Z " stroke-width="1" stroke="#797979" fill="none" />
  <path d="M 286 382  C 284.32 382  283 380.68  283 379  C 283 377.32  284.32 376  286 376  C 287.68 376  289 377.32  289 379  C 289 380.68  287.68 382  286 382  " fill-rule="nonzero" fill="#797979" stroke="none" />
</svg>