<?xml version="1.0" encoding="utf-8"?>
<svg version="1.1" xmlns:xlink="http://www.w3.org/1999/xlink" width="12px" height="10px" xmlns="http://www.w3.org/2000/svg">
  <g transform="matrix(1 0 0 1 -634 -270 )">
    <path d="M 11.8797595190381 1.03092783505155  C 11.9599198396794 1.14547537227949  12 1.27720504009164  12 1.42611683848797  C 12 1.57502863688431  11.9599198396794 1.70675830469645  11.8797595190381 1.8213058419244  L 6.27655310621242 9.82817869415807  C 6.19639278557114 9.94272623138602  6.10420841683367 10  6 10  C 5.89579158316633 10  5.80360721442886 9.94272623138602  5.72344689378757 9.82817869415807  L 0.120240480961924 1.8213058419244  C 0.0400801603206414 1.70675830469645  0 1.57502863688431  0 1.42611683848797  C 0 1.27720504009164  0.0400801603206414 1.14547537227949  0.120240480961924 1.03092783505155  L 0.721442885771543 0.171821305841925  C 0.801603206412826 0.0572737686139735  0.893787575150301 0  0.997995991983968 0  C 1.10220440881764 0  1.19438877755511 0.0572737686139735  1.27454909819639 0.171821305841925  L 6 6.92439862542955  L 10.7254509018036 0.171821305841925  C 10.8056112224449 0.0572737686139735  10.8977955911824 0  11.002004008016 0  C 11.1062124248497 0  11.1983967935872 0.0572737686139735  11.2785571142285 0.171821305841925  L 11.8797595190381 1.03092783505155  Z " fill-rule="nonzero" fill="#434343" stroke="none" transform="matrix(1 0 0 1 634 270 )" />
  </g>
</svg>