<?xml version="1.0" encoding="utf-8"?>
<svg version="1.1" xmlns:xlink="http://www.w3.org/1999/xlink" width="1108px" height="793px" xmlns="http://www.w3.org/2000/svg">
  <defs>
    <mask fill="white" id="clip1994">
      <path d="M 0 698.063829787234  L 0 64.936170212766  C 0 28.5719148936171  11.2933333333333 0  25.6666666666667 0  L 709.041666666667 0  L 1052.33333333333 0  C 1066.70666666667 0  1078 28.5719148936171  1078 64.936170212766  L 1078 178.574468085106  L 1078 698.063829787234  C 1078 734.428085106383  1066.70666666667 763  1052.33333333333 763  L 25.6666666666667 763  C 11.2933333333333 763  0 734.428085106383  0 698.063829787234  Z " fill-rule="evenodd" />
    </mask>
    <filter x="-3px" y="48px" width="1108px" height="793px" filterUnits="userSpaceOnUse" id="filter1995">
      <feOffset dx="2" dy="2" in="SourceAlpha" result="shadowOffsetInner" />
      <feGaussianBlur stdDeviation="7.5" in="shadowOffsetInner" result="shadowGaussian" />
      <feComposite in2="shadowGaussian" operator="atop" in="SourceAlpha" result="shadowComposite" />
      <feColorMatrix type="matrix" values="0 0 0 0 0.6  0 0 0 0 0.6  0 0 0 0 0.6  0 0 0 0.149019607843137 0  " in="shadowComposite" />
    </filter>
    <g id="widget1996">
      <path d="M 0 698.063829787234  L 0 64.936170212766  C 0 28.5719148936171  11.2933333333333 0  25.6666666666667 0  L 709.041666666667 0  L 1052.33333333333 0  C 1066.70666666667 0  1078 28.5719148936171  1078 64.936170212766  L 1078 178.574468085106  L 1078 698.063829787234  C 1078 734.428085106383  1066.70666666667 763  1052.33333333333 763  L 25.6666666666667 763  C 11.2933333333333 763  0 734.428085106383  0 698.063829787234  Z " fill-rule="nonzero" fill="#ffffff" stroke="none" transform="matrix(1 0 0 1 10 61 )" />
      <path d="M 0 698.063829787234  L 0 64.936170212766  C 0 28.5719148936171  11.2933333333333 0  25.6666666666667 0  L 709.041666666667 0  L 1052.33333333333 0  C 1066.70666666667 0  1078 28.5719148936171  1078 64.936170212766  L 1078 178.574468085106  L 1078 698.063829787234  C 1078 734.428085106383  1066.70666666667 763  1052.33333333333 763  L 25.6666666666667 763  C 11.2933333333333 763  0 734.428085106383  0 698.063829787234  Z " stroke-width="4" stroke="#f2f2f2" fill="none" transform="matrix(1 0 0 1 10 61 )" mask="url(#clip1994)" />
    </g>
  </defs>
  <g transform="matrix(1 0 0 1 3 -48 )">
    <use xlink:href="#widget1996" filter="url(#filter1995)" />
    <use xlink:href="#widget1996" />
  </g>
</svg>