<?xml version="1.0" encoding="utf-8"?>
<svg version="1.1" xmlns:xlink="http://www.w3.org/1999/xlink" width="12px" height="12px" viewBox="238 604  12 12" xmlns="http://www.w3.org/2000/svg">
  <path d="M 244 604  C 247.36 604  250 606.64  250 610  C 250 613.36  247.36 616  244 616  C 240.64 616  238 613.36  238 610  C 238 606.64  240.64 604  244 604  Z " fill-rule="nonzero" fill="#ffffff" stroke="none" />
  <path d="M 244 604.5  C 247.08 604.5  249.5 606.92  249.5 610  C 249.5 613.08  247.08 615.5  244 615.5  C 240.92 615.5  238.5 613.08  238.5 610  C 238.5 606.92  240.92 604.5  244 604.5  Z " stroke-width="1" stroke="#797979" fill="none" />
  <path d="M 244 613  C 242.32 613  241 611.68  241 610  C 241 608.32  242.32 607  244 607  C 245.68 607  247 608.32  247 610  C 247 611.68  245.68 613  244 613  " fill-rule="nonzero" fill="#797979" stroke="none" />
</svg>