<?xml version="1.0" encoding="utf-8"?>
<svg version="1.1" xmlns:xlink="http://www.w3.org/1999/xlink" width="17px" height="6px" xmlns="http://www.w3.org/2000/svg">
  <g transform="matrix(1 0 0 1 -332 -171 )">
    <path d="M 16.8296593186373 0.618556701030928  C 16.9432197728791 0.687285223367696  17 0.766323024054982  17 0.855670103092784  C 17 0.945017182130584  16.9432197728791 1.02405498281787  16.8296593186373 1.09278350515464  L 8.89178356713427 5.89690721649484  C 8.77822311289245 5.96563573883161  8.64762859051436 6  8.5 6  C 8.35237140948564 6  8.22177688710755 5.96563573883161  8.10821643286573 5.89690721649484  L 0.170340681362725 1.09278350515464  C 0.0567802271209086 1.02405498281787  0 0.945017182130584  0 0.855670103092784  C 0 0.766323024054982  0.0567802271209086 0.687285223367696  0.170340681362725 0.618556701030928  L 1.02204408817635 0.103092783505155  C 1.13560454241817 0.0343642611683841  1.26619906479626 0  1.41382765531062 0  C 1.56145624582498 0  1.69205076820307 0.0343642611683841  1.80561122244489 0.103092783505155  L 8.5 4.15463917525773  L 15.1943887775551 0.103092783505155  C 15.3079492317969 0.0343642611683841  15.438543754175 0  15.5861723446894 0  C 15.7338009352037 0  15.8643954575818 0.0343642611683841  15.9779559118236 0.103092783505155  L 16.8296593186373 0.618556701030928  Z " fill-rule="nonzero" fill="#a1a1a1" stroke="none" transform="matrix(1 0 0 1 332 171 )" />
  </g>
</svg>