<?xml version="1.0" encoding="utf-8"?>
<svg version="1.1" xmlns:xlink="http://www.w3.org/1999/xlink" width="12px" height="12px" viewBox="124 291  12 12" xmlns="http://www.w3.org/2000/svg">
  <path d="M 130 291  C 133.36 291  136 293.64  136 297  C 136 300.36  133.36 303  130 303  C 126.64 303  124 300.36  124 297  C 124 293.64  126.64 291  130 291  Z " fill-rule="nonzero" fill="#ffffff" stroke="none" />
  <path d="M 130 291.5  C 133.08 291.5  135.5 293.92  135.5 297  C 135.5 300.08  133.08 302.5  130 302.5  C 126.92 302.5  124.5 300.08  124.5 297  C 124.5 293.92  126.92 291.5  130 291.5  Z " stroke-width="1" stroke="#797979" fill="none" />
  <path d="M 130 300  C 128.32 300  127 298.68  127 297  C 127 295.32  128.32 294  130 294  C 131.68 294  133 295.32  133 297  C 133 298.68  131.68 300  130 300  " fill-rule="nonzero" fill="#797979" stroke="none" />
</svg>