<?xml version="1.0" encoding="utf-8"?>
<svg version="1.1" xmlns:xlink="http://www.w3.org/1999/xlink" width="12px" height="12px" viewBox="137 260  12 12" xmlns="http://www.w3.org/2000/svg">
  <path d="M 143 260  C 146.36 260  149 262.64  149 266  C 149 269.36  146.36 272  143 272  C 139.64 272  137 269.36  137 266  C 137 262.64  139.64 260  143 260  Z " fill-rule="nonzero" fill="#ffffff" stroke="none" />
  <path d="M 143 260.5  C 146.08 260.5  148.5 262.92  148.5 266  C 148.5 269.08  146.08 271.5  143 271.5  C 139.92 271.5  137.5 269.08  137.5 266  C 137.5 262.92  139.92 260.5  143 260.5  Z " stroke-width="1" stroke="#797979" fill="none" />
  <path d="M 143 269  C 141.32 269  140 267.68  140 266  C 140 264.32  141.32 263  143 263  C 144.68 263  146 264.32  146 266  C 146 267.68  144.68 269  143 269  " fill-rule="nonzero" fill="#797979" stroke="none" />
</svg>