<?xml version="1.0" encoding="utf-8"?>
<svg version="1.1" xmlns:xlink="http://www.w3.org/1999/xlink" width="12px" height="12px" viewBox="187 731  12 12" xmlns="http://www.w3.org/2000/svg">
  <path d="M 193 731  C 196.36 731  199 733.64  199 737  C 199 740.36  196.36 743  193 743  C 189.64 743  187 740.36  187 737  C 187 733.64  189.64 731  193 731  Z " fill-rule="nonzero" fill="#ffffff" stroke="none" />
  <path d="M 193 731.5  C 196.08 731.5  198.5 733.92  198.5 737  C 198.5 740.08  196.08 742.5  193 742.5  C 189.92 742.5  187.5 740.08  187.5 737  C 187.5 733.92  189.92 731.5  193 731.5  Z " stroke-width="1" stroke="#797979" fill="none" />
  <path d="M 193 740  C 191.32 740  190 738.68  190 737  C 190 735.32  191.32 734  193 734  C 194.68 734  196 735.32  196 737  C 196 738.68  194.68 740  193 740  " fill-rule="nonzero" fill="#797979" stroke="none" />
</svg>