<?xml version="1.0" encoding="utf-8"?>
<svg version="1.1" xmlns:xlink="http://www.w3.org/1999/xlink" width="12px" height="12px" viewBox="219 313  12 12" xmlns="http://www.w3.org/2000/svg">
  <path d="M 225 313  C 228.36 313  231 315.64  231 319  C 231 322.36  228.36 325  225 325  C 221.64 325  219 322.36  219 319  C 219 315.64  221.64 313  225 313  Z " fill-rule="nonzero" fill="#ffffff" stroke="none" />
  <path d="M 225 313.5  C 228.08 313.5  230.5 315.92  230.5 319  C 230.5 322.08  228.08 324.5  225 324.5  C 221.92 324.5  219.5 322.08  219.5 319  C 219.5 315.92  221.92 313.5  225 313.5  Z " stroke-width="1" stroke="#797979" fill="none" />
  <path d="M 225 322  C 223.32 322  222 320.68  222 319  C 222 317.32  223.32 316  225 316  C 226.68 316  228 317.32  228 319  C 228 320.68  226.68 322  225 322  " fill-rule="nonzero" fill="#797979" stroke="none" />
</svg>