<?xml version="1.0" encoding="utf-8"?>
<svg version="1.1" xmlns:xlink="http://www.w3.org/1999/xlink" width="12px" height="12px" viewBox="1133 591  12 12" xmlns="http://www.w3.org/2000/svg">
  <path d="M 1139 591  C 1142.36 591  1145 593.64  1145 597  C 1145 600.36  1142.36 603  1139 603  C 1135.64 603  1133 600.36  1133 597  C 1133 593.64  1135.64 591  1139 591  Z " fill-rule="nonzero" fill="#ffffff" stroke="none" />
  <path d="M 1139 591.5  C 1142.08 591.5  1144.5 593.92  1144.5 597  C 1144.5 600.08  1142.08 602.5  1139 602.5  C 1135.92 602.5  1133.5 600.08  1133.5 597  C 1133.5 593.92  1135.92 591.5  1139 591.5  Z " stroke-width="1" stroke="#797979" fill="none" />
  <path d="M 1139 600  C 1137.32 600  1136 598.68  1136 597  C 1136 595.32  1137.32 594  1139 594  C 1140.68 594  1142 595.32  1142 597  C 1142 598.68  1140.68 600  1139 600  " fill-rule="nonzero" fill="#797979" stroke="none" />
</svg>