<?xml version="1.0" encoding="utf-8"?>
<svg version="1.1" xmlns:xlink="http://www.w3.org/1999/xlink" width="12px" height="12px" viewBox="273 225.5  12 12" xmlns="http://www.w3.org/2000/svg">
  <path d="M 279 225.5  C 282.36 225.5  285 228.14  285 231.5  C 285 234.86  282.36 237.5  279 237.5  C 275.64 237.5  273 234.86  273 231.5  C 273 228.14  275.64 225.5  279 225.5  Z " fill-rule="nonzero" fill="#ffffff" stroke="none" />
  <path d="M 279 226  C 282.08 226  284.5 228.42  284.5 231.5  C 284.5 234.58  282.08 237  279 237  C 275.92 237  273.5 234.58  273.5 231.5  C 273.5 228.42  275.92 226  279 226  Z " stroke-width="1" stroke="#797979" fill="none" />
  <path d="M 279 234.5  C 277.32 234.5  276 233.18  276 231.5  C 276 229.82  277.32 228.5  279 228.5  C 280.68 228.5  282 229.82  282 231.5  C 282 233.18  280.68 234.5  279 234.5  " fill-rule="nonzero" fill="#797979" stroke="none" />
</svg>