<?xml version="1.0" encoding="utf-8"?>
<svg version="1.1" xmlns:xlink="http://www.w3.org/1999/xlink" width="70px" height="54px" xmlns="http://www.w3.org/2000/svg">
  <g transform="matrix(1 0 0 1 -453 -2265 )">
    <path d="M 18.9453125 29.8024553571429  L 8.4375 35.2265625  L 32 47.3404017857143  L 32 36.5223214285714  L 18.9453125 29.8024553571429  Z M 6.015625 23.1127232142857  L 6.015625 30.8872767857143  L 13.5546875 27  L 6.015625 23.1127232142857  Z M 38 36.5223214285714  L 38 47.3404017857143  L 61.5625 35.2265625  L 51.0546875 29.8024553571429  L 38 36.5223214285714  Z M 24.375 27  L 35 32.484375  L 45.625 27  L 35 21.515625  L 24.375 27  Z M 8.4375 18.7734375  L 18.9453125 24.1975446428571  L 32 17.4776785714286  L 32 6.65959821428572  L 8.4375 18.7734375  Z M 63.984375 23.1127232142857  L 56.4453125 27  L 63.984375 30.8872767857143  L 63.984375 23.1127232142857  Z M 38 17.4776785714286  L 51.0546875 24.1975446428571  L 61.5625 18.7734375  L 38 6.65959821428572  L 38 17.4776785714286  Z M 68.671875 16.8448660714286  C 69.5572916666667 17.3069196428571  70 17.9497767857143  70 18.7734375  L 70 35.2265625  C 70 36.0502232142857  69.5572916666667 36.6930803571429  68.671875 37.1551339285714  L 36.6796875 53.6082589285714  C 36.1328125 53.8694196428571  35.5729166666667 54  35 54  C 34.4270833333333 54  33.8671875 53.8694196428571  33.3203125 53.6082589285714  L 1.328125 37.1551339285714  C 0.442708333333333 36.6930803571429  0 36.0502232142857  0 35.2265625  L 0 18.7734375  C 0 17.9497767857143  0.442708333333333 17.3069196428571  1.328125 16.8448660714286  L 33.3203125 0.391741071428572  C 33.8671875 0.130580357142863  34.4270833333333 0  35 0  C 35.5729166666667 0  36.1328125 0.130580357142863  36.6796875 0.391741071428572  L 68.671875 16.8448660714286  Z " fill-rule="nonzero" fill="#d7d7d7" stroke="none" transform="matrix(1 0 0 1 453 2265 )" />
  </g>
</svg>