<?xml version="1.0" encoding="utf-8"?>
<svg version="1.1" xmlns:xlink="http://www.w3.org/1999/xlink" width="83px" height="65px" xmlns="http://www.w3.org/2000/svg">
  <g transform="matrix(1 0 0 1 -519 -1516 )">
    <path d="M 22.4637276785714 35.8733258928571  L 10.0044642857143 42.40234375  L 38 56.9838169642857  L 38 43.9620535714286  L 22.4637276785714 35.8733258928571  Z M 7.1328125 27.8208705357143  L 7.1328125 37.1791294642857  L 16.0719866071429 32.5  L 7.1328125 27.8208705357143  Z M 45 43.9620535714286  L 45 56.9838169642857  L 72.9955357142857 42.40234375  L 60.5362723214286 35.8733258928571  L 45 43.9620535714286  Z M 28.9017857142857 32.5  L 41.5 39.1015625  L 54.0982142857143 32.5  L 41.5 25.8984375  L 28.9017857142857 32.5  Z M 10.0044642857143 22.59765625  L 22.4637276785714 29.1266741071429  L 38 21.0379464285714  L 38 8.01618303571429  L 10.0044642857143 22.59765625  Z M 75.8671875 27.8208705357143  L 66.9280133928571 32.5  L 75.8671875 37.1791294642857  L 75.8671875 27.8208705357143  Z M 45 21.0379464285714  L 60.5362723214286 29.1266741071429  L 72.9955357142857 22.59765625  L 45 8.01618303571429  L 45 21.0379464285714  Z M 81.4252232142857 20.2762276785714  C 82.4750744047619 20.8324032738095  83 21.606212797619  83 22.59765625  L 83 42.40234375  C 83 43.3937872023809  82.4750744047619 44.1675967261905  81.4252232142857 44.7237723214286  L 43.4916294642857 64.5284598214286  C 42.8431919642857 64.8428199404762  42.1793154761905 65  41.5 65  C 40.8206845238095 65  40.1568080357143 64.8428199404762  39.5083705357143 64.5284598214286  L 1.57477678571429 44.7237723214286  C 0.524925595238095 44.1675967261905  0 43.3937872023809  0 42.40234375  L 0 22.59765625  C 0 21.606212797619  0.524925595238095 20.8324032738095  1.57477678571429 20.2762276785714  L 39.5083705357143 0.47154017857143  C 40.1568080357143 0.157180059523817  40.8206845238095 0  41.5 0  C 42.1793154761905 0  42.8431919642857 0.157180059523817  43.4916294642857 0.47154017857143  L 81.4252232142857 20.2762276785714  Z " fill-rule="nonzero" fill="#d7d7d7" stroke="none" transform="matrix(1 0 0 1 519 1516 )" />
  </g>
</svg>