<?xml version="1.0" encoding="utf-8"?>
<svg version="1.1" xmlns:xlink="http://www.w3.org/1999/xlink" width="12px" height="12px" viewBox="212 742  12 12" xmlns="http://www.w3.org/2000/svg">
  <path d="M 218 742  C 221.36 742  224 744.64  224 748  C 224 751.36  221.36 754  218 754  C 214.64 754  212 751.36  212 748  C 212 744.64  214.64 742  218 742  Z " fill-rule="nonzero" fill="#ffffff" stroke="none" />
  <path d="M 218 742.5  C 221.08 742.5  223.5 744.92  223.5 748  C 223.5 751.08  221.08 753.5  218 753.5  C 214.92 753.5  212.5 751.08  212.5 748  C 212.5 744.92  214.92 742.5  218 742.5  Z " stroke-width="1" stroke="#797979" fill="none" />
  <path d="M 218 751  C 216.32 751  215 749.68  215 748  C 215 746.32  216.32 745  218 745  C 219.68 745  221 746.32  221 748  C 221 749.68  219.68 751  218 751  " fill-rule="nonzero" fill="#797979" stroke="none" />
</svg>