<?xml version="1.0" encoding="utf-8"?>
<svg version="1.1" xmlns:xlink="http://www.w3.org/1999/xlink" width="12px" height="12px" viewBox="146 594  12 12" xmlns="http://www.w3.org/2000/svg">
  <path d="M 152 594  C 155.36 594  158 596.64  158 600  C 158 603.36  155.36 606  152 606  C 148.64 606  146 603.36  146 600  C 146 596.64  148.64 594  152 594  Z " fill-rule="nonzero" fill="#ffffff" stroke="none" />
  <path d="M 152 594.5  C 155.08 594.5  157.5 596.92  157.5 600  C 157.5 603.08  155.08 605.5  152 605.5  C 148.92 605.5  146.5 603.08  146.5 600  C 146.5 596.92  148.92 594.5  152 594.5  Z " stroke-width="1" stroke="#797979" fill="none" />
  <path d="M 152 603  C 150.32 603  149 601.68  149 600  C 149 598.32  150.32 597  152 597  C 153.68 597  155 598.32  155 600  C 155 601.68  153.68 603  152 603  " fill-rule="nonzero" fill="#797979" stroke="none" />
</svg>