<?xml version="1.0" encoding="utf-8"?>
<svg version="1.1" xmlns:xlink="http://www.w3.org/1999/xlink" width="92px" height="50px" xmlns="http://www.w3.org/2000/svg">
  <g transform="matrix(1 0 0 1 -552 -1010 )">
    <path d="M 24.8995535714286 27.5948660714286  L 11.0892857142857 32.6171875  L 42 43.8337053571429  L 42 33.8169642857143  L 24.8995535714286 27.5948660714286  Z M 7.90625 21.4006696428571  L 7.90625 28.5993303571429  L 17.8147321428571 25  L 7.90625 21.4006696428571  Z M 50 33.8169642857143  L 50 43.8337053571429  L 80.9107142857143 32.6171875  L 67.1004464285714 27.5948660714286  L 50 33.8169642857143  Z M 32.0357142857143 25  L 46 30.078125  L 59.9642857142857 25  L 46 19.921875  L 32.0357142857143 25  Z M 11.0892857142857 17.3828125  L 24.8995535714286 22.4051339285714  L 42 16.1830357142857  L 42 6.16629464285715  L 11.0892857142857 17.3828125  Z M 84.09375 21.4006696428571  L 74.1852678571428 25  L 84.09375 28.5993303571429  L 84.09375 21.4006696428571  Z M 50 16.1830357142857  L 67.1004464285714 22.4051339285714  L 80.9107142857143 17.3828125  L 50 6.16629464285715  L 50 16.1830357142857  Z M 90.2544642857143 15.5970982142857  C 91.4181547619048 16.0249255952381  92 16.6201636904762  92 17.3828125  L 92 32.6171875  C 92 33.3798363095238  91.4181547619048 33.9750744047619  90.2544642857143 34.4029017857143  L 48.2075892857143 49.6372767857143  C 47.4888392857143 49.8790922619048  46.7529761904762 50  46 50  C 45.2470238095238 50  44.5111607142857 49.8790922619048  43.7924107142857 49.6372767857143  L 1.74553571428571 34.4029017857143  C 0.581845238095238 33.9750744047619  0 33.3798363095238  0 32.6171875  L 0 17.3828125  C 0 16.6201636904762  0.581845238095238 16.0249255952381  1.74553571428571 15.5970982142857  L 43.7924107142857 0.362723214285715  C 44.5111607142857 0.120907738095244  45.2470238095238 0  46 0  C 46.7529761904762 0  47.4888392857143 0.120907738095244  48.2075892857143 0.362723214285715  L 90.2544642857143 15.5970982142857  Z " fill-rule="nonzero" fill="#d7d7d7" stroke="none" transform="matrix(1 0 0 1 552 1010 )" />
  </g>
</svg>