<?xml version="1.0" encoding="utf-8"?>
<svg version="1.1" xmlns:xlink="http://www.w3.org/1999/xlink" width="13px" height="14px" xmlns="http://www.w3.org/2000/svg">
  <g transform="matrix(1 0 0 1 -1049 -1305 )">
    <path d="M 12.8621651785714 11.6434659090909  C 12.9540550595238 11.7694128787879  13 11.9185606060606  13 12.0909090909091  L 13 13.3636363636364  C 13 13.5359848484848  12.9540550595238 13.6851325757576  12.8621651785714 13.8110795454545  C 12.770275297619 13.9370265151515  12.6614583333333 14  12.5357142857143 14  L 0.464285714285714 14  C 0.338541666666667 14  0.229724702380952 13.9370265151515  0.137834821428571 13.8110795454545  C 0.0459449404761905 13.6851325757576  0 13.5359848484848  0 13.3636363636364  L 0 12.0909090909091  C 0 11.9185606060606  0.0459449404761905 11.7694128787879  0.137834821428571 11.6434659090909  C 0.229724702380952 11.5175189393939  0.338541666666667 11.4545454545455  0.464285714285714 11.4545454545455  L 12.5357142857143 11.4545454545455  C 12.6614583333333 11.4545454545455  12.770275297619 11.5175189393939  12.8621651785714 11.6434659090909  Z M 12.8621651785714 7.82528409090909  C 12.9540550595238 7.95123106060606  13 8.10037878787879  13 8.27272727272727  L 13 9.54545454545455  C 13 9.71780303030303  12.9540550595238 9.86695075757576  12.8621651785714 9.99289772727273  C 12.770275297619 10.1188446969697  12.6614583333333 10.1818181818182  12.5357142857143 10  L 0.464285714285714 10  C 0.338541666666667 10.1818181818182  0.229724702380952 10.1188446969697  0.137834821428571 9.99289772727273  C 0.0459449404761905 9.86695075757576  0 9.71780303030303  0 9.54545454545455  L 0 8.27272727272727  C 0 8.10037878787879  0.0459449404761905 7.95123106060606  0.137834821428571 7.82528409090909  C 0.229724702380952 7.69933712121212  0.338541666666667 7.63636363636364  0.464285714285714 7.63636363636364  L 12.5357142857143 7.63636363636364  C 12.6614583333333 7.63636363636364  12.770275297619 7.69933712121212  12.8621651785714 7.82528409090909  Z M 12.8621651785714 4.00710227272727  C 12.9540550595238 4.13304924242424  13 4.28219696969697  13 4.45454545454546  L 13 5.72727272727273  C 13 5.89962121212121  12.9540550595238 6.04876893939394  12.8621651785714 6.17471590909091  C 12.770275297619 6.30066287878788  12.6614583333333 6.36363636363636  12.5357142857143 6.36363636363636  L 0.464285714285714 6.36363636363636  C 0.338541666666667 6.36363636363636  0.229724702380952 6.30066287878788  0.137834821428571 6.17471590909091  C 0.0459449404761905 6.04876893939394  0 5.89962121212121  0 5.72727272727273  L 0 4.45454545454546  C 0 4.28219696969697  0.0459449404761905 4.13304924242424  0.137834821428571 4.00710227272727  C 0.229724702380952 3.8811553030303  0.338541666666667 3.81818181818182  0.464285714285714 4  L 12.5357142857143 4  C 12.6614583333333 3.81818181818182  12.770275297619 3.8811553030303  12.8621651785714 4.00710227272727  Z M 12.8621651785714 0.188920454545455  C 12.9540550595238 0.314867424242422  13 0.464015151515151  13 0.636363636363636  L 13 1.90909090909091  C 13 2.08143939393939  12.9540550595238 2.23058712121212  12.8621651785714 2.35653409090909  C 12.770275297619 2.48248106060606  12.6614583333333 2.54545454545455  12.5357142857143 2.54545454545455  L 0.464285714285714 2.54545454545455  C 0.338541666666667 2.54545454545455  0.229724702380952 2.48248106060606  0.137834821428571 2.35653409090909  C 0.0459449404761905 2.23058712121212  0 2.08143939393939  0 1.90909090909091  L 0 0.636363636363636  C 0 0.464015151515151  0.0459449404761905 0.314867424242422  0.137834821428571 0.188920454545455  C 0.229724702380952 0.0629734848484835  0.338541666666667 0  0.464285714285714 0  L 12.5357142857143 0  C 12.6614583333333 0  12.770275297619 0.0629734848484835  12.8621651785714 0.188920454545455  Z " fill-rule="nonzero" fill="#c9c9c9" stroke="none" transform="matrix(1 0 0 1 1049 1305 )" />
  </g>
</svg>