<?xml version="1.0" encoding="utf-8"?>
<svg version="1.1" xmlns:xlink="http://www.w3.org/1999/xlink" width="12px" height="12px" viewBox="202 1289  12 12" xmlns="http://www.w3.org/2000/svg">
  <path d="M 208 1289  C 211.36 1289  214 1291.64  214 1295  C 214 1298.36  211.36 1301  208 1301  C 204.64 1301  202 1298.36  202 1295  C 202 1291.64  204.64 1289  208 1289  Z " fill-rule="nonzero" fill="#ffffff" stroke="none" />
  <path d="M 208 1289.5  C 211.08 1289.5  213.5 1291.92  213.5 1295  C 213.5 1298.08  211.08 1300.5  208 1300.5  C 204.92 1300.5  202.5 1298.08  202.5 1295  C 202.5 1291.92  204.92 1289.5  208 1289.5  Z " stroke-width="1" stroke="#797979" fill="none" />
  <path d="M 208 1298  C 206.32 1298  205 1296.68  205 1295  C 205 1293.32  206.32 1292  208 1292  C 209.68 1292  211 1293.32  211 1295  C 211 1296.68  209.68 1298  208 1298  " fill-rule="nonzero" fill="#797979" stroke="none" />
</svg>