<?xml version="1.0" encoding="utf-8"?>
<svg version="1.1" xmlns:xlink="http://www.w3.org/1999/xlink" width="12px" height="12px" viewBox="783 422  12 12" xmlns="http://www.w3.org/2000/svg">
  <path d="M 789 422  C 792.36 422  795 424.64  795 428  C 795 431.36  792.36 434  789 434  C 785.64 434  783 431.36  783 428  C 783 424.64  785.64 422  789 422  Z " fill-rule="nonzero" fill="#ffffff" stroke="none" />
  <path d="M 789 422.5  C 792.08 422.5  794.5 424.92  794.5 428  C 794.5 431.08  792.08 433.5  789 433.5  C 785.92 433.5  783.5 431.08  783.5 428  C 783.5 424.92  785.92 422.5  789 422.5  Z " stroke-width="1" stroke="#797979" fill="none" />
  <path d="M 789 431  C 787.32 431  786 429.68  786 428  C 786 426.32  787.32 425  789 425  C 790.68 425  792 426.32  792 428  C 792 429.68  790.68 431  789 431  " fill-rule="nonzero" fill="#797979" stroke="none" />
</svg>