<?xml version="1.0" encoding="utf-8"?>
<svg version="1.1" xmlns:xlink="http://www.w3.org/1999/xlink" width="18px" height="20px" xmlns="http://www.w3.org/2000/svg">
  <defs>
    <filter x="293px" y="396px" width="18px" height="20px" filterUnits="userSpaceOnUse" id="filter2156">
      <feOffset dx="1" dy="1" in="SourceAlpha" result="shadowOffsetInner" />
      <feGaussianBlur stdDeviation="2.5" in="shadowOffsetInner" result="shadowGaussian" />
      <feComposite in2="shadowGaussian" operator="atop" in="SourceAlpha" result="shadowComposite" />
      <feColorMatrix type="matrix" values="0 0 0 0 0  0 0 0 0 0  0 0 0 0 0  0 0 0 0.698039215686274 0  " in="shadowComposite" />
    </filter>
    <g id="widget2157">
      <path d="M 301 400  C 303.24 400  305 402.2  305 405  C 305 407.8  303.24 410  301 410  C 298.76 410  297 407.8  297 405  C 297 402.2  298.76 400  301 400  Z " fill-rule="nonzero" fill="#009999" stroke="none" />
      <path d="M 301 400.5  C 302.96 400.5  304.5 402.48  304.5 405  C 304.5 407.52  302.96 409.5  301 409.5  C 299.04 409.5  297.5 407.52  297.5 405  C 297.5 402.48  299.04 400.5  301 400.5  Z " stroke-width="1" stroke="#ffffff" fill="none" />
    </g>
  </defs>
  <g transform="matrix(1 0 0 1 -293 -396 )">
    <use xlink:href="#widget2157" filter="url(#filter2156)" />
    <use xlink:href="#widget2157" />
  </g>
</svg>