<?xml version="1.0" encoding="utf-8"?>
<svg version="1.1" xmlns:xlink="http://www.w3.org/1999/xlink" width="1108px" height="757px" xmlns="http://www.w3.org/2000/svg">
  <defs>
    <mask fill="white" id="clip1985">
      <path d="M 0 665.127659574468  L 0 61.8723404255319  C 0 27.2238297872341  11.2933333333333 0  25.6666666666667 0  L 709.041666666667 0  L 1052.33333333333 0  C 1066.70666666667 0  1078 27.2238297872341  1078 61.8723404255319  L 1078 170.148936170213  L 1078 665.127659574468  C 1078 699.776170212766  1066.70666666667 727  1052.33333333333 727  L 25.6666666666667 727  C 11.2933333333333 727  0 699.776170212766  0 665.127659574468  Z " fill-rule="evenodd" />
    </mask>
    <filter x="-3px" y="48px" width="1108px" height="757px" filterUnits="userSpaceOnUse" id="filter1986">
      <feOffset dx="2" dy="2" in="SourceAlpha" result="shadowOffsetInner" />
      <feGaussianBlur stdDeviation="7.5" in="shadowOffsetInner" result="shadowGaussian" />
      <feComposite in2="shadowGaussian" operator="atop" in="SourceAlpha" result="shadowComposite" />
      <feColorMatrix type="matrix" values="0 0 0 0 0.6  0 0 0 0 0.6  0 0 0 0 0.6  0 0 0 0.149019607843137 0  " in="shadowComposite" />
    </filter>
    <g id="widget1987">
      <path d="M 0 665.127659574468  L 0 61.8723404255319  C 0 27.2238297872341  11.2933333333333 0  25.6666666666667 0  L 709.041666666667 0  L 1052.33333333333 0  C 1066.70666666667 0  1078 27.2238297872341  1078 61.8723404255319  L 1078 170.148936170213  L 1078 665.127659574468  C 1078 699.776170212766  1066.70666666667 727  1052.33333333333 727  L 25.6666666666667 727  C 11.2933333333333 727  0 699.776170212766  0 665.127659574468  Z " fill-rule="nonzero" fill="#ffffff" stroke="none" transform="matrix(1 0 0 1 10 61 )" />
      <path d="M 0 665.127659574468  L 0 61.8723404255319  C 0 27.2238297872341  11.2933333333333 0  25.6666666666667 0  L 709.041666666667 0  L 1052.33333333333 0  C 1066.70666666667 0  1078 27.2238297872341  1078 61.8723404255319  L 1078 170.148936170213  L 1078 665.127659574468  C 1078 699.776170212766  1066.70666666667 727  1052.33333333333 727  L 25.6666666666667 727  C 11.2933333333333 727  0 699.776170212766  0 665.127659574468  Z " stroke-width="4" stroke="#f2f2f2" fill="none" transform="matrix(1 0 0 1 10 61 )" mask="url(#clip1985)" />
    </g>
  </defs>
  <g transform="matrix(1 0 0 1 3 -48 )">
    <use xlink:href="#widget1987" filter="url(#filter1986)" />
    <use xlink:href="#widget1987" />
  </g>
</svg>