<?xml version="1.0" encoding="utf-8"?>
<svg version="1.1" xmlns:xlink="http://www.w3.org/1999/xlink" width="12px" height="12px" viewBox="178 516.5  12 12" xmlns="http://www.w3.org/2000/svg">
  <path d="M 184 516.5  C 187.36 516.5  190 519.14  190 522.5  C 190 525.86  187.36 528.5  184 528.5  C 180.64 528.5  178 525.86  178 522.5  C 178 519.14  180.64 516.5  184 516.5  Z " fill-rule="nonzero" fill="#ffffff" stroke="none" />
  <path d="M 184 517  C 187.08 517  189.5 519.42  189.5 522.5  C 189.5 525.58  187.08 528  184 528  C 180.92 528  178.5 525.58  178.5 522.5  C 178.5 519.42  180.92 517  184 517  Z " stroke-width="1" stroke="#797979" fill="none" />
  <path d="M 184 525.5  C 182.32 525.5  181 524.18  181 522.5  C 181 520.82  182.32 519.5  184 519.5  C 185.68 519.5  187 520.82  187 522.5  C 187 524.18  185.68 525.5  184 525.5  " fill-rule="nonzero" fill="#797979" stroke="none" />
</svg>