<?xml version="1.0" encoding="utf-8"?>
<svg version="1.1" xmlns:xlink="http://www.w3.org/1999/xlink" width="12px" height="12px" viewBox="265 516.5  12 12" xmlns="http://www.w3.org/2000/svg">
  <path d="M 271 516.5  C 274.36 516.5  277 519.14  277 522.5  C 277 525.86  274.36 528.5  271 528.5  C 267.64 528.5  265 525.86  265 522.5  C 265 519.14  267.64 516.5  271 516.5  Z " fill-rule="nonzero" fill="#ffffff" stroke="none" />
  <path d="M 271 517  C 274.08 517  276.5 519.42  276.5 522.5  C 276.5 525.58  274.08 528  271 528  C 267.92 528  265.5 525.58  265.5 522.5  C 265.5 519.42  267.92 517  271 517  Z " stroke-width="1" stroke="#797979" fill="none" />
  <path d="M 271 525.5  C 269.32 525.5  268 524.18  268 522.5  C 268 520.82  269.32 519.5  271 519.5  C 272.68 519.5  274 520.82  274 522.5  C 274 524.18  272.68 525.5  271 525.5  " fill-rule="nonzero" fill="#797979" stroke="none" />
</svg>