<?xml version="1.0" encoding="utf-8"?>
<svg version="1.1" xmlns:xlink="http://www.w3.org/1999/xlink" width="14px" height="14px" xmlns="http://www.w3.org/2000/svg">
  <g transform="matrix(1 0 0 1 -77 -297 )">
    <path d="M 84 297  C 87.92 297  91 300.08  91 304  C 91 307.92  87.92 311  84 311  C 80.08 311  77 307.92  77 304  C 77 300.08  80.08 297  84 297  Z " fill-rule="nonzero" fill="#ffffff" stroke="none" fill-opacity="0" />
    <path d="M 84 297.5  C 87.64 297.5  90.5 300.36  90.5 304  C 90.5 307.64  87.64 310.5  84 310.5  C 80.36 310.5  77.5 307.64  77.5 304  C 77.5 300.36  80.36 297.5  84 297.5  Z " stroke-width="1" stroke="#d9d9d9" fill="none" />
  </g>
</svg>