<?xml version="1.0" encoding="utf-8"?>
<svg version="1.1" xmlns:xlink="http://www.w3.org/1999/xlink" width="150px" height="36px" xmlns="http://www.w3.org/2000/svg">
  <defs>
    <mask fill="white" id="clip2139">
      <path d="M 0 30.2222222222222  L 0 1.77777777777778  C 0 0.782222222222222  0.578738738738739 0  1.31531531531532 0  L 144.684684684685 0  C 145.421261261261 0  146 0.782222222222222  146 1.77777777777778  L 146 30.2222222222222  C 146 31.2177777777778  145.421261261261 32  144.684684684685 32  L 1.31531531531532 32  C 0.578738738738739 32  0 31.2177777777778  0 30.2222222222222  Z " fill-rule="evenodd" />
    </mask>
    <filter x="28px" y="33px" width="150px" height="36px" filterUnits="userSpaceOnUse" id="filter2140">
      <feOffset dx="0" dy="1" in="SourceAlpha" result="shadowOffsetInner" />
      <feGaussianBlur stdDeviation="1" in="shadowOffsetInner" result="shadowGaussian" />
      <feComposite in2="shadowGaussian" operator="atop" in="SourceAlpha" result="shadowComposite" />
      <feColorMatrix type="matrix" values="0 0 0 0 0.4  0 0 0 0 0.4  0 0 0 0 0.4  0 0 0 0.349019607843137 0  " in="shadowComposite" />
    </filter>
    <g id="widget2141">
      <path d="M 0 30.2222222222222  L 0 1.77777777777778  C 0 0.782222222222222  0.578738738738739 0  1.31531531531532 0  L 144.684684684685 0  C 145.421261261261 0  146 0.782222222222222  146 1.77777777777778  L 146 30.2222222222222  C 146 31.2177777777778  145.421261261261 32  144.684684684685 32  L 1.31531531531532 32  C 0.578738738738739 32  0 31.2177777777778  0 30.2222222222222  Z " fill-rule="nonzero" fill="#ffffff" stroke="none" transform="matrix(1 0 0 1 30 34 )" />
      <path d="M 0 30.2222222222222  L 0 1.77777777777778  C 0 0.782222222222222  0.578738738738739 0  1.31531531531532 0  L 144.684684684685 0  C 145.421261261261 0  146 0.782222222222222  146 1.77777777777778  L 146 30.2222222222222  C 146 31.2177777777778  145.421261261261 32  144.684684684685 32  L 1.31531531531532 32  C 0.578738738738739 32  0 31.2177777777778  0 30.2222222222222  Z " stroke-width="2" stroke="#339933" fill="none" transform="matrix(1 0 0 1 30 34 )" mask="url(#clip2139)" />
    </g>
  </defs>
  <g transform="matrix(1 0 0 1 -28 -33 )">
    <use xlink:href="#widget2141" filter="url(#filter2140)" />
    <use xlink:href="#widget2141" />
  </g>
</svg>