<?xml version="1.0" encoding="utf-8"?>
<svg version="1.1" xmlns:xlink="http://www.w3.org/1999/xlink" width="19px" height="20px" xmlns="http://www.w3.org/2000/svg">
  <defs>
    <filter x="691px" y="390px" width="19px" height="20px" filterUnits="userSpaceOnUse" id="filter2142">
      <feOffset dx="1" dy="1" in="SourceAlpha" result="shadowOffsetInner" />
      <feGaussianBlur stdDeviation="2.5" in="shadowOffsetInner" result="shadowGaussian" />
      <feComposite in2="shadowGaussian" operator="atop" in="SourceAlpha" result="shadowComposite" />
      <feColorMatrix type="matrix" values="0 0 0 0 0  0 0 0 0 0  0 0 0 0 0  0 0 0 0.698039215686274 0  " in="shadowComposite" />
    </filter>
    <g id="widget2143">
      <path d="M 699.5 394  C 702.02 394  704 396.2  704 399  C 704 401.8  702.02 404  699.5 404  C 696.98 404  695 401.8  695 399  C 695 396.2  696.98 394  699.5 394  Z " fill-rule="nonzero" fill="#ffcc33" stroke="none" />
      <path d="M 699.5 394.5  C 701.74 394.5  703.5 396.48  703.5 399  C 703.5 401.52  701.74 403.5  699.5 403.5  C 697.26 403.5  695.5 401.52  695.5 399  C 695.5 396.48  697.26 394.5  699.5 394.5  Z " stroke-width="1" stroke="#ffffff" fill="none" />
    </g>
  </defs>
  <g transform="matrix(1 0 0 1 -691 -390 )">
    <use xlink:href="#widget2143" filter="url(#filter2142)" />
    <use xlink:href="#widget2143" />
  </g>
</svg>