<?xml version="1.0" encoding="utf-8"?>
<svg version="1.1" xmlns:xlink="http://www.w3.org/1999/xlink" width="19px" height="20px" xmlns="http://www.w3.org/2000/svg">
  <defs>
    <filter x="578px" y="350px" width="19px" height="20px" filterUnits="userSpaceOnUse" id="filter2108">
      <feOffset dx="1" dy="1" in="SourceAlpha" result="shadowOffsetInner" />
      <feGaussianBlur stdDeviation="2.5" in="shadowOffsetInner" result="shadowGaussian" />
      <feComposite in2="shadowGaussian" operator="atop" in="SourceAlpha" result="shadowComposite" />
      <feColorMatrix type="matrix" values="0 0 0 0 0  0 0 0 0 0  0 0 0 0 0  0 0 0 0.698039215686274 0  " in="shadowComposite" />
    </filter>
    <g id="widget2109">
      <path d="M 586.5 354  C 589.02 354  591 356.2  591 359  C 591 361.8  589.02 364  586.5 364  C 583.98 364  582 361.8  582 359  C 582 356.2  583.98 354  586.5 354  Z " fill-rule="nonzero" fill="#ff0000" stroke="none" />
      <path d="M 586.5 354.5  C 588.74 354.5  590.5 356.48  590.5 359  C 590.5 361.52  588.74 363.5  586.5 363.5  C 584.26 363.5  582.5 361.52  582.5 359  C 582.5 356.48  584.26 354.5  586.5 354.5  Z " stroke-width="1" stroke="#ffffff" fill="none" />
    </g>
  </defs>
  <g transform="matrix(1 0 0 1 -578 -350 )">
    <use xlink:href="#widget2109" filter="url(#filter2108)" />
    <use xlink:href="#widget2109" />
  </g>
</svg>