<?xml version="1.0" encoding="utf-8"?>
<svg version="1.1" xmlns:xlink="http://www.w3.org/1999/xlink" width="12px" height="12px" viewBox="964 1552  12 12" xmlns="http://www.w3.org/2000/svg">
  <path d="M 970 1552  C 973.36 1552  976 1554.64  976 1558  C 976 1561.36  973.36 1564  970 1564  C 966.64 1564  964 1561.36  964 1558  C 964 1554.64  966.64 1552  970 1552  Z " fill-rule="nonzero" fill="#ffffff" stroke="none" />
  <path d="M 970 1552.5  C 973.08 1552.5  975.5 1554.92  975.5 1558  C 975.5 1561.08  973.08 1563.5  970 1563.5  C 966.92 1563.5  964.5 1561.08  964.5 1558  C 964.5 1554.92  966.92 1552.5  970 1552.5  Z " stroke-width="1" stroke="#797979" fill="none" />
  <path d="M 970 1561  C 968.32 1561  967 1559.68  967 1558  C 967 1556.32  968.32 1555  970 1555  C 971.68 1555  973 1556.32  973 1558  C 973 1559.68  971.68 1561  970 1561  " fill-rule="nonzero" fill="#797979" stroke="none" />
</svg>