<?xml version="1.0" encoding="utf-8"?>
<svg version="1.1" xmlns:xlink="http://www.w3.org/1999/xlink" width="12px" height="12px" viewBox="295 1897  12 12" xmlns="http://www.w3.org/2000/svg">
  <path d="M 301 1897  C 304.36 1897  307 1899.64  307 1903  C 307 1906.36  304.36 1909  301 1909  C 297.64 1909  295 1906.36  295 1903  C 295 1899.64  297.64 1897  301 1897  Z " fill-rule="nonzero" fill="#ffffff" stroke="none" />
  <path d="M 301 1897.5  C 304.08 1897.5  306.5 1899.92  306.5 1903  C 306.5 1906.08  304.08 1908.5  301 1908.5  C 297.92 1908.5  295.5 1906.08  295.5 1903  C 295.5 1899.92  297.92 1897.5  301 1897.5  Z " stroke-width="1" stroke="#797979" fill="none" />
  <path d="M 301 1906  C 299.32 1906  298 1904.68  298 1903  C 298 1901.32  299.32 1900  301 1900  C 302.68 1900  304 1901.32  304 1903  C 304 1904.68  302.68 1906  301 1906  " fill-rule="nonzero" fill="#797979" stroke="none" />
</svg>