<?xml version="1.0" encoding="utf-8"?>
<svg version="1.1" xmlns:xlink="http://www.w3.org/1999/xlink" width="12px" height="12px" viewBox="330 892  12 12" xmlns="http://www.w3.org/2000/svg">
  <path d="M 336 892  C 339.36 892  342 894.64  342 898  C 342 901.36  339.36 904  336 904  C 332.64 904  330 901.36  330 898  C 330 894.64  332.64 892  336 892  Z " fill-rule="nonzero" fill="#ffffff" stroke="none" />
  <path d="M 336 892.5  C 339.08 892.5  341.5 894.92  341.5 898  C 341.5 901.08  339.08 903.5  336 903.5  C 332.92 903.5  330.5 901.08  330.5 898  C 330.5 894.92  332.92 892.5  336 892.5  Z " stroke-width="1" stroke="#797979" fill="none" />
  <path d="M 336 901  C 334.32 901  333 899.68  333 898  C 333 896.32  334.32 895  336 895  C 337.68 895  339 896.32  339 898  C 339 899.68  337.68 901  336 901  " fill-rule="nonzero" fill="#797979" stroke="none" />
</svg>