<?xml version="1.0" encoding="utf-8"?>
<svg version="1.1" xmlns:xlink="http://www.w3.org/1999/xlink" width="12px" height="12px" viewBox="230 892  12 12" xmlns="http://www.w3.org/2000/svg">
  <path d="M 236 892  C 239.36 892  242 894.64  242 898  C 242 901.36  239.36 904  236 904  C 232.64 904  230 901.36  230 898  C 230 894.64  232.64 892  236 892  Z " fill-rule="nonzero" fill="#ffffff" stroke="none" />
  <path d="M 236 892.5  C 239.08 892.5  241.5 894.92  241.5 898  C 241.5 901.08  239.08 903.5  236 903.5  C 232.92 903.5  230.5 901.08  230.5 898  C 230.5 894.92  232.92 892.5  236 892.5  Z " stroke-width="1" stroke="#797979" fill="none" />
  <path d="M 236 901  C 234.32 901  233 899.68  233 898  C 233 896.32  234.32 895  236 895  C 237.68 895  239 896.32  239 898  C 239 899.68  237.68 901  236 901  " fill-rule="nonzero" fill="#797979" stroke="none" />
</svg>