<?xml version="1.0" encoding="utf-8"?>
<svg version="1.1" xmlns:xlink="http://www.w3.org/1999/xlink" width="12px" height="12px" viewBox="181 654.5  12 12" xmlns="http://www.w3.org/2000/svg">
  <path d="M 187 654.5  C 190.36 654.5  193 657.14  193 660.5  C 193 663.86  190.36 666.5  187 666.5  C 183.64 666.5  181 663.86  181 660.5  C 181 657.14  183.64 654.5  187 654.5  Z " fill-rule="nonzero" fill="#ffffff" stroke="none" />
  <path d="M 187 655  C 190.08 655  192.5 657.42  192.5 660.5  C 192.5 663.58  190.08 666  187 666  C 183.92 666  181.5 663.58  181.5 660.5  C 181.5 657.42  183.92 655  187 655  Z " stroke-width="1" stroke="#797979" fill="none" />
  <path d="M 187 663.5  C 185.32 663.5  184 662.18  184 660.5  C 184 658.82  185.32 657.5  187 657.5  C 188.68 657.5  190 658.82  190 660.5  C 190 662.18  188.68 663.5  187 663.5  " fill-rule="nonzero" fill="#797979" stroke="none" />
</svg>