<?xml version="1.0" encoding="utf-8"?>
<svg version="1.1" xmlns:xlink="http://www.w3.org/1999/xlink" width="19px" height="25px" xmlns="http://www.w3.org/2000/svg">
  <g transform="matrix(1 0 0 1 -270 -391 )">
    <path d="M 6.78764204545455 9.521484375  C 6.86860795454546 9.619140625  6.90909090909091 9.74392361111111  6.90909090909091 9.89583333333333  L 6.90909090909091 19.2708333333333  C 6.90909090909091 19.4227430555556  6.86860795454546 19.5475260416667  6.78764204545455 19.6451822916667  C 6.70667613636364 19.7428385416667  6.6032196969697 19.7916666666667  6.47727272727273 19.7916666666667  L 5.61363636363636 19.7916666666667  C 5.48768939393939 19.7916666666667  5.38423295454546 19.7428385416667  5.30326704545455 19.6451822916667  C 5.22230113636364 19.5475260416667  5.18181818181818 19.4227430555556  5.18181818181818 19.2708333333333  L 5.18181818181818 9.89583333333333  C 5.18181818181818 9.74392361111111  5.22230113636364 9.619140625  5.30326704545455 9.521484375  C 5.38423295454546 9.423828125  5.48768939393939 9.375  5.61363636363636 9.375  L 6.47727272727273 9.375  C 6.6032196969697 9.375  6.70667613636364 9.423828125  6.78764204545455 9.521484375  Z M 10.2421875 9.521484375  C 10.3231534090909 9.619140625  10.3636363636364 9.74392361111111  10.3636363636364 9.89583333333333  L 10.3636363636364 19.2708333333333  C 10.3636363636364 19.4227430555556  10.3231534090909 19.5475260416667  10.2421875 19.6451822916667  C 10.1612215909091 19.7428385416667  10.0577651515152 19.7916666666667  9.93181818181818 19.7916666666667  L 9.06818181818182 19.7916666666667  C 8.94223484848485 19.7916666666667  8.83877840909091 19.7428385416667  8.7578125 19.6451822916667  C 8.67684659090909 19.5475260416667  8.63636363636364 19.4227430555556  8.63636363636364 19.2708333333333  L 8.63636363636364 9.89583333333333  C 8.63636363636364 9.74392361111111  8.67684659090909 9.619140625  8.7578125 9.521484375  C 8.83877840909091 9.423828125  8.94223484848485 9.375  9.06818181818182 9.375  L 9.93181818181818 9.375  C 10.0577651515152 9.375  10.1612215909091 9.423828125  10.2421875 9.521484375  Z M 13.6967329545455 9.521484375  C 13.7776988636364 9.619140625  13.8181818181818 9.74392361111111  13.8181818181818 9.89583333333333  L 13.8181818181818 19.2708333333333  C 13.8181818181818 19.4227430555556  13.7776988636364 19.5475260416667  13.6967329545455 19.6451822916667  C 13.6157670454545 19.7428385416667  13.5123106060606 19.7916666666667  13.3863636363636 19.7916666666667  L 12.5227272727273 19.7916666666667  C 12.3967803030303 19.7916666666667  12.2933238636364 19.7428385416667  12.2123579545455 19.6451822916667  C 12.1313920454545 19.5475260416667  12.0909090909091 19.4227430555556  12.0909090909091 19.2708333333333  L 12.0909090909091 9.89583333333333  C 12.0909090909091 9.74392361111111  12.1313920454545 9.619140625  12.2123579545455 9.521484375  C 12.2933238636364 9.423828125  12.3967803030303 9.375  12.5227272727273 9.375  L 13.3863636363636 9.375  C 13.5123106060606 9.375  13.6157670454545 9.423828125  13.6967329545455 9.521484375  Z M 15.4509943181818 22.3388671875  C 15.5139678030303 22.1381293402778  15.5454545454545 21.9184027777778  15.5454545454545 21.6796875  L 15.5454545454545 6.25  L 3.45454545454545 6.25  L 3.45454545454545 21.6796875  C 3.45454545454545 21.9184027777778  3.4860321969697 22.1381293402778  3.54900568181818 22.3388671875  C 3.61197916666667 22.5396050347222  3.67720170454545 22.6860894097222  3.74467329545455 22.7783203125  C 3.81214488636364 22.8705512152778  3.859375 22.9166666666667  3.88636363636364 23  L 15.1136363636364 23  C 15.140625 22.9166666666667  15.1878551136364 22.8705512152778  15.2553267045455 22.7783203125  C 15.3227982954545 22.6860894097222  15.3880208333333 22.5396050347222  15.4509943181818 22.3388671875  Z M 7.13849431818182 2.26236979166667  L 6.47727272727273 4.16666666666667  L 12.5227272727273 4.16666666666667  L 11.875 2.26236979166667  C 11.8120265151515 2.16471354166667  11.7355587121212 2.10503472222222  11.6455965909091 2.08333333333333  L 7.36789772727273 2.08333333333333  C 7.27793560606061 2.10503472222222  7.2014678030303 2.16471354166667  7.13849431818182 2.26236979166667  Z M 18.8785511363636 4.31315104166667  C 18.9595170454545 4.41080729166667  19 4.53559027777778  19 4.6875  L 19 5.72916666666667  C 19 5.88107638888889  18.9595170454545 6.005859375  18.8785511363636 6.103515625  C 18.7975852272727 6.201171875  18.6941287878788 6.25  18.5681818181818 6.25  L 17 6.25  L 17 21.6796875  C 17.2727272727273 22.5802951388889  17.0613162878788 23.3588324652778  16.6384943181818 24.0152994791667  C 16.2156723484849 24.6717664930556  15.7073863636364 25  15.1136363636364 25  L 3.88636363636364 25  C 3.29261363636364 25  2.78432765151515 24.6826171875  2.36150568181818 24.0478515625  C 1.93868371212121 23.4130859375  1.72727272727273 22.6453993055556  2 21.7447916666667  L 2 6.25  L 0.431818181818182 6.25  C 0.305871212121212 6.25  0.202414772727273 6.201171875  0.121448863636364 6.103515625  C 0.0404829545454545 6.005859375  0 5.88107638888889  0 5.72916666666667  L 0 4.6875  C 0 4.53559027777778  0.0404829545454545 4.41080729166667  0.121448863636364 4.31315104166667  C 0.202414772727273 4.21549479166667  0.305871212121212 4.16666666666667  0.431818181818182 4.16666666666667  L 4.6015625 4.16666666666667  L 5.54616477272727 1.44856770833333  C 5.68110795454546 1.04709201388889  5.92400568181818 0.705295138888887  6.27485795454546 0.423177083333334  C 6.62571022727273 0.141059027777776  6.98106060606061 0  7.34090909090909 0  L 11.6590909090909 0  C 12.0189393939394 0  12.3742897727273 0.141059027777776  12.7251420454545 0.423177083333334  C 13.0759943181818 0.705295138888887  13.3188920454545 1.04709201388889  13.4538352272727 1.44856770833333  L 14.3984375 4.16666666666667  L 18.5681818181818 4.16666666666667  C 18.6941287878788 4.16666666666667  18.7975852272727 4.21549479166667  18.8785511363636 4.31315104166667  Z " fill-rule="nonzero" fill="#000000" stroke="none" transform="matrix(1 0 0 1 270 391 )" />
  </g>
</svg>