<?xml version="1.0" encoding="utf-8"?>
<svg version="1.1" xmlns:xlink="http://www.w3.org/1999/xlink" width="12px" height="12px" viewBox="98 236  12 12" xmlns="http://www.w3.org/2000/svg">
  <path d="M 104 236  C 107.36 236  110 238.64  110 242  C 110 245.36  107.36 248  104 248  C 100.64 248  98 245.36  98 242  C 98 238.64  100.64 236  104 236  Z " fill-rule="nonzero" fill="#ffffff" stroke="none" />
  <path d="M 104 236.5  C 107.08 236.5  109.5 238.92  109.5 242  C 109.5 245.08  107.08 247.5  104 247.5  C 100.92 247.5  98.5 245.08  98.5 242  C 98.5 238.92  100.92 236.5  104 236.5  Z " stroke-width="1" stroke="#797979" fill="none" />
  <path d="M 104 245  C 102.32 245  101 243.68  101 242  C 101 240.32  102.32 239  104 239  C 105.68 239  107 240.32  107 242  C 107 243.68  105.68 245  104 245  " fill-rule="nonzero" fill="#797979" stroke="none" />
</svg>