<?xml version="1.0" encoding="utf-8"?>
<svg version="1.1" xmlns:xlink="http://www.w3.org/1999/xlink" width="12px" height="12px" viewBox="180 315  12 12" xmlns="http://www.w3.org/2000/svg">
  <path d="M 186 315  C 189.36 315  192 317.64  192 321  C 192 324.36  189.36 327  186 327  C 182.64 327  180 324.36  180 321  C 180 317.64  182.64 315  186 315  Z " fill-rule="nonzero" fill="#ffffff" stroke="none" />
  <path d="M 186 315.5  C 189.08 315.5  191.5 317.92  191.5 321  C 191.5 324.08  189.08 326.5  186 326.5  C 182.92 326.5  180.5 324.08  180.5 321  C 180.5 317.92  182.92 315.5  186 315.5  Z " stroke-width="1" stroke="#797979" fill="none" />
  <path d="M 186 324  C 184.32 324  183 322.68  183 321  C 183 319.32  184.32 318  186 318  C 187.68 318  189 319.32  189 321  C 189 322.68  187.68 324  186 324  " fill-rule="nonzero" fill="#797979" stroke="none" />
</svg>