<?xml version="1.0" encoding="utf-8"?>
<svg version="1.1" xmlns:xlink="http://www.w3.org/1999/xlink" width="12px" height="12px" viewBox="180 360  12 12" xmlns="http://www.w3.org/2000/svg">
  <path d="M 186 360  C 189.36 360  192 362.64  192 366  C 192 369.36  189.36 372  186 372  C 182.64 372  180 369.36  180 366  C 180 362.64  182.64 360  186 360  Z " fill-rule="nonzero" fill="#ffffff" stroke="none" />
  <path d="M 186 360.5  C 189.08 360.5  191.5 362.92  191.5 366  C 191.5 369.08  189.08 371.5  186 371.5  C 182.92 371.5  180.5 369.08  180.5 366  C 180.5 362.92  182.92 360.5  186 360.5  Z " stroke-width="1" stroke="#797979" fill="none" />
  <path d="M 186 369  C 184.32 369  183 367.68  183 366  C 183 364.32  184.32 363  186 363  C 187.68 363  189 364.32  189 366  C 189 367.68  187.68 369  186 369  " fill-rule="nonzero" fill="#797979" stroke="none" />
</svg>