<?xml version="1.0" encoding="utf-8"?>
<svg version="1.1" xmlns:xlink="http://www.w3.org/1999/xlink" width="12px" height="12px" viewBox="169 780  12 12" xmlns="http://www.w3.org/2000/svg">
  <path d="M 175 780  C 178.36 780  181 782.64  181 786  C 181 789.36  178.36 792  175 792  C 171.64 792  169 789.36  169 786  C 169 782.64  171.64 780  175 780  Z " fill-rule="nonzero" fill="#ffffff" stroke="none" />
  <path d="M 175 780.5  C 178.08 780.5  180.5 782.92  180.5 786  C 180.5 789.08  178.08 791.5  175 791.5  C 171.92 791.5  169.5 789.08  169.5 786  C 169.5 782.92  171.92 780.5  175 780.5  Z " stroke-width="1" stroke="#797979" fill="none" />
  <path d="M 175 789  C 173.32 789  172 787.68  172 786  C 172 784.32  173.32 783  175 783  C 176.68 783  178 784.32  178 786  C 178 787.68  176.68 789  175 789  " fill-rule="nonzero" fill="#797979" stroke="none" />
</svg>