<?xml version="1.0" encoding="utf-8"?>
<svg version="1.1" xmlns:xlink="http://www.w3.org/1999/xlink" width="12px" height="12px" viewBox="269 780  12 12" xmlns="http://www.w3.org/2000/svg">
  <path d="M 275 780  C 278.36 780  281 782.64  281 786  C 281 789.36  278.36 792  275 792  C 271.64 792  269 789.36  269 786  C 269 782.64  271.64 780  275 780  Z " fill-rule="nonzero" fill="#ffffff" stroke="none" />
  <path d="M 275 780.5  C 278.08 780.5  280.5 782.92  280.5 786  C 280.5 789.08  278.08 791.5  275 791.5  C 271.92 791.5  269.5 789.08  269.5 786  C 269.5 782.92  271.92 780.5  275 780.5  Z " stroke-width="1" stroke="#797979" fill="none" />
  <path d="M 275 789  C 273.32 789  272 787.68  272 786  C 272 784.32  273.32 783  275 783  C 276.68 783  278 784.32  278 786  C 278 787.68  276.68 789  275 789  " fill-rule="nonzero" fill="#797979" stroke="none" />
</svg>