<?xml version="1.0" encoding="utf-8"?>
<svg version="1.1" xmlns:xlink="http://www.w3.org/1999/xlink" width="14px" height="13px" xmlns="http://www.w3.org/2000/svg">
  <g transform="matrix(1 0 0 1 -938 -241 )">
    <path d="M 13.8597194388778 1.34020618556701  C 13.9532398129593 1.48911798396334  14 1.66036655211913  14 1.85395189003436  C 14 2.0475372279496  13.9532398129593 2.21878579610538  13.8597194388778 2.36769759450172  L 7.32264529058116 12.7766323024055  C 7.22912491649967 12.9255441008018  7.12157648630595 13  7 13  C 6.87842351369406 13  6.77087508350033 12.9255441008018  6.67735470941884 12.7766323024055  L 0.140280561122244 2.36769759450172  C 0.0467601870407483 2.21878579610538  0 2.0475372279496  0 1.85395189003436  C 0 1.66036655211913  0.0467601870407483 1.48911798396334  0.140280561122244 1.34020618556701  L 0.841683366733467 0.223367697594502  C 0.935203740814964 0.0744558991981655  1.04275217100868 0  1.16432865731463 0  C 1.28590514362057 0  1.3934535738143 0.0744558991981655  1.48697394789579 0.223367697594502  L 7 9.00171821305842  L 12.5130260521042 0.223367697594502  C 12.6065464261857 0.0744558991981655  12.7140948563794 0  12.8356713426854 0  C 12.9572478289913 0  13.064796259185 0.0744558991981655  13.1583166332665 0.223367697594502  L 13.8597194388778 1.34020618556701  Z " fill-rule="nonzero" fill="#434343" stroke="none" transform="matrix(1 0 0 1 938 241 )" />
  </g>
</svg>