<?xml version="1.0" encoding="utf-8"?>
<svg version="1.1" xmlns:xlink="http://www.w3.org/1999/xlink" width="29px" height="20px" xmlns="http://www.w3.org/2000/svg">
  <g transform="matrix(1 0 0 1 -557 -683 )">
    <path d="M 11.4263020833333 9.09254807692308  C 12.2771701388889 8.41546474358974  13.3017361111111 8.07692307692307  14.5 8.07692307692308  C 15.6982638888889 8.07692307692307  16.7228298611111 8.41546474358974  17.5736979166667 9.09254807692308  C 18.4245659722222 9.76963141025641  18.85 10.5849358974359  18.85 11.5384615384615  C 18.85 12.4919871794872  18.4245659722222 13.3072916666667  17.5736979166667 13.984375  C 16.7228298611111 14.6614583333333  15.6982638888889 15  14.5 15  C 13.3017361111111 15  12.2771701388889 14.6614583333333  11.4263020833333 13.984375  C 10.5754340277778 13.3072916666667  10.15 12.4919871794872  10.15 11.5384615384615  C 10.15 10.5849358974359  10.5754340277778 9.76963141025641  11.4263020833333 9.09254807692308  Z M 21.75 3.07692307692308  L 25.1333333333333 3.07692307692308  C 26.2006944444444 3.07692307692308  27.1119791666667 3.37740384615385  27.8671875 3.97836538461539  C 28.6223958333333 4.57932692307692  29 5.30448717948718  29 6.15384615384615  L 29 16.9230769230769  C 29 17.7724358974359  28.6223958333333 18.4975961538462  27.8671875 19.0985576923077  C 27.1119791666667 19.6995192307692  26.2006944444444 20  25.1333333333333 20  L 3.86666666666667 20  C 2.79930555555556 20  1.88802083333333 19.6995192307692  1.1328125 19.0985576923077  C 0.377604166666667 18.4975961538462  0 17.7724358974359  0 16.9230769230769  L 0 6.15384615384615  C 0 5.30448717948718  0.377604166666667 4.57932692307692  1.1328125 3.97836538461539  C 1.88802083333333 3.37740384615385  2.79930555555556 3.07692307692308  3.86666666666667 3.07692307692308  L 7.25 3.07692307692308  L 8.0203125 1.44230769230769  C 8.21163194444445 1.04967948717949  8.56154513888889 0.711137820512819  9.07005208333333 0.426682692307692  C 9.57855902777778 0.142227564102566  10.0996527777778 0  10.6333333333333 0  L 18.3666666666667 0  C 18.9003472222222 0  19.4214409722222 0.142227564102566  19.9299479166667 0.426682692307692  C 20.4384548611111 0.711137820512819  20.7883680555556 1.04967948717949  20.9796875 1.44230769230769  L 21.75 3.07692307692308  Z M 9.71953125 15.3425480769231  C 11.0436631944444 16.396233974359  12.6371527777778 16.9230769230769  14.5 16.9230769230769  C 16.3628472222222 16.9230769230769  17.9563368055556 16.396233974359  19.28046875 15.3425480769231  C 20.6046006944444 14.2888621794872  21.2666666666667 13.0208333333333  21.2666666666667 11.5384615384615  C 21.2666666666667 10.0560897435897  20.6046006944444 8.7880608974359  19.28046875 7.734375  C 17.9563368055556 6.6806891025641  16.3628472222222 6.15384615384615  14.5 6.15384615384615  C 12.6371527777778 6.15384615384615  11.0436631944444 6.6806891025641  9.71953125 7.734375  C 8.39539930555556 8.7880608974359  7.73333333333333 10.0560897435897  7.73333333333333 11.5384615384615  C 7.73333333333333 13.0208333333333  8.39539930555556 14.2888621794872  9.71953125 15.3425480769231  Z " fill-rule="nonzero" fill="#000000" stroke="none" transform="matrix(1 0 0 1 557 683 )" />
  </g>
</svg>