<?xml version="1.0" encoding="utf-8"?>
<svg version="1.1" xmlns:xlink="http://www.w3.org/1999/xlink" width="17px" height="8px" xmlns="http://www.w3.org/2000/svg">
  <g transform="matrix(1 0 0 1 -553 -1064 )">
    <path d="M 16.8296593186373 0.824742268041237  C 16.9432197728791 0.916380297823594  17 1.02176403207331  17 1.14089347079038  C 17 1.26002290950744  16.9432197728791 1.36540664375716  16.8296593186373 1.45704467353952  L 8.89178356713427 7.86254295532646  C 8.77822311289245 7.95418098510882  8.64762859051436 8  8.5 8  C 8.35237140948564 8  8.22177688710755 7.95418098510882  8.10821643286573 7.86254295532646  L 0.170340681362725 1.45704467353952  C 0.0567802271209086 1.36540664375716  0 1.26002290950744  0 1.14089347079038  C 0 1.02176403207331  0.0567802271209086 0.916380297823594  0.170340681362725 0.824742268041237  L 1.02204408817635 0.13745704467354  C 1.13560454241817 0.0458190148911788  1.26619906479626 0  1.41382765531062 0  C 1.56145624582498 0  1.69205076820307 0.0458190148911788  1.80561122244489 0.13745704467354  L 8.5 5.53951890034364  L 15.1943887775551 0.13745704467354  C 15.3079492317969 0.0458190148911788  15.438543754175 0  15.5861723446894 0  C 15.7338009352037 0  15.8643954575818 0.0458190148911788  15.9779559118236 0.13745704467354  L 16.8296593186373 0.824742268041237  Z " fill-rule="nonzero" fill="#434343" stroke="none" transform="matrix(1 0 0 1 553 1064 )" />
  </g>
</svg>