<?xml version="1.0" encoding="utf-8"?>
<svg version="1.1" xmlns:xlink="http://www.w3.org/1999/xlink" width="9px" height="7px" xmlns="http://www.w3.org/2000/svg">
  <g transform="matrix(1 0 0 1 -1293 -1205 )">
    <path d="M 8.90981963927856 0.721649484536082  C 8.96993987975952 0.801832760595645  9 0.894043528064146  9 0.998281786941581  C 9 1.10252004581901  8.96993987975952 1.19473081328751  8.90981963927856 1.27491408934708  L 4.70741482965932 6.87972508591065  C 4.64729458917836 6.95990836197022  4.57815631262525 7  4.5 7  C 4.42184368737475 7  4.35270541082164 6.95990836197022  4.29258517034068 6.87972508591065  L 0.0901803607214429 1.27491408934708  C 0.030060120240481 1.19473081328751  0 1.10252004581901  0 0.998281786941581  C 0 0.894043528064146  0.030060120240481 0.801832760595645  0.0901803607214429 0.721649484536082  L 0.541082164328657 0.120274914089347  C 0.601202404809619 0.0400916380297814  0.670340681362726 0  0.748496993987976 0  C 0.826653306613227 0  0.895791583166333 0.0400916380297814  0.955911823647295 0.120274914089347  L 4.5 4.84707903780069  L 8.04408817635271 0.120274914089347  C 8.10420841683367 0.0400916380297814  8.17334669338677 0  8.25150300601202 0  C 8.32965931863728 0  8.39879759519038 0.0400916380297814  8.45891783567134 0.120274914089347  L 8.90981963927856 0.721649484536082  Z " fill-rule="nonzero" fill="#0d0d0d" stroke="none" transform="matrix(1 0 0 1 1293 1205 )" />
  </g>
</svg>