<?xml version="1.0" encoding="utf-8"?>
<svg version="1.1" xmlns:xlink="http://www.w3.org/1999/xlink" width="7px" height="6px" xmlns="http://www.w3.org/2000/svg">
  <g transform="matrix(1 0 0 1 -227 -116 )">
    <path d="M 6.92985971943887 0.618556701030926  C 6.97661990647961 0.687285223367695  7 0.766323024054984  7 0.855670103092777  C 7 0.945017182130584  6.97661990647961 1.02405498281787  6.92985971943887 1.09278350515464  L 3.66132264529057 5.89690721649484  C 3.61456245824982 5.96563573883161  3.56078824315298 6  3.5 6  C 3.43921175684702 6  3.38543754175018 5.96563573883161  3.33867735470943 5.89690721649484  L 0.0701402805611338 1.09278350515464  C 0.0233800935203874 1.02405498281787  0 0.945017182130584  0 0.855670103092777  C 0 0.766323024054984  0.0233800935203874 0.687285223367695  0.0701402805611338 0.618556701030926  L 0.420841683366746 0.103092783505161  C 0.467601870407492 0.0343642611683777  0.521376085504329 0  0.582164328657313 0  C 0.642952571810298 0  0.696726786907135 0.0343642611683777  0.74348697394791 0.103092783505161  L 3.5 4.15463917525773  L 6.25651302605212 0.103092783505161  C 6.30327321309287 0.0343642611683777  6.3570474281897 0  6.41783567134269 0  C 6.47862391449567 0  6.53239812959251 0.0343642611683777  6.57915831663325 0.103092783505161  L 6.92985971943887 0.618556701030926  Z " fill-rule="nonzero" fill="#a1a1a1" stroke="none" transform="matrix(1 0 0 1 227 116 )" />
  </g>
</svg>