<?xml version="1.0" encoding="utf-8"?>
<svg version="1.1" xmlns:xlink="http://www.w3.org/1999/xlink" width="12px" height="12px" viewBox="276 630.5  12 12" xmlns="http://www.w3.org/2000/svg">
  <path d="M 282 630.5  C 285.36 630.5  288 633.14  288 636.5  C 288 639.86  285.36 642.5  282 642.5  C 278.64 642.5  276 639.86  276 636.5  C 276 633.14  278.64 630.5  282 630.5  Z " fill-rule="nonzero" fill="#ffffff" stroke="none" />
  <path d="M 282 631  C 285.08 631  287.5 633.42  287.5 636.5  C 287.5 639.58  285.08 642  282 642  C 278.92 642  276.5 639.58  276.5 636.5  C 276.5 633.42  278.92 631  282 631  Z " stroke-width="1" stroke="#797979" fill="none" />
  <path d="M 282 639.5  C 280.32 639.5  279 638.18  279 636.5  C 279 634.82  280.32 633.5  282 633.5  C 283.68 633.5  285 634.82  285 636.5  C 285 638.18  283.68 639.5  282 639.5  " fill-rule="nonzero" fill="#797979" stroke="none" />
</svg>