<?xml version="1.0" encoding="utf-8"?>
<svg version="1.1" xmlns:xlink="http://www.w3.org/1999/xlink" width="12px" height="12px" viewBox="523 630.5  12 12" xmlns="http://www.w3.org/2000/svg">
  <path d="M 529 630.5  C 532.36 630.5  535 633.14  535 636.5  C 535 639.86  532.36 642.5  529 642.5  C 525.64 642.5  523 639.86  523 636.5  C 523 633.14  525.64 630.5  529 630.5  Z " fill-rule="nonzero" fill="#ffffff" stroke="none" />
  <path d="M 529 631  C 532.08 631  534.5 633.42  534.5 636.5  C 534.5 639.58  532.08 642  529 642  C 525.92 642  523.5 639.58  523.5 636.5  C 523.5 633.42  525.92 631  529 631  Z " stroke-width="1" stroke="#797979" fill="none" />
  <path d="M 529 639.5  C 527.32 639.5  526 638.18  526 636.5  C 526 634.82  527.32 633.5  529 633.5  C 530.68 633.5  532 634.82  532 636.5  C 532 638.18  530.68 639.5  529 639.5  " fill-rule="nonzero" fill="#797979" stroke="none" />
</svg>