<?xml version="1.0" encoding="utf-8"?>
<svg version="1.1" xmlns:xlink="http://www.w3.org/1999/xlink" width="12px" height="12px" viewBox="98 168  12 12" xmlns="http://www.w3.org/2000/svg">
  <path d="M 104 168  C 107.36 168  110 170.64  110 174  C 110 177.36  107.36 180  104 180  C 100.64 180  98 177.36  98 174  C 98 170.64  100.64 168  104 168  Z " fill-rule="nonzero" fill="#ffffff" stroke="none" />
  <path d="M 104 168.5  C 107.08 168.5  109.5 170.92  109.5 174  C 109.5 177.08  107.08 179.5  104 179.5  C 100.92 179.5  98.5 177.08  98.5 174  C 98.5 170.92  100.92 168.5  104 168.5  Z " stroke-width="1" stroke="#797979" fill="none" />
  <path d="M 104 177  C 102.32 177  101 175.68  101 174  C 101 172.32  102.32 171  104 171  C 105.68 171  107 172.32  107 174  C 107 175.68  105.68 177  104 177  " fill-rule="nonzero" fill="#797979" stroke="none" />
</svg>