<?xml version="1.0" encoding="utf-8"?>
<svg version="1.1" xmlns:xlink="http://www.w3.org/1999/xlink" width="12px" height="12px" viewBox="237 1038  12 12" xmlns="http://www.w3.org/2000/svg">
  <path d="M 243 1038  C 246.36 1038  249 1040.64  249 1044  C 249 1047.36  246.36 1050  243 1050  C 239.64 1050  237 1047.36  237 1044  C 237 1040.64  239.64 1038  243 1038  Z " fill-rule="nonzero" fill="#ffffff" stroke="none" />
  <path d="M 243 1038.5  C 246.08 1038.5  248.5 1040.92  248.5 1044  C 248.5 1047.08  246.08 1049.5  243 1049.5  C 239.92 1049.5  237.5 1047.08  237.5 1044  C 237.5 1040.92  239.92 1038.5  243 1038.5  Z " stroke-width="1" stroke="#797979" fill="none" />
  <path d="M 243 1047  C 241.32 1047  240 1045.68  240 1044  C 240 1042.32  241.32 1041  243 1041  C 244.68 1041  246 1042.32  246 1044  C 246 1045.68  244.68 1047  243 1047  " fill-rule="nonzero" fill="#797979" stroke="none" />
</svg>