<?xml version="1.0" encoding="utf-8"?>
<svg version="1.1" xmlns:xlink="http://www.w3.org/1999/xlink" width="12px" height="12px" viewBox="227 543  12 12" xmlns="http://www.w3.org/2000/svg">
  <path d="M 233 543  C 236.36 543  239 545.64  239 549  C 239 552.36  236.36 555  233 555  C 229.64 555  227 552.36  227 549  C 227 545.64  229.64 543  233 543  Z " fill-rule="nonzero" fill="#ffffff" stroke="none" />
  <path d="M 233 543.5  C 236.08 543.5  238.5 545.92  238.5 549  C 238.5 552.08  236.08 554.5  233 554.5  C 229.92 554.5  227.5 552.08  227.5 549  C 227.5 545.92  229.92 543.5  233 543.5  Z " stroke-width="1" stroke="#797979" fill="none" />
  <path d="M 233 552  C 231.32 552  230 550.68  230 549  C 230 547.32  231.32 546  233 546  C 234.68 546  236 547.32  236 549  C 236 550.68  234.68 552  233 552  " fill-rule="nonzero" fill="#797979" stroke="none" />
</svg>