<?xml version="1.0" encoding="utf-8"?>
<svg version="1.1" xmlns:xlink="http://www.w3.org/1999/xlink" width="12px" height="12px" viewBox="227 590  12 12" xmlns="http://www.w3.org/2000/svg">
  <path d="M 233 590  C 236.36 590  239 592.64  239 596  C 239 599.36  236.36 602  233 602  C 229.64 602  227 599.36  227 596  C 227 592.64  229.64 590  233 590  Z " fill-rule="nonzero" fill="#ffffff" stroke="none" />
  <path d="M 233 590.5  C 236.08 590.5  238.5 592.92  238.5 596  C 238.5 599.08  236.08 601.5  233 601.5  C 229.92 601.5  227.5 599.08  227.5 596  C 227.5 592.92  229.92 590.5  233 590.5  Z " stroke-width="1" stroke="#797979" fill="none" />
  <path d="M 233 599  C 231.32 599  230 597.68  230 596  C 230 594.32  231.32 593  233 593  C 234.68 593  236 594.32  236 596  C 236 597.68  234.68 599  233 599  " fill-rule="nonzero" fill="#797979" stroke="none" />
</svg>