<?xml version="1.0" encoding="utf-8"?>
<svg version="1.1" xmlns:xlink="http://www.w3.org/1999/xlink" width="12px" height="12px" viewBox="237 870  12 12" xmlns="http://www.w3.org/2000/svg">
  <path d="M 243 870  C 246.36 870  249 872.64  249 876  C 249 879.36  246.36 882  243 882  C 239.64 882  237 879.36  237 876  C 237 872.64  239.64 870  243 870  Z " fill-rule="nonzero" fill="#ffffff" stroke="none" />
  <path d="M 243 870.5  C 246.08 870.5  248.5 872.92  248.5 876  C 248.5 879.08  246.08 881.5  243 881.5  C 239.92 881.5  237.5 879.08  237.5 876  C 237.5 872.92  239.92 870.5  243 870.5  Z " stroke-width="1" stroke="#797979" fill="none" />
  <path d="M 243 879  C 241.32 879  240 877.68  240 876  C 240 874.32  241.32 873  243 873  C 244.68 873  246 874.32  246 876  C 246 877.68  244.68 879  243 879  " fill-rule="nonzero" fill="#797979" stroke="none" />
</svg>