<?xml version="1.0" encoding="utf-8"?>
<svg version="1.1" xmlns:xlink="http://www.w3.org/1999/xlink" width="12px" height="12px" viewBox="100 295  12 12" xmlns="http://www.w3.org/2000/svg">
  <path d="M 106 295  C 109.36 295  112 297.64  112 301  C 112 304.36  109.36 307  106 307  C 102.64 307  100 304.36  100 301  C 100 297.64  102.64 295  106 295  Z " fill-rule="nonzero" fill="#ffffff" stroke="none" />
  <path d="M 106 295.5  C 109.08 295.5  111.5 297.92  111.5 301  C 111.5 304.08  109.08 306.5  106 306.5  C 102.92 306.5  100.5 304.08  100.5 301  C 100.5 297.92  102.92 295.5  106 295.5  Z " stroke-width="1" stroke="#797979" fill="none" />
  <path d="M 106 304  C 104.32 304  103 302.68  103 301  C 103 299.32  104.32 298  106 298  C 107.68 298  109 299.32  109 301  C 109 302.68  107.68 304  106 304  " fill-rule="nonzero" fill="#797979" stroke="none" />
</svg>