<?xml version="1.0" encoding="utf-8"?>
<svg version="1.1" xmlns:xlink="http://www.w3.org/1999/xlink" width="12px" height="12px" viewBox="414 1546  12 12" xmlns="http://www.w3.org/2000/svg">
  <path d="M 420 1546  C 423.36 1546  426 1548.64  426 1552  C 426 1555.36  423.36 1558  420 1558  C 416.64 1558  414 1555.36  414 1552  C 414 1548.64  416.64 1546  420 1546  Z " fill-rule="nonzero" fill="#ffffff" stroke="none" />
  <path d="M 420 1546.5  C 423.08 1546.5  425.5 1548.92  425.5 1552  C 425.5 1555.08  423.08 1557.5  420 1557.5  C 416.92 1557.5  414.5 1555.08  414.5 1552  C 414.5 1548.92  416.92 1546.5  420 1546.5  Z " stroke-width="1" stroke="#797979" fill="none" />
  <path d="M 420 1555  C 418.32 1555  417 1553.68  417 1552  C 417 1550.32  418.32 1549  420 1549  C 421.68 1549  423 1550.32  423 1552  C 423 1553.68  421.68 1555  420 1555  " fill-rule="nonzero" fill="#797979" stroke="none" />
</svg>