<?xml version="1.0" encoding="utf-8"?>
<svg version="1.1" xmlns:xlink="http://www.w3.org/1999/xlink" width="12px" height="12px" viewBox="274 1546  12 12" xmlns="http://www.w3.org/2000/svg">
  <path d="M 280 1546  C 283.36 1546  286 1548.64  286 1552  C 286 1555.36  283.36 1558  280 1558  C 276.64 1558  274 1555.36  274 1552  C 274 1548.64  276.64 1546  280 1546  Z " fill-rule="nonzero" fill="#ffffff" stroke="none" />
  <path d="M 280 1546.5  C 283.08 1546.5  285.5 1548.92  285.5 1552  C 285.5 1555.08  283.08 1557.5  280 1557.5  C 276.92 1557.5  274.5 1555.08  274.5 1552  C 274.5 1548.92  276.92 1546.5  280 1546.5  Z " stroke-width="1" stroke="#797979" fill="none" />
  <path d="M 280 1555  C 278.32 1555  277 1553.68  277 1552  C 277 1550.32  278.32 1549  280 1549  C 281.68 1549  283 1550.32  283 1552  C 283 1553.68  281.68 1555  280 1555  " fill-rule="nonzero" fill="#797979" stroke="none" />
</svg>