<?xml version="1.0" encoding="utf-8"?>
<svg version="1.1" xmlns:xlink="http://www.w3.org/1999/xlink" width="12px" height="11px" xmlns="http://www.w3.org/2000/svg">
  <g transform="matrix(1 0 0 1 -945 -318 )">
    <path d="M 10.3823529411765 8.53982843137255  C 10.5196078431373 8.4140114379085  10.5882352941176 8.26348039215686  10.5882352941176 8.08823529411765  C 10.5882352941176 7.90849673202614  10.5196078431373 7.75571895424837  10.3823529411765 7.62990196078431  L 8.85294117647059 6.22794117647059  C 8.7156862745098 6.10212418300654  8.54901960784314 6.03921568627451  8.35294117647059 6.03921568627451  C 8.14705882352941 6.03921568627451  7.97058823529412 6.11111111111111  7.82352941176471 6.25490196078431  C 7.83823529411765 6.26838235294118  7.88480392156863 6.30994689542484  7.96323529411765 6.37959558823529  C 8.04166666666667 6.44924428104575  8.09436274509804 6.49754901960784  8.12132352941176 6.52450980392157  C 8.14828431372549 6.55147058823529  8.18504901960784 6.59415849673203  8.23161764705882 6.65257352941176  C 8.2781862745098 6.7109885620915  8.31004901960784 6.76828022875817  8.32720588235294 6.82444852941176  C 8.34436274509804 6.88061683006536  8.35294117647059 6.94240196078431  8.35294117647059 7.00980392156863  C 8.35294117647059 7.18954248366013  8.2843137254902 7.34232026143791  8.14705882352941 7.46813725490196  C 8.00980392156863 7.59395424836601  7.84313725490196 7.65686274509804  7.64705882352941 7.65686274509804  C 7.57352941176471 7.65686274509804  7.50612745098039 7.64899918300654  7.44485294117647 7.63327205882353  C 7.38357843137255 7.61754493464052  7.32107843137255 7.58833741830065  7.25735294117647 7.54564950980392  C 7.19362745098039 7.50296160130719  7.14705882352941 7.46926062091503  7.11764705882353 7.44454656862745  C 7.08823529411765 7.41983251633987  7.03553921568628 7.37152777777778  6.95955882352941 7.29963235294118  C 6.88357843137255 7.22773692810457  6.83823529411765 7.18504901960784  6.82352941176471 7.17156862745098  C 6.66176470588235 7.3108660130719  6.58088235294118 7.47487745098039  6.58088235294118 7.66360294117647  C 6.58088235294118 7.84334150326797  6.64950980392157 7.99611928104575  6.78676470588235 8.1219362745098  L 8.30147058823529 9.5171568627451  C 8.43382352941176 9.63848039215686  8.60049019607843 9.69914215686275  8.80147058823529 9.69914215686275  C 8.99754901960784 9.69914215686275  9.16421568627451 9.64072712418301  9.30147058823529 9.52389705882353  L 10.3823529411765 8.53982843137255  Z M 5.17647058823529 3.82843137254902  C 5.33823529411765 3.6891339869281  5.41911764705882 3.52512254901961  5.41911764705882 3.33639705882353  C 5.41911764705882 3.15665849673203  5.35049019607843 3.00388071895425  5.21323529411765 2.8780637254902  L 3.69852941176471 1.4828431372549  C 3.56127450980392 1.35702614379085  3.39460784313725 1.29411764705882  3.19852941176471 1.29411764705882  C 3.00735294117647 1.29411764705882  2.8406862745098 1.35477941176471  2.69852941176471 1.47610294117647  L 1.61764705882353 2.46017156862745  C 1.48039215686275 2.5859885620915  1.41176470588235 2.73651960784314  1.41176470588235 2.91176470588235  C 1.41176470588235 3.09150326797386  1.48039215686275 3.24428104575163  1.61764705882353 3.37009803921569  L 3.14705882352941 4.77205882352941  C 3.27941176470588 4.89338235294118  3.44607843137255 4.95404411764706  3.64705882352941 4.95404411764706  C 3.85294117647059 4.95404411764706  4.02941176470588 4.8843954248366  4.17647058823529 4.74509803921569  C 4.16176470588235 4.73161764705882  4.11519607843137 4.69005310457516  4.03676470588235 4.62040441176471  C 3.95833333333333 4.55075571895425  3.90563725490196 4.50245098039216  3.87867647058824 4.47549019607843  C 3.85171568627451 4.44852941176471  3.81495098039216 4.40584150326797  3.76838235294118 4.34742647058824  C 3.7218137254902 4.2890114379085  3.68995098039216 4.23171977124183  3.67279411764706 4.17555147058824  C 3.65563725490196 4.11938316993464  3.64705882352941 4.05759803921569  3.64705882352941 3.99019607843137  C 3.64705882352941 3.81045751633987  3.7156862745098 3.65767973856209  3.85294117647059 3.53186274509804  C 3.99019607843137 3.40604575163399  4.15686274509804 3.34313725490196  4.35294117647059 3.34313725490196  C 4.42647058823529 3.34313725490196  4.49387254901961 3.35100081699346  4.55514705882353 3.36672794117647  C 4.61642156862745 3.38245506535948  4.67892156862745 3.41166258169935  4.74264705882353 3.45435049019608  C 4.80637254901961 3.49703839869281  4.85294117647059 3.53073937908497  4.88235294117647 3.55545343137255  C 4.91176470588235 3.58016748366013  4.96446078431373 3.62847222222222  5.04044117647059 3.70036764705882  C 5.11642156862745 3.77226307189542  5.16176470588235 3.81495098039216  5.17647058823529 3.82843137254902  Z M 11.3823529411765 6.71323529411765  C 11.7941176470588 7.0906862745098  12 7.54901960784314  12 8.08823529411765  C 12 8.62745098039216  11.7916666666667 9.08353758169935  11.375 9.45649509803921  L 10.2941176470588 10.4405637254902  C 9.88725490196079 10.8135212418301  9.38970588235294 11  8.80147058823529 11  C 8.20833333333334 11  7.70833333333333 10.8090277777778  7.30147058823529 10.4270833333333  L 5.78676470588235 9.03186274509804  C 5.37990196078431 8.65890522875817  5.17647058823529 8.20281862745098  5.17647058823529 7.66360294117647  C 5.17647058823529 7.1109068627451  5.3921568627451 6.64133986928105  5.82352941176471 6.25490196078431  L 5.17647058823529 5.66176470588235  C 4.75490196078431 6.05718954248366  4.24509803921569 6.25490196078431  3.64705882352941 6.25490196078431  C 3.05882352941176 6.25490196078431  2.55882352941176 6.06617647058824  2.14705882352941 5.68872549019608  L 0.617647058823529 4.28676470588235  C 0.205882352941176 3.9093137254902  0 3.45098039215686  0 2.91176470588235  C 0 2.37254901960784  0.208333333333333 1.91646241830065  0.625 1.54350490196078  L 1.70588235294118 0.559436274509804  C 2.11274509803922 0.186478758169934  2.61029411764706 0  3.19852941176471 0  C 3.79166666666667 0  4.29166666666667 0.190972222222222  4.69852941176471 0.572916666666667  L 6.21323529411765 1.96813725490196  C 6.62009803921569 2.34109477124183  6.82352941176471 2.79718137254902  6.82352941176471 3.33639705882353  C 6.82352941176471 3.8890931372549  6.6078431372549 4.35866013071895  6.17647058823529 4.74509803921569  L 6.82352941176471 5.33823529411765  C 7.24509803921569 4.94281045751634  7.75490196078431 4.74509803921569  8.35294117647059 4.74509803921569  C 8.94117647058824 4.74509803921569  9.44117647058824 4.93382352941176  9.85294117647059 5.31127450980392  L 11.3823529411765 6.71323529411765  Z " fill-rule="nonzero" fill="#6699ff" stroke="none" transform="matrix(1 0 0 1 945 318 )" />
  </g>
</svg>