<?xml version="1.0" encoding="utf-8"?>
<svg version="1.1" xmlns:xlink="http://www.w3.org/1999/xlink" width="12px" height="12px" viewBox="98 226  12 12" xmlns="http://www.w3.org/2000/svg">
  <path d="M 104 226  C 107.36 226  110 228.64  110 232  C 110 235.36  107.36 238  104 238  C 100.64 238  98 235.36  98 232  C 98 228.64  100.64 226  104 226  Z " fill-rule="nonzero" fill="#ffffff" stroke="none" />
  <path d="M 104 226.5  C 107.08 226.5  109.5 228.92  109.5 232  C 109.5 235.08  107.08 237.5  104 237.5  C 100.92 237.5  98.5 235.08  98.5 232  C 98.5 228.92  100.92 226.5  104 226.5  Z " stroke-width="1" stroke="#797979" fill="none" />
  <path d="M 104 235  C 102.32 235  101 233.68  101 232  C 101 230.32  102.32 229  104 229  C 105.68 229  107 230.32  107 232  C 107 233.68  105.68 235  104 235  " fill-rule="nonzero" fill="#797979" stroke="none" />
</svg>