<?xml version="1.0" encoding="utf-8"?>
<svg version="1.1" xmlns:xlink="http://www.w3.org/1999/xlink" width="12px" height="12px" viewBox="329 178  12 12" xmlns="http://www.w3.org/2000/svg">
  <path d="M 335 178  C 338.36 178  341 180.64  341 184  C 341 187.36  338.36 190  335 190  C 331.64 190  329 187.36  329 184  C 329 180.64  331.64 178  335 178  Z " fill-rule="nonzero" fill="#ffffff" stroke="none" />
  <path d="M 335 178.5  C 338.08 178.5  340.5 180.92  340.5 184  C 340.5 187.08  338.08 189.5  335 189.5  C 331.92 189.5  329.5 187.08  329.5 184  C 329.5 180.92  331.92 178.5  335 178.5  Z " stroke-width="1" stroke="#797979" fill="none" />
  <path d="M 335 187  C 333.32 187  332 185.68  332 184  C 332 182.32  333.32 181  335 181  C 336.68 181  338 182.32  338 184  C 338 185.68  336.68 187  335 187  " fill-rule="nonzero" fill="#797979" stroke="none" />
</svg>