<?xml version="1.0" encoding="utf-8"?>
<svg version="1.1" xmlns:xlink="http://www.w3.org/1999/xlink" width="12px" height="12px" viewBox="217 416  12 12" xmlns="http://www.w3.org/2000/svg">
  <path d="M 223 416  C 226.36 416  229 418.64  229 422  C 229 425.36  226.36 428  223 428  C 219.64 428  217 425.36  217 422  C 217 418.64  219.64 416  223 416  Z " fill-rule="nonzero" fill="#ffffff" stroke="none" />
  <path d="M 223 416.5  C 226.08 416.5  228.5 418.92  228.5 422  C 228.5 425.08  226.08 427.5  223 427.5  C 219.92 427.5  217.5 425.08  217.5 422  C 217.5 418.92  219.92 416.5  223 416.5  Z " stroke-width="1" stroke="#797979" fill="none" />
  <path d="M 223 425  C 221.32 425  220 423.68  220 422  C 220 420.32  221.32 419  223 419  C 224.68 419  226 420.32  226 422  C 226 423.68  224.68 425  223 425  " fill-rule="nonzero" fill="#797979" stroke="none" />
</svg>