<?xml version="1.0" encoding="utf-8"?>
<svg version="1.1" xmlns:xlink="http://www.w3.org/1999/xlink" width="12px" height="12px" viewBox="321 528  12 12" xmlns="http://www.w3.org/2000/svg">
  <path d="M 327 528  C 330.36 528  333 530.64  333 534  C 333 537.36  330.36 540  327 540  C 323.64 540  321 537.36  321 534  C 321 530.64  323.64 528  327 528  Z " fill-rule="nonzero" fill="#ffffff" stroke="none" />
  <path d="M 327 528.5  C 330.08 528.5  332.5 530.92  332.5 534  C 332.5 537.08  330.08 539.5  327 539.5  C 323.92 539.5  321.5 537.08  321.5 534  C 321.5 530.92  323.92 528.5  327 528.5  Z " stroke-width="1" stroke="#797979" fill="none" />
  <path d="M 327 537  C 325.32 537  324 535.68  324 534  C 324 532.32  325.32 531  327 531  C 328.68 531  330 532.32  330 534  C 330 535.68  328.68 537  327 537  " fill-rule="nonzero" fill="#797979" stroke="none" />
</svg>