<?xml version="1.0" encoding="utf-8"?>
<svg version="1.1" xmlns:xlink="http://www.w3.org/1999/xlink" width="12px" height="12px" viewBox="217 319  12 12" xmlns="http://www.w3.org/2000/svg">
  <path d="M 223 319  C 226.36 319  229 321.64  229 325  C 229 328.36  226.36 331  223 331  C 219.64 331  217 328.36  217 325  C 217 321.64  219.64 319  223 319  Z " fill-rule="nonzero" fill="#ffffff" stroke="none" />
  <path d="M 223 319.5  C 226.08 319.5  228.5 321.92  228.5 325  C 228.5 328.08  226.08 330.5  223 330.5  C 219.92 330.5  217.5 328.08  217.5 325  C 217.5 321.92  219.92 319.5  223 319.5  Z " stroke-width="1" stroke="#797979" fill="none" />
  <path d="M 223 328  C 221.32 328  220 326.68  220 325  C 220 323.32  221.32 322  223 322  C 224.68 322  226 323.32  226 325  C 226 326.68  224.68 328  223 328  " fill-rule="nonzero" fill="#797979" stroke="none" />
</svg>