<?xml version="1.0" encoding="utf-8"?>
<svg version="1.1" xmlns:xlink="http://www.w3.org/1999/xlink" width="12px" height="12px" viewBox="317 416  12 12" xmlns="http://www.w3.org/2000/svg">
  <path d="M 323 416  C 326.36 416  329 418.64  329 422  C 329 425.36  326.36 428  323 428  C 319.64 428  317 425.36  317 422  C 317 418.64  319.64 416  323 416  Z " fill-rule="nonzero" fill="#ffffff" stroke="none" />
  <path d="M 323 416.5  C 326.08 416.5  328.5 418.92  328.5 422  C 328.5 425.08  326.08 427.5  323 427.5  C 319.92 427.5  317.5 425.08  317.5 422  C 317.5 418.92  319.92 416.5  323 416.5  Z " stroke-width="1" stroke="#797979" fill="none" />
  <path d="M 323 425  C 321.32 425  320 423.68  320 422  C 320 420.32  321.32 419  323 419  C 324.68 419  326 420.32  326 422  C 326 423.68  324.68 425  323 425  " fill-rule="nonzero" fill="#797979" stroke="none" />
</svg>