<?xml version="1.0" encoding="utf-8"?>
<svg version="1.1" xmlns:xlink="http://www.w3.org/1999/xlink" width="12px" height="12px" viewBox="317 319  12 12" xmlns="http://www.w3.org/2000/svg">
  <path d="M 323 319  C 326.36 319  329 321.64  329 325  C 329 328.36  326.36 331  323 331  C 319.64 331  317 328.36  317 325  C 317 321.64  319.64 319  323 319  Z " fill-rule="nonzero" fill="#ffffff" stroke="none" />
  <path d="M 323 319.5  C 326.08 319.5  328.5 321.92  328.5 325  C 328.5 328.08  326.08 330.5  323 330.5  C 319.92 330.5  317.5 328.08  317.5 325  C 317.5 321.92  319.92 319.5  323 319.5  Z " stroke-width="1" stroke="#797979" fill="none" />
  <path d="M 323 328  C 321.32 328  320 326.68  320 325  C 320 323.32  321.32 322  323 322  C 324.68 322  326 323.32  326 325  C 326 326.68  324.68 328  323 328  " fill-rule="nonzero" fill="#797979" stroke="none" />
</svg>