<?xml version="1.0" encoding="utf-8"?>
<svg version="1.1" xmlns:xlink="http://www.w3.org/1999/xlink" width="19px" height="13px" xmlns="http://www.w3.org/2000/svg">
  <g transform="matrix(1 0 0 1 -236 -1128 )">
    <path d="M 12.57265625 7.00319602272727  C 12.6353298611111 6.94472064393939  12.6666666666667 6.87547348484848  12.6666666666667 6.79545454545455  C 12.6666666666667 6.7092803030303  12.6369791666667 6.63849431818182  12.5776041666667 6.58309659090909  L 9.09427083333333 3.33309659090909  C 9.03489583333333 3.27769886363636  8.95902777777778 3.25  8.86666666666667 3.25  C 8.77430555555556 3.25  8.6984375 3.27769886363636  8.6390625 3.33309659090909  L 5.165625 6.57386363636364  C 5.09965277777778 6.64772727272727  5.06666666666667 6.72159090909091  5.06666666666667 6.79545454545455  C 5.06666666666667 6.88162878787879  5.09635416666667 6.95241477272727  5.15572916666667 7.0078125  C 5.21510416666667 7.06321022727273  5.29097222222222 7.09090909090909  5.38333333333333 7.09090909090909  L 7.6 7.09090909090909  L 7.6 10.3409090909091  C 7.6 10.420928030303  7.63133680555556 10.4901751893939  7.69401041666667 10.5486505681818  C 7.75668402777778 10.6071259469697  7.83090277777778 10.6363636363636  7.91666666666667 10.6363636363636  L 9.81666666666667 10.6363636363636  C 9.90243055555556 10.6363636363636  9.97664930555556 10.6071259469697  10.0393229166667 10.5486505681818  C 10.1019965277778 10.4901751893939  10.1333333333333 10.420928030303  10.1333333333333 10.3409090909091  L 10.1333333333333 7.09090909090909  L 12.35 7.09090909090909  C 12.4357638888889 7.09090909090909  12.5099826388889 7.06167140151515  12.57265625 7.00319602272727  Z M 18.1736979166667 7.25248579545455  C 18.7245659722222 7.89571496212121  19 8.62973484848485  19 9.45454545454546  C 19 10.4332386363636  18.62890625 11.2688210227273  17.88671875 11.9612926136364  C 17.14453125 12.6537642045455  16.2489583333333 13  15.2 13  L 4.43333333333333 13  C 3.21284722222222 13  2.16883680555556 12.5952888257576  1.30130208333333 11.7858664772727  C 0.433767361111111 10.9764441287879  0 10.0023674242424  0 8.86363636363637  C 0 8.06344696969697  0.230902777777778 7.32481060606061  0.692708333333333 6.64772727272727  C 1.15451388888889 5.97064393939394  1.77465277777778 5.46283143939394  2.553125 5.12428977272727  C 2.53993055555556 4.93963068181818  2.53333333333333 4.80729166666667  2.53333333333333 4.72727272727273  C 2.53333333333333 3.42234848484848  3.028125 2.30823863636364  4.01770833333333 1.38494318181818  C 5.00729166666667 0.461647727272727  6.20138888888889 0  7.6 0  C 8.62916666666667 0  9.57092013888889 0.267755681818182  10.4252604166667 0.803267045454545  C 11.2796006944444 1.33877840909091  11.9013888888889 2.04971590909091  12.290625 2.93607954545455  C 12.7590277777778 2.55445075757576  13.3065972222222 2.36363636363636  13.9333333333333 2.36363636363636  C 14.6326388888889 2.36363636363636  15.2296875 2.59446022727273  15.7244791666667 3.05610795454546  C 16.2192708333333 3.51775568181818  16.4666666666667 4.0748106060606  16.4666666666667 4.72727272727273  C 16.4666666666667 5.19507575757576  16.3314236111111 5.61979166666667  16.0609375 6.00142045454546  C 16.9185763888889 6.19223484848485  17.6228298611111 6.60925662878788  18.1736979166667 7.25248579545455  Z " fill-rule="nonzero" fill="#009999" stroke="none" transform="matrix(1 0 0 1 236 1128 )" />
  </g>
</svg>