<?xml version="1.0" encoding="utf-8"?>
<svg version="1.1" xmlns:xlink="http://www.w3.org/1999/xlink" width="12px" height="12px" viewBox="224 380  12 12" xmlns="http://www.w3.org/2000/svg">
  <path d="M 230 380  C 233.36 380  236 382.64  236 386  C 236 389.36  233.36 392  230 392  C 226.64 392  224 389.36  224 386  C 224 382.64  226.64 380  230 380  Z " fill-rule="nonzero" fill="#ffffff" stroke="none" />
  <path d="M 230 380.5  C 233.08 380.5  235.5 382.92  235.5 386  C 235.5 389.08  233.08 391.5  230 391.5  C 226.92 391.5  224.5 389.08  224.5 386  C 224.5 382.92  226.92 380.5  230 380.5  Z " stroke-width="1" stroke="#797979" fill="none" />
  <path d="M 230 389  C 228.32 389  227 387.68  227 386  C 227 384.32  228.32 383  230 383  C 231.68 383  233 384.32  233 386  C 233 387.68  231.68 389  230 389  " fill-rule="nonzero" fill="#797979" stroke="none" />
</svg>