<?xml version="1.0" encoding="utf-8"?>
<svg version="1.1" xmlns:xlink="http://www.w3.org/1999/xlink" width="12px" height="12px" viewBox="863 379  12 12" xmlns="http://www.w3.org/2000/svg">
  <path d="M 869 379  C 872.36 379  875 381.64  875 385  C 875 388.36  872.36 391  869 391  C 865.64 391  863 388.36  863 385  C 863 381.64  865.64 379  869 379  Z " fill-rule="nonzero" fill="#ffffff" stroke="none" />
  <path d="M 869 379.5  C 872.08 379.5  874.5 381.92  874.5 385  C 874.5 388.08  872.08 390.5  869 390.5  C 865.92 390.5  863.5 388.08  863.5 385  C 863.5 381.92  865.92 379.5  869 379.5  Z " stroke-width="1" stroke="#797979" fill="none" />
  <path d="M 869 388  C 867.32 388  866 386.68  866 385  C 866 383.32  867.32 382  869 382  C 870.68 382  872 383.32  872 385  C 872 386.68  870.68 388  869 388  " fill-rule="nonzero" fill="#797979" stroke="none" />
</svg>