<?xml version="1.0" encoding="utf-8"?>
<svg version="1.1" xmlns:xlink="http://www.w3.org/1999/xlink" width="12px" height="12px" viewBox="224 619  12 12" xmlns="http://www.w3.org/2000/svg">
  <path d="M 230 619  C 233.36 619  236 621.64  236 625  C 236 628.36  233.36 631  230 631  C 226.64 631  224 628.36  224 625  C 224 621.64  226.64 619  230 619  Z " fill-rule="nonzero" fill="#ffffff" stroke="none" />
  <path d="M 230 619.5  C 233.08 619.5  235.5 621.92  235.5 625  C 235.5 628.08  233.08 630.5  230 630.5  C 226.92 630.5  224.5 628.08  224.5 625  C 224.5 621.92  226.92 619.5  230 619.5  Z " stroke-width="1" stroke="#797979" fill="none" />
  <path d="M 230 628  C 228.32 628  227 626.68  227 625  C 227 623.32  228.32 622  230 622  C 231.68 622  233 623.32  233 625  C 233 626.68  231.68 628  230 628  " fill-rule="nonzero" fill="#797979" stroke="none" />
</svg>