<?xml version="1.0" encoding="utf-8"?>
<svg version="1.1" xmlns:xlink="http://www.w3.org/1999/xlink" width="12px" height="12px" viewBox="324 619  12 12" xmlns="http://www.w3.org/2000/svg">
  <path d="M 330 619  C 333.36 619  336 621.64  336 625  C 336 628.36  333.36 631  330 631  C 326.64 631  324 628.36  324 625  C 324 621.64  326.64 619  330 619  Z " fill-rule="nonzero" fill="#ffffff" stroke="none" />
  <path d="M 330 619.5  C 333.08 619.5  335.5 621.92  335.5 625  C 335.5 628.08  333.08 630.5  330 630.5  C 326.92 630.5  324.5 628.08  324.5 625  C 324.5 621.92  326.92 619.5  330 619.5  Z " stroke-width="1" stroke="#797979" fill="none" />
  <path d="M 330 628  C 328.32 628  327 626.68  327 625  C 327 623.32  328.32 622  330 622  C 331.68 622  333 623.32  333 625  C 333 626.68  331.68 628  330 628  " fill-rule="nonzero" fill="#797979" stroke="none" />
</svg>