<?xml version="1.0" encoding="utf-8"?>
<svg version="1.1" xmlns:xlink="http://www.w3.org/1999/xlink" width="12px" height="12px" viewBox="224 679  12 12" xmlns="http://www.w3.org/2000/svg">
  <path d="M 230 679  C 233.36 679  236 681.64  236 685  C 236 688.36  233.36 691  230 691  C 226.64 691  224 688.36  224 685  C 224 681.64  226.64 679  230 679  Z " fill-rule="nonzero" fill="#ffffff" stroke="none" />
  <path d="M 230 679.5  C 233.08 679.5  235.5 681.92  235.5 685  C 235.5 688.08  233.08 690.5  230 690.5  C 226.92 690.5  224.5 688.08  224.5 685  C 224.5 681.92  226.92 679.5  230 679.5  Z " stroke-width="1" stroke="#797979" fill="none" />
  <path d="M 230 688  C 228.32 688  227 686.68  227 685  C 227 683.32  228.32 682  230 682  C 231.68 682  233 683.32  233 685  C 233 686.68  231.68 688  230 688  " fill-rule="nonzero" fill="#797979" stroke="none" />
</svg>