<?xml version="1.0" encoding="utf-8"?>
<svg version="1.1" xmlns:xlink="http://www.w3.org/1999/xlink" width="237px" height="36px" xmlns="http://www.w3.org/2000/svg">
  <defs>
    <mask fill="white" id="clip1977">
      <path d="M 0 30.2222222222222  L 0 1.77777777777783  C 0 0.782222222222117  0.923603603603624 0  2.09909909909902 0  L 230.900900900901 0  C 232.076396396396 0  233 0.782222222222117  233 1.77777777777783  L 233 30.2222222222222  C 233 31.2177777777779  232.076396396396 32  230.900900900901 32  L 2.09909909909902 32  C 0.923603603603624 32  0 31.2177777777779  0 30.2222222222222  Z " fill-rule="evenodd" />
    </mask>
    <filter x="1211px" y="1234px" width="237px" height="36px" filterUnits="userSpaceOnUse" id="filter1978">
      <feOffset dx="0" dy="1" in="SourceAlpha" result="shadowOffsetInner" />
      <feGaussianBlur stdDeviation="1" in="shadowOffsetInner" result="shadowGaussian" />
      <feComposite in2="shadowGaussian" operator="atop" in="SourceAlpha" result="shadowComposite" />
      <feColorMatrix type="matrix" values="0 0 0 0 0.4  0 0 0 0 0.4  0 0 0 0 0.4  0 0 0 0.349019607843137 0  " in="shadowComposite" />
    </filter>
    <g id="widget1979">
      <path d="M 0 30.2222222222222  L 0 1.77777777777783  C 0 0.782222222222117  0.923603603603624 0  2.09909909909902 0  L 230.900900900901 0  C 232.076396396396 0  233 0.782222222222117  233 1.77777777777783  L 233 30.2222222222222  C 233 31.2177777777779  232.076396396396 32  230.900900900901 32  L 2.09909909909902 32  C 0.923603603603624 32  0 31.2177777777779  0 30.2222222222222  Z " fill-rule="nonzero" fill="#ffffff" stroke="none" transform="matrix(1 0 0 1 1213 1235 )" />
      <path d="M 0 30.2222222222222  L 0 1.77777777777783  C 0 0.782222222222117  0.923603603603624 0  2.09909909909902 0  L 230.900900900901 0  C 232.076396396396 0  233 0.782222222222117  233 1.77777777777783  L 233 30.2222222222222  C 233 31.2177777777779  232.076396396396 32  230.900900900901 32  L 2.09909909909902 32  C 0.923603603603624 32  0 31.2177777777779  0 30.2222222222222  Z " stroke-width="2" stroke="#009999" fill="none" transform="matrix(1 0 0 1 1213 1235 )" mask="url(#clip1977)" />
    </g>
  </defs>
  <g transform="matrix(1 0 0 1 -1211 -1234 )">
    <use xlink:href="#widget1979" filter="url(#filter1978)" />
    <use xlink:href="#widget1979" />
  </g>
</svg>