<?xml version="1.0" encoding="utf-8"?>
<svg version="1.1" xmlns:xlink="http://www.w3.org/1999/xlink" width="12px" height="12px" viewBox="822 341  12 12" xmlns="http://www.w3.org/2000/svg">
  <path d="M 828 341  C 831.36 341  834 343.64  834 347  C 834 350.36  831.36 353  828 353  C 824.64 353  822 350.36  822 347  C 822 343.64  824.64 341  828 341  Z " fill-rule="nonzero" fill="#ffffff" stroke="none" />
  <path d="M 828 341.5  C 831.08 341.5  833.5 343.92  833.5 347  C 833.5 350.08  831.08 352.5  828 352.5  C 824.92 352.5  822.5 350.08  822.5 347  C 822.5 343.92  824.92 341.5  828 341.5  Z " stroke-width="1" stroke="#797979" fill="none" />
  <path d="M 828 350  C 826.32 350  825 348.68  825 347  C 825 345.32  826.32 344  828 344  C 829.68 344  831 345.32  831 347  C 831 348.68  829.68 350  828 350  " fill-rule="nonzero" fill="#797979" stroke="none" />
</svg>