<?xml version="1.0" encoding="utf-8"?>
<svg version="1.1" xmlns:xlink="http://www.w3.org/1999/xlink" width="12px" height="12px" viewBox="917 251  12 12" xmlns="http://www.w3.org/2000/svg">
  <path d="M 923 251  C 926.36 251  929 253.64  929 257  C 929 260.36  926.36 263  923 263  C 919.64 263  917 260.36  917 257  C 917 253.64  919.64 251  923 251  Z " fill-rule="nonzero" fill="#80ffff" stroke="none" />
  <path d="M 923 251.5  C 926.08 251.5  928.5 253.92  928.5 257  C 928.5 260.08  926.08 262.5  923 262.5  C 919.92 262.5  917.5 260.08  917.5 257  C 917.5 253.92  919.92 251.5  923 251.5  Z " stroke-width="1" stroke="#797979" fill="none" />
  <path d="M 923 260  C 921.32 260  920 258.68  920 257  C 920 255.32  921.32 254  923 254  C 924.68 254  926 255.32  926 257  C 926 258.68  924.68 260  923 260  " fill-rule="nonzero" fill="#797979" stroke="none" />
</svg>