<?xml version="1.0" encoding="utf-8"?>
<svg version="1.1" xmlns:xlink="http://www.w3.org/1999/xlink" width="12px" height="12px" viewBox="226 207  12 12" xmlns="http://www.w3.org/2000/svg">
  <path d="M 232 207  C 235.36 207  238 209.64  238 213  C 238 216.36  235.36 219  232 219  C 228.64 219  226 216.36  226 213  C 226 209.64  228.64 207  232 207  Z " fill-rule="nonzero" fill="#ffffff" stroke="none" />
  <path d="M 232 207.5  C 235.08 207.5  237.5 209.92  237.5 213  C 237.5 216.08  235.08 218.5  232 218.5  C 228.92 218.5  226.5 216.08  226.5 213  C 226.5 209.92  228.92 207.5  232 207.5  Z " stroke-width="1" stroke="#797979" fill="none" />
  <path d="M 232 216  C 230.32 216  229 214.68  229 213  C 229 211.32  230.32 210  232 210  C 233.68 210  235 211.32  235 213  C 235 214.68  233.68 216  232 216  " fill-rule="nonzero" fill="#797979" stroke="none" />
</svg>