<?xml version="1.0" encoding="utf-8"?>
<svg version="1.1" xmlns:xlink="http://www.w3.org/1999/xlink" width="17px" height="16px" xmlns="http://www.w3.org/2000/svg">
  <g transform="matrix(1 0 0 1 -680 -1065 )">
    <path d="M 16.8197544642857 13.3068181818182  C 16.9399181547619 13.4507575757576  17 13.6212121212121  17 13.8181818181818  L 17 15.2727272727273  C 17 15.469696969697  16.9399181547619 15.6401515151515  16.8197544642857 15.7840909090909  C 16.6995907738095 15.9280303030303  16.5572916666667 16  16.3928571428571 16  L 0.607142857142857 16  C 0.442708333333333 16  0.300409226190476 15.9280303030303  0.180245535714286 15.7840909090909  C 0.0600818452380952 15.6401515151515  0 15.469696969697  0 15.2727272727273  L 0 13.8181818181818  C 0 13.6212121212121  0.0600818452380952 13.4507575757576  0.180245535714286 13.3068181818182  C 0.300409226190476 13.1628787878788  0.442708333333333 13.0909090909091  0.607142857142857 13  L 16.3928571428571 13  C 16.5572916666667 13.0909090909091  16.6995907738095 13.1628787878788  16.8197544642857 13.3068181818182  Z M 16.8197544642857 8.94318181818182  C 16.9399181547619 9.08712121212121  17 9.25757575757576  17 9.45454545454545  L 17 10.9090909090909  C 17 11.1060606060606  16.9399181547619 11.2765151515152  16.8197544642857 11.4204545454545  C 16.6995907738095 11.5643939393939  16.5572916666667 11.6363636363636  16.3928571428571 11.6363636363636  L 0.607142857142857 11.6363636363636  C 0.442708333333333 11.6363636363636  0.300409226190476 11.5643939393939  0.180245535714286 11.4204545454545  C 0.0600818452380952 11.2765151515152  0 11.1060606060606  0 10.9090909090909  L 0 9.45454545454545  C 0 9.25757575757576  0.0600818452380952 9.08712121212121  0.180245535714286 8.94318181818182  C 0.300409226190476 8.79924242424242  0.442708333333333 8.72727272727273  0.607142857142857 8.72727272727273  L 16.3928571428571 8.72727272727273  C 16.5572916666667 8.72727272727273  16.6995907738095 8.79924242424242  16.8197544642857 8.94318181818182  Z M 16.8197544642857 4.57954545454546  C 16.9399181547619 4.72348484848485  17 4.89393939393939  17 5.09090909090909  L 17 6.54545454545455  C 17 6.74242424242424  16.9399181547619 6.91287878787879  16.8197544642857 7.05681818181818  C 16.6995907738095 7.20075757575758  16.5572916666667 7.27272727272727  16.3928571428571 7.27272727272727  L 0.607142857142857 7.27272727272727  C 0.442708333333333 7.27272727272727  0.300409226190476 7.20075757575758  0.180245535714286 7.05681818181818  C 0.0600818452380952 6.91287878787879  0 6.74242424242424  0 6.54545454545455  L 0 5.09090909090909  C 0 4.89393939393939  0.0600818452380952 4.72348484848485  0.180245535714286 4.57954545454546  C 0.300409226190476 4.43560606060606  0.442708333333333 4.36363636363636  0.607142857142857 4.36363636363636  L 16.3928571428571 4.36363636363636  C 16.5572916666667 4.36363636363636  16.6995907738095 4.43560606060606  16.8197544642857 4.57954545454546  Z M 16.8197544642857 0.215909090909092  C 16.9399181547619 0.359848484848483  17 0.530303030303029  17 0.727272727272727  L 17 2.18181818181818  C 17 2.37878787878788  16.9399181547619 2.54924242424242  16.8197544642857 2.69318181818182  C 16.6995907738095 2.83712121212121  16.5572916666667 2.90909090909091  16.3928571428571 3  L 0.607142857142857 3  C 0.442708333333333 2.90909090909091  0.300409226190476 2.83712121212121  0.180245535714286 2.69318181818182  C 0.0600818452380952 2.54924242424242  0 2.37878787878788  0 2.18181818181818  L 0 0.727272727272727  C 0 0.530303030303029  0.0600818452380952 0.359848484848483  0.180245535714286 0.215909090909092  C 0.300409226190476 0.0719696969696955  0.442708333333333 0  0.607142857142857 0  L 16.3928571428571 0  C 16.5572916666667 0  16.6995907738095 0.0719696969696955  16.8197544642857 0.215909090909092  Z " fill-rule="nonzero" fill="#c9c9c9" stroke="none" transform="matrix(1 0 0 1 680 1065 )" />
  </g>
</svg>