<?xml version="1.0" encoding="utf-8"?>
<svg version="1.1" xmlns:xlink="http://www.w3.org/1999/xlink" width="143px" height="36px" xmlns="http://www.w3.org/2000/svg">
  <defs>
    <mask fill="white" id="clip1972">
      <path d="M 0 30.2222222222222  L 0 1.77777777777778  C 0 0.782222222222222  0.550990990990991 0  1.25225225225225 0  L 137.747747747748 0  C 138.449009009009 0  139 0.782222222222222  139 1.77777777777778  L 139 30.2222222222222  C 139 31.2177777777778  138.449009009009 32  137.747747747748 32  L 1.25225225225225 32  C 0.550990990990991 32  0 31.2177777777778  0 30.2222222222222  Z " fill-rule="evenodd" />
    </mask>
    <filter x="218px" y="1117px" width="143px" height="36px" filterUnits="userSpaceOnUse" id="filter1973">
      <feOffset dx="0" dy="1" in="SourceAlpha" result="shadowOffsetInner" />
      <feGaussianBlur stdDeviation="1" in="shadowOffsetInner" result="shadowGaussian" />
      <feComposite in2="shadowGaussian" operator="atop" in="SourceAlpha" result="shadowComposite" />
      <feColorMatrix type="matrix" values="0 0 0 0 0.4  0 0 0 0 0.4  0 0 0 0 0.4  0 0 0 0.349019607843137 0  " in="shadowComposite" />
    </filter>
    <g id="widget1974">
      <path d="M 0 30.2222222222222  L 0 1.77777777777778  C 0 0.782222222222222  0.550990990990991 0  1.25225225225225 0  L 137.747747747748 0  C 138.449009009009 0  139 0.782222222222222  139 1.77777777777778  L 139 30.2222222222222  C 139 31.2177777777778  138.449009009009 32  137.747747747748 32  L 1.25225225225225 32  C 0.550990990990991 32  0 31.2177777777778  0 30.2222222222222  Z " fill-rule="nonzero" fill="#ffffff" stroke="none" transform="matrix(1 0 0 1 220 1118 )" />
      <path d="M 0 30.2222222222222  L 0 1.77777777777778  C 0 0.782222222222222  0.550990990990991 0  1.25225225225225 0  L 137.747747747748 0  C 138.449009009009 0  139 0.782222222222222  139 1.77777777777778  L 139 30.2222222222222  C 139 31.2177777777778  138.449009009009 32  137.747747747748 32  L 1.25225225225225 32  C 0.550990990990991 32  0 31.2177777777778  0 30.2222222222222  Z " stroke-width="2" stroke="#009999" fill="none" transform="matrix(1 0 0 1 220 1118 )" mask="url(#clip1972)" />
    </g>
  </defs>
  <g transform="matrix(1 0 0 1 -218 -1117 )">
    <use xlink:href="#widget1974" filter="url(#filter1973)" />
    <use xlink:href="#widget1974" />
  </g>
</svg>