<?xml version="1.0" encoding="utf-8"?>
<svg version="1.1" xmlns:xlink="http://www.w3.org/1999/xlink" width="12px" height="12px" viewBox="224 240  12 12" xmlns="http://www.w3.org/2000/svg">
  <path d="M 230 240  C 233.36 240  236 242.64  236 246  C 236 249.36  233.36 252  230 252  C 226.64 252  224 249.36  224 246  C 224 242.64  226.64 240  230 240  Z " fill-rule="nonzero" fill="#ffffff" stroke="none" />
  <path d="M 230 240.5  C 233.08 240.5  235.5 242.92  235.5 246  C 235.5 249.08  233.08 251.5  230 251.5  C 226.92 251.5  224.5 249.08  224.5 246  C 224.5 242.92  226.92 240.5  230 240.5  Z " stroke-width="1" stroke="#797979" fill="none" />
  <path d="M 230 249  C 228.32 249  227 247.68  227 246  C 227 244.32  228.32 243  230 243  C 231.68 243  233 244.32  233 246  C 233 247.68  231.68 249  230 249  " fill-rule="nonzero" fill="#797979" stroke="none" />
</svg>