<?xml version="1.0" encoding="utf-8"?>
<svg version="1.1" xmlns:xlink="http://www.w3.org/1999/xlink" width="12px" height="12px" viewBox="224 302  12 12" xmlns="http://www.w3.org/2000/svg">
  <path d="M 230 302  C 233.36 302  236 304.64  236 308  C 236 311.36  233.36 314  230 314  C 226.64 314  224 311.36  224 308  C 224 304.64  226.64 302  230 302  Z " fill-rule="nonzero" fill="#ffffff" stroke="none" />
  <path d="M 230 302.5  C 233.08 302.5  235.5 304.92  235.5 308  C 235.5 311.08  233.08 313.5  230 313.5  C 226.92 313.5  224.5 311.08  224.5 308  C 224.5 304.92  226.92 302.5  230 302.5  Z " stroke-width="1" stroke="#797979" fill="none" />
  <path d="M 230 311  C 228.32 311  227 309.68  227 308  C 227 306.32  228.32 305  230 305  C 231.68 305  233 306.32  233 308  C 233 309.68  231.68 311  230 311  " fill-rule="nonzero" fill="#797979" stroke="none" />
</svg>