<?xml version="1.0" encoding="utf-8"?>
<svg version="1.1" xmlns:xlink="http://www.w3.org/1999/xlink" width="12px" height="12px" viewBox="464 342  12 12" xmlns="http://www.w3.org/2000/svg">
  <path d="M 470 342  C 473.36 342  476 344.64  476 348  C 476 351.36  473.36 354  470 354  C 466.64 354  464 351.36  464 348  C 464 344.64  466.64 342  470 342  Z " fill-rule="nonzero" fill="#ffffff" stroke="none" />
  <path d="M 470 342.5  C 473.08 342.5  475.5 344.92  475.5 348  C 475.5 351.08  473.08 353.5  470 353.5  C 466.92 353.5  464.5 351.08  464.5 348  C 464.5 344.92  466.92 342.5  470 342.5  Z " stroke-width="1" stroke="#797979" fill="none" />
  <path d="M 470 351  C 468.32 351  467 349.68  467 348  C 467 346.32  468.32 345  470 345  C 471.68 345  473 346.32  473 348  C 473 349.68  471.68 351  470 351  " fill-rule="nonzero" fill="#797979" stroke="none" />
</svg>