<?xml version="1.0" encoding="utf-8"?>
<svg version="1.1" xmlns:xlink="http://www.w3.org/1999/xlink" width="12px" height="12px" viewBox="585 341  12 12" xmlns="http://www.w3.org/2000/svg">
  <path d="M 591 341  C 594.36 341  597 343.64  597 347  C 597 350.36  594.36 353  591 353  C 587.64 353  585 350.36  585 347  C 585 343.64  587.64 341  591 341  Z " fill-rule="nonzero" fill="#ffffff" stroke="none" />
  <path d="M 591 341.5  C 594.08 341.5  596.5 343.92  596.5 347  C 596.5 350.08  594.08 352.5  591 352.5  C 587.92 352.5  585.5 350.08  585.5 347  C 585.5 343.92  587.92 341.5  591 341.5  Z " stroke-width="1" stroke="#797979" fill="none" />
  <path d="M 591 350  C 589.32 350  588 348.68  588 347  C 588 345.32  589.32 344  591 344  C 592.68 344  594 345.32  594 347  C 594 348.68  592.68 350  591 350  " fill-rule="nonzero" fill="#797979" stroke="none" />
</svg>