<?xml version="1.0" encoding="utf-8"?>
<svg version="1.1" xmlns:xlink="http://www.w3.org/1999/xlink" width="12px" height="12px" viewBox="585 379  12 12" xmlns="http://www.w3.org/2000/svg">
  <path d="M 591 379  C 594.36 379  597 381.64  597 385  C 597 388.36  594.36 391  591 391  C 587.64 391  585 388.36  585 385  C 585 381.64  587.64 379  591 379  Z " fill-rule="nonzero" fill="#ffffff" stroke="none" />
  <path d="M 591 379.5  C 594.08 379.5  596.5 381.92  596.5 385  C 596.5 388.08  594.08 390.5  591 390.5  C 587.92 390.5  585.5 388.08  585.5 385  C 585.5 381.92  587.92 379.5  591 379.5  Z " stroke-width="1" stroke="#797979" fill="none" />
  <path d="M 591 388  C 589.32 388  588 386.68  588 385  C 588 383.32  589.32 382  591 382  C 592.68 382  594 383.32  594 385  C 594 386.68  592.68 388  591 388  " fill-rule="nonzero" fill="#797979" stroke="none" />
</svg>