<?xml version="1.0" encoding="utf-8"?>
<svg version="1.1" xmlns:xlink="http://www.w3.org/1999/xlink" width="12px" height="12px" viewBox="224 493  12 12" xmlns="http://www.w3.org/2000/svg">
  <path d="M 230 493  C 233.36 493  236 495.64  236 499  C 236 502.36  233.36 505  230 505  C 226.64 505  224 502.36  224 499  C 224 495.64  226.64 493  230 493  Z " fill-rule="nonzero" fill="#ffffff" stroke="none" />
  <path d="M 230 493.5  C 233.08 493.5  235.5 495.92  235.5 499  C 235.5 502.08  233.08 504.5  230 504.5  C 226.92 504.5  224.5 502.08  224.5 499  C 224.5 495.92  226.92 493.5  230 493.5  Z " stroke-width="1" stroke="#797979" fill="none" />
  <path d="M 230 502  C 228.32 502  227 500.68  227 499  C 227 497.32  228.32 496  230 496  C 231.68 496  233 497.32  233 499  C 233 500.68  231.68 502  230 502  " fill-rule="nonzero" fill="#797979" stroke="none" />
</svg>