<?xml version="1.0" encoding="utf-8"?>
<svg version="1.1" xmlns:xlink="http://www.w3.org/1999/xlink" width="12px" height="12px" viewBox="585 492  12 12" xmlns="http://www.w3.org/2000/svg">
  <path d="M 591 492  C 594.36 492  597 494.64  597 498  C 597 501.36  594.36 504  591 504  C 587.64 504  585 501.36  585 498  C 585 494.64  587.64 492  591 492  Z " fill-rule="nonzero" fill="#ffffff" stroke="none" />
  <path d="M 591 492.5  C 594.08 492.5  596.5 494.92  596.5 498  C 596.5 501.08  594.08 503.5  591 503.5  C 587.92 503.5  585.5 501.08  585.5 498  C 585.5 494.92  587.92 492.5  591 492.5  Z " stroke-width="1" stroke="#797979" fill="none" />
  <path d="M 591 501  C 589.32 501  588 499.68  588 498  C 588 496.32  589.32 495  591 495  C 592.68 495  594 496.32  594 498  C 594 499.68  592.68 501  591 501  " fill-rule="nonzero" fill="#797979" stroke="none" />
</svg>