<?xml version="1.0" encoding="utf-8"?>
<svg version="1.1" xmlns:xlink="http://www.w3.org/1999/xlink" width="12px" height="12px" viewBox="342 557  12 12" xmlns="http://www.w3.org/2000/svg">
  <path d="M 348 557  C 351.36 557  354 559.64  354 563  C 354 566.36  351.36 569  348 569  C 344.64 569  342 566.36  342 563  C 342 559.64  344.64 557  348 557  Z " fill-rule="nonzero" fill="#ffffff" stroke="none" />
  <path d="M 348 557.5  C 351.08 557.5  353.5 559.92  353.5 563  C 353.5 566.08  351.08 568.5  348 568.5  C 344.92 568.5  342.5 566.08  342.5 563  C 342.5 559.92  344.92 557.5  348 557.5  Z " stroke-width="1" stroke="#797979" fill="none" />
  <path d="M 348 566  C 346.32 566  345 564.68  345 563  C 345 561.32  346.32 560  348 560  C 349.68 560  351 561.32  351 563  C 351 564.68  349.68 566  348 566  " fill-rule="nonzero" fill="#797979" stroke="none" />
</svg>