<?xml version="1.0" encoding="utf-8"?>
<svg version="1.1" xmlns:xlink="http://www.w3.org/1999/xlink" width="12px" height="12px" viewBox="442 557  12 12" xmlns="http://www.w3.org/2000/svg">
  <path d="M 448 557  C 451.36 557  454 559.64  454 563  C 454 566.36  451.36 569  448 569  C 444.64 569  442 566.36  442 563  C 442 559.64  444.64 557  448 557  Z " fill-rule="nonzero" fill="#ffffff" stroke="none" />
  <path d="M 448 557.5  C 451.08 557.5  453.5 559.92  453.5 563  C 453.5 566.08  451.08 568.5  448 568.5  C 444.92 568.5  442.5 566.08  442.5 563  C 442.5 559.92  444.92 557.5  448 557.5  Z " stroke-width="1" stroke="#797979" fill="none" />
  <path d="M 448 566  C 446.32 566  445 564.68  445 563  C 445 561.32  446.32 560  448 560  C 449.68 560  451 561.32  451 563  C 451 564.68  449.68 566  448 566  " fill-rule="nonzero" fill="#797979" stroke="none" />
</svg>