<?xml version="1.0" encoding="utf-8"?>
<svg version="1.1" xmlns:xlink="http://www.w3.org/1999/xlink" width="12px" height="12px" viewBox="224 853  12 12" xmlns="http://www.w3.org/2000/svg">
  <path d="M 230 853  C 233.36 853  236 855.64  236 859  C 236 862.36  233.36 865  230 865  C 226.64 865  224 862.36  224 859  C 224 855.64  226.64 853  230 853  Z " fill-rule="nonzero" fill="#ffffff" stroke="none" />
  <path d="M 230 853.5  C 233.08 853.5  235.5 855.92  235.5 859  C 235.5 862.08  233.08 864.5  230 864.5  C 226.92 864.5  224.5 862.08  224.5 859  C 224.5 855.92  226.92 853.5  230 853.5  Z " stroke-width="1" stroke="#797979" fill="none" />
  <path d="M 230 862  C 228.32 862  227 860.68  227 859  C 227 857.32  228.32 856  230 856  C 231.68 856  233 857.32  233 859  C 233 860.68  231.68 862  230 862  " fill-rule="nonzero" fill="#797979" stroke="none" />
</svg>