<?xml version="1.0" encoding="utf-8"?>
<svg version="1.1" xmlns:xlink="http://www.w3.org/1999/xlink" width="34px" height="13px" xmlns="http://www.w3.org/2000/svg">
  <g transform="matrix(1 0 0 1 -1238 -1245 )">
    <path d="M 22.4895833333333 7.60795454545451  C 22.6076388888889 7.53409090909099  22.6666666666667 7.46022727272725  22.6666666666667 7.38636363636374  C 22.6666666666667 7.30018939393949  22.6135416666666 7.22940340909099  22.5072916666666 7.17400568181824  C 22.4010416666667 7.1186079545455  22.2652777777778 7.09090909090901  22.0999999999999 7.09090909090901  L 18.1333333333334 7.09090909090901  L 18.1333333333334 3.84090909090901  C 18.1333333333334 3.76089015151524  18.0772569444443 3.69164299242425  17.9651041666666 3.63316761363626  C 17.8529513888889 3.5746922348485  17.7201388888889 3.5454545454545  17.5666666666666 3.5454545454545  L 14.1666666666667 3.5454545454545  C 14.0131944444445 3.5454545454545  13.8803819444445 3.5746922348485  13.7682291666667 3.63316761363626  C 13.6560763888888 3.69164299242425  13.5999999999999 3.76089015151524  13.5999999999999 3.84090909090901  L 13.5999999999999 7.09090909090901  L 9.63333333333344 7.09090909090901  C 9.47986111111118 7.09090909090901  9.34704861111118 7.120146780303  9.23489583333344 7.17862215909099  C 9.12274305555547 7.23709753787875  9.06666666666661 7.30634469696975  9.06666666666661 7.38636363636374  C 9.06666666666661 7.47253787878799  9.11979166666674 7.54332386363626  9.22604166666656 7.59872159090901  L 15.4593749999999 10.848721590909  C 15.565625 10.9041193181818  15.7013888888889 10.9318181818182  15.8666666666666 10.9318181818182  C 16.0319444444444 10.9318181818182  16.1677083333334 10.9041193181818  16.2739583333334 10.848721590909  L 22.4895833333333 7.60795454545451  Z M 32.5213541666667 7.25248579545451  C 33.5071180555556 7.89571496212125  34 8.62973484848476  34 9.4545454545455  C 34 10.4332386363637  33.3359375 11.2688210227273  32.0078125 11.9612926136363  C 30.6796875 12.6537642045455  29.0770833333333 13  27.2 13  L 7.93333333333339 13  C 5.74930555555557 13  3.88107638888891 12.5952888257575  2.32864583333344 11.7858664772727  C 0.776215277777737 10.976444128788  0 10.0023674242425  0 8.86363636363626  C 0 8.063446969697  0.413194444444343 7.32481060606051  1.23958333333326 6.64772727272725  C 2.06597222222217 5.97064393939399  3.17569444444439 5.46283143939399  4.56874999999991 5.12428977272725  C 4.54513888888891 4.93963068181824  4.5333333333333 4.80729166666674  4.5333333333333 4.72727272727275  C 4.5333333333333 3.4223484848485  5.41875000000005 2.30823863636374  7.1895833333333 1.38494318181824  C 8.96041666666656 0.461647727272748  11.0972222222222 0  13.5999999999999 0  C 15.4416666666666 0  17.1269097222223 0.267755681818244  18.6557291666666 0.803267045454504  C 20.184548611111 1.33877840909099  21.2972222222222 2.04971590909099  21.9937500000001 2.9360795454545  C 22.8319444444444 2.55445075757575  23.8118055555556 2.36363636363626  24.9333333333334 2.36363636363626  C 26.1847222222223 2.36363636363626  27.253125 2.59446022727275  28.1385416666667 3.0561079545455  C 29.0239583333334 3.51775568181824  29.4666666666667 4.07481060606051  29.4666666666667 4.72727272727275  C 29.4666666666667 5.19507575757575  29.2246527777777 5.61979166666674  28.7406249999999 6.0014204545455  C 30.2753472222223 6.19223484848476  31.5355902777778 6.60925662878799  32.5213541666667 7.25248579545451  Z " fill-rule="nonzero" fill="#009999" stroke="none" transform="matrix(1 0 0 1 1238 1245 )" />
  </g>
</svg>