<?xml version="1.0" encoding="utf-8"?>
<svg version="1.1" xmlns:xlink="http://www.w3.org/1999/xlink" width="12px" height="12px" viewBox="701 342  12 12" xmlns="http://www.w3.org/2000/svg">
  <path d="M 707 342  C 710.36 342  713 344.64  713 348  C 713 351.36  710.36 354  707 354  C 703.64 354  701 351.36  701 348  C 701 344.64  703.64 342  707 342  Z " fill-rule="nonzero" fill="#ffffff" stroke="none" />
  <path d="M 707 342.5  C 710.08 342.5  712.5 344.92  712.5 348  C 712.5 351.08  710.08 353.5  707 353.5  C 703.92 353.5  701.5 351.08  701.5 348  C 701.5 344.92  703.92 342.5  707 342.5  Z " stroke-width="1" stroke="#797979" fill="none" />
  <path d="M 707 351  C 705.32 351  704 349.68  704 348  C 704 346.32  705.32 345  707 345  C 708.68 345  710 346.32  710 348  C 710 349.68  708.68 351  707 351  " fill-rule="nonzero" fill="#797979" stroke="none" />
</svg>