<?xml version="1.0" encoding="utf-8"?>
<svg version="1.1" xmlns:xlink="http://www.w3.org/1999/xlink" width="12px" height="12px" viewBox="224 557  12 12" xmlns="http://www.w3.org/2000/svg">
  <path d="M 230 557  C 233.36 557  236 559.64  236 563  C 236 566.36  233.36 569  230 569  C 226.64 569  224 566.36  224 563  C 224 559.64  226.64 557  230 557  Z " fill-rule="nonzero" fill="#ffffff" stroke="none" />
  <path d="M 230 557.5  C 233.08 557.5  235.5 559.92  235.5 563  C 235.5 566.08  233.08 568.5  230 568.5  C 226.92 568.5  224.5 566.08  224.5 563  C 224.5 559.92  226.92 557.5  230 557.5  Z " stroke-width="1" stroke="#797979" fill="none" />
  <path d="M 230 566  C 228.32 566  227 564.68  227 563  C 227 561.32  228.32 560  230 560  C 231.68 560  233 561.32  233 563  C 233 564.68  231.68 566  230 566  " fill-rule="nonzero" fill="#797979" stroke="none" />
</svg>