<?xml version="1.0" encoding="utf-8"?>
<svg version="1.1" xmlns:xlink="http://www.w3.org/1999/xlink" width="12px" height="12px" viewBox="986 251  12 12" xmlns="http://www.w3.org/2000/svg">
  <path d="M 992 251  C 995.36 251  998 253.64  998 257  C 998 260.36  995.36 263  992 263  C 988.64 263  986 260.36  986 257  C 986 253.64  988.64 251  992 251  Z " fill-rule="nonzero" fill="#80ffff" stroke="none" />
  <path d="M 992 251.5  C 995.08 251.5  997.5 253.92  997.5 257  C 997.5 260.08  995.08 262.5  992 262.5  C 988.92 262.5  986.5 260.08  986.5 257  C 986.5 253.92  988.92 251.5  992 251.5  Z " stroke-width="1" stroke="#797979" fill="none" />
  <path d="M 992 260  C 990.32 260  989 258.68  989 257  C 989 255.32  990.32 254  992 254  C 993.68 254  995 255.32  995 257  C 995 258.68  993.68 260  992 260  " fill-rule="nonzero" fill="#797979" stroke="none" />
</svg>