<?xml version="1.0" encoding="utf-8"?>
<svg version="1.1" xmlns:xlink="http://www.w3.org/1999/xlink" width="14px" height="16px" xmlns="http://www.w3.org/2000/svg">
  <defs>
    <filter x="590px" y="74px" width="14px" height="16px" filterUnits="userSpaceOnUse" id="filter2092">
      <feOffset dx="1" dy="1" in="SourceAlpha" result="shadowOffsetInner" />
      <feGaussianBlur stdDeviation="2.5" in="shadowOffsetInner" result="shadowGaussian" />
      <feComposite in2="shadowGaussian" operator="atop" in="SourceAlpha" result="shadowComposite" />
      <feColorMatrix type="matrix" values="0 0 0 0 0  0 0 0 0 0  0 0 0 0 0  0 0 0 0.698039215686274 0  " in="shadowComposite" />
    </filter>
    <g id="widget2093">
      <path d="M 596 78  C 597.12 78  598 79.32  598 81  C 598 82.68  597.12 84  596 84  C 594.88 84  594 82.68  594 81  C 594 79.32  594.88 78  596 78  Z " fill-rule="nonzero" fill="#000000" stroke="none" />
      <path d="M 596 78.5  C 596.84 78.5  597.5 79.6  597.5 81  C 597.5 82.4  596.84 83.5  596 83.5  C 595.16 83.5  594.5 82.4  594.5 81  C 594.5 79.6  595.16 78.5  596 78.5  Z " stroke-width="1" stroke="#ffffff" fill="none" />
    </g>
  </defs>
  <g transform="matrix(1 0 0 1 -590 -74 )">
    <use xlink:href="#widget2093" filter="url(#filter2092)" />
    <use xlink:href="#widget2093" />
  </g>
</svg>