<?xml version="1.0" encoding="utf-8"?>
<svg version="1.1" xmlns:xlink="http://www.w3.org/1999/xlink" width="11px" height="8px" xmlns="http://www.w3.org/2000/svg">
  <g transform="matrix(1 0 0 1 -635 -225 )">
    <path d="M 10.8897795591182 0.824742268041237  C 10.9632598530394 0.916380297823594  11 1.02176403207331  11 1.14089347079038  C 11 1.26002290950744  10.9632598530394 1.36540664375716  10.8897795591182 1.45704467353952  L 5.75350701402806 7.86254295532646  C 5.68002672010688 7.95418098510882  5.59552438209753 8  5.5 8  C 5.40447561790247 8  5.31997327989312 7.95418098510882  5.24649298597194 7.86254295532646  L 0.110220440881764 1.45704467353952  C 0.036740146960588 1.36540664375716  0 1.26002290950744  0 1.14089347079038  C 0 1.02176403207331  0.036740146960588 0.916380297823594  0.110220440881764 0.824742268041237  L 0.661322645290581 0.13745704467354  C 0.734802939211757 0.0458190148911788  0.819305277221109 0  0.914829659318637 0  C 1.01035404141617 0  1.09485637942552 0.0458190148911788  1.16833667334669 0.13745704467354  L 5.5 5.53951890034364  L 9.83166332665331 0.13745704467354  C 9.90514362057448 0.0458190148911788  9.98964595858383 0  10.0851703406814 0  C 10.1806947227789 0  10.2651970607882 0.0458190148911788  10.3386773547094 0.13745704467354  L 10.8897795591182 0.824742268041237  Z " fill-rule="nonzero" fill="#434343" stroke="none" transform="matrix(1 0 0 1 635 225 )" />
  </g>
</svg>