<?xml version="1.0" encoding="utf-8"?>
<svg version="1.1" xmlns:xlink="http://www.w3.org/1999/xlink" width="124px" height="100px" xmlns="http://www.w3.org/2000/svg">
  <g transform="matrix(1 0 0 1 -556 -331 )">
    <path d="M 33.5602678571429 55.1897321428571  L 14.9464285714286 65.234375  L 57 87.6674107142857  L 57 67.6339285714286  L 33.5602678571429 55.1897321428571  Z M 11 42.8013392857143  L 11 57.1986607142857  L 24.0111607142857 50  L 11 42.8013392857143  Z M 67 67.6339285714286  L 67 87.6674107142857  L 109.053571428571 65.234375  L 90.4397321428572 55.1897321428571  L 67 67.6339285714286  Z M 43.1785714285714 50  L 62 60.15625  L 80.8214285714286 50  L 62 39.84375  L 43.1785714285714 50  Z M 14.9464285714286 34.765625  L 33.5602678571429 44.8102678571429  L 57 32.3660714285714  L 57 12.3325892857143  L 14.9464285714286 34.765625  Z M 113 42.8013392857143  L 99.9888392857143 50  L 113 57.1986607142857  L 113 42.8013392857143  Z M 67 32.3660714285714  L 90.4397321428572 44.8102678571429  L 109.053571428571 34.765625  L 67 12.3325892857143  L 67 32.3660714285714  Z M 121.647321428571 31.1941964285714  C 123.215773809524 32.0498511904762  124 33.2403273809524  124 34.765625  L 124 65.234375  C 124 66.7596726190476  123.215773809524 67.9501488095238  121.647321428571 68.8058035714286  L 64.9754464285714 99.2745535714286  C 64.0066964285714 99.7581845238095  63.014880952381 100  62 100  C 60.9851190476191 100  59.9933035714286 99.7581845238095  59.0245535714286 99.2745535714286  L 2.35267857142857 68.8058035714286  C 0.78422619047619 67.9501488095238  0 66.7596726190476  0 65.234375  L 0 34.765625  C 0 33.2403273809524  0.78422619047619 32.0498511904762  2.35267857142857 31.1941964285714  L 59.0245535714286 0.72544642857143  C 59.9933035714286 0.241815476190488  60.9851190476191 0  62 0  C 63.014880952381 0  64.0066964285714 0.241815476190488  64.9754464285714 0.72544642857143  L 121.647321428571 31.1941964285714  Z " fill-rule="nonzero" fill="#d7d7d7" stroke="none" transform="matrix(1 0 0 1 556 331 )" />
  </g>
</svg>