<?xml version="1.0" encoding="utf-8"?>
<svg version="1.1" xmlns:xlink="http://www.w3.org/1999/xlink" width="28px" height="31px" xmlns="http://www.w3.org/2000/svg">
  <g transform="matrix(1 0 0 1 -557 -521 )">
    <path d="M 2.15384615384615 23.8035714285714  L 2.15384615384615 28.7857142857143  L 7 28.7857142857143  L 7 23.8035714285714  L 2.15384615384615 23.8035714285714  Z M 8.07692307692308 23.8035714285714  L 8.07692307692308 28.7857142857143  L 13.4615384615385 28.7857142857143  L 13.4615384615385 23.8035714285714  L 8.07692307692308 23.8035714285714  Z M 2.15384615384615 17.1607142857143  L 2.15384615384615 22.6964285714286  L 7 22.6964285714286  L 7 17.1607142857143  L 2.15384615384615 17.1607142857143  Z M 8.07692307692308 17.1607142857143  L 8.07692307692308 22.6964285714286  L 13.4615384615385 22.6964285714286  L 13.4615384615385 17.1607142857143  L 8.07692307692308 17.1607142857143  Z M 2.15384615384615 11.0714285714286  L 2.15384615384615 16.0535714285714  L 7 16.0535714285714  L 7 11.0714285714286  L 2.15384615384615 11.0714285714286  Z M 14.5384615384615 23.8035714285714  L 14.5384615384615 28.7857142857143  L 19.9230769230769 28.7857142857143  L 19.9230769230769 23.8035714285714  L 14.5384615384615 23.8035714285714  Z M 8.07692307692308 11.0714285714286  L 8.07692307692308 16.0535714285714  L 13.4615384615385 16.0535714285714  L 13.4615384615385 11.0714285714286  L 8.07692307692308 11.0714285714286  Z M 21 23.8035714285714  L 21 28.7857142857143  L 25.8461538461538 28.7857142857143  L 25.8461538461538 23.8035714285714  L 21 23.8035714285714  Z M 14.5384615384615 17.1607142857143  L 14.5384615384615 22.6964285714286  L 19.9230769230769 22.6964285714286  L 19.9230769230769 17.1607142857143  L 14.5384615384615 17.1607142857143  Z M 8.45552884615385 8.13922991071429  C 8.56209935897436 8.02966889880952  8.61538461538462 7.89992559523809  8.61538461538462 7.75  L 8.61538461538462 2.76785714285714  C 8.61538461538462 2.61793154761905  8.56209935897436 2.48818824404762  8.45552884615385 2.37862723214286  C 8.34895833333333 2.26906622023809  8.22275641025641 2.21428571428571  8.07692307692308 2.21428571428571  L 7 2.21428571428571  C 6.85416666666667 2.21428571428571  6.72796474358974 2.26906622023809  6.62139423076923 2.37862723214286  C 6.51482371794872 2.48818824404762  6.46153846153846 2.61793154761905  6.46153846153846 2.76785714285714  L 6.46153846153846 7.75  C 6.46153846153846 7.89992559523809  6.51482371794872 8.02966889880952  6.62139423076923 8.13922991071429  C 6.72796474358974 8.24879092261905  6.85416666666667 8.30357142857143  7 8.30357142857143  L 8.07692307692308 8.30357142857143  C 8.22275641025641 8.30357142857143  8.34895833333333 8.24879092261905  8.45552884615385 8.13922991071429  Z M 21 17.1607142857143  L 21 22.6964285714286  L 25.8461538461538 22.6964285714286  L 25.8461538461538 17.1607142857143  L 21 17.1607142857143  Z M 14.5384615384615 11.0714285714286  L 14.5384615384615 16.0535714285714  L 19.9230769230769 16.0535714285714  L 19.9230769230769 11.0714285714286  L 14.5384615384615 11.0714285714286  Z M 21 11.0714285714286  L 21 16.0535714285714  L 25.8461538461538 16.0535714285714  L 25.8461538461538 11.0714285714286  L 21 11.0714285714286  Z M 21.3786057692308 8.13922991071429  C 21.4851762820513 8.02966889880952  21.5384615384615 7.89992559523809  21.5384615384615 7.75  L 21.5384615384615 2.76785714285714  C 21.5384615384615 2.61793154761905  21.4851762820513 2.48818824404762  21.3786057692308 2.37862723214286  C 21.2720352564103 2.26906622023809  21.1458333333333 2.21428571428571  21 2.21428571428571  L 19.9230769230769 2.21428571428571  C 19.7772435897436 2.21428571428571  19.6510416666667 2.26906622023809  19.5444711538462 2.37862723214286  C 19.4379006410256 2.48818824404762  19.3846153846154 2.61793154761905  19.3846153846154 2.76785714285714  L 19.3846153846154 7.75  C 19.3846153846154 7.89992559523809  19.4379006410256 8.02966889880952  19.5444711538462 8.13922991071429  C 19.6510416666667 8.24879092261905  19.7772435897436 8.30357142857143  19.9230769230769 8.30357142857143  L 21 8.30357142857143  C 21.1458333333333 8.30357142857143  21.2720352564103 8.24879092261905  21.3786057692308 8.13922991071429  Z M 27.3605769230769 5.0859375  C 27.786858974359 5.52418154761905  28 6.04315476190476  28 6.64285714285714  L 28 28.7857142857143  C 28 29.3854166666667  27.786858974359 29.9043898809524  27.3605769230769 30.3426339285714  C 26.9342948717949 30.7808779761905  26.4294871794872 31  25.8461538461538 31  L 2.15384615384615 31  C 1.57051282051282 31  1.06570512820513 30.7808779761905  0.639423076923077 30.3426339285714  C 0.213141025641026 29.9043898809524  0 29.3854166666667  0 28.7857142857143  L 0 6.64285714285714  C 0 6.04315476190476  0.213141025641026 5.52418154761905  0.639423076923077 5.0859375  C 1.06570512820513 4.64769345238095  1.57051282051282 4.42857142857143  2.15384615384615 4.42857142857143  L 4.30769230769231 4.42857142857143  L 4.30769230769231 2.76785714285714  C 4.30769230769231 2.00669642857143  4.5713141025641 1.35509672619047  5.09855769230769 0.813058035714287  C 5.62580128205128 0.271019345238096  6.25961538461539 0  7 0  L 8.07692307692308 0  C 8.81730769230769 0  9.4511217948718 0.271019345238096  9.97836538461538 0.813058035714287  C 10.505608974359 1.35509672619047  10.7692307692308 2.00669642857143  10.7692307692308 2.76785714285714  L 10.7692307692308 4.42857142857143  L 17.2307692307692 4.42857142857143  L 17.2307692307692 2.76785714285714  C 17.2307692307692 2.00669642857143  17.494391025641 1.35509672619047  18.0216346153846 0.813058035714287  C 18.5488782051282 0.271019345238096  19.1826923076923 0  19.9230769230769 0  L 21 0  C 21.7403846153846 0  22.3741987179487 0.271019345238096  22.9014423076923 0.813058035714287  C 23.4286858974359 1.35509672619047  23.6923076923077 2.00669642857143  23.6923076923077 2.76785714285714  L 23.6923076923077 4.42857142857143  L 25.8461538461538 4.42857142857143  C 26.4294871794872 4.42857142857143  26.9342948717949 4.64769345238095  27.3605769230769 5.0859375  Z " fill-rule="nonzero" fill="#000000" stroke="none" transform="matrix(1 0 0 1 557 521 )" />
  </g>
</svg>