<?xml version="1.0" encoding="utf-8"?>
<svg version="1.1" xmlns:xlink="http://www.w3.org/1999/xlink" width="1108px" height="788px" xmlns="http://www.w3.org/2000/svg">
  <defs>
    <mask fill="white" id="clip1991">
      <path d="M 0 693.489361702128  L 0 64.5106382978723  C 0 28.3846808510639  11.2933333333333 0  25.6666666666667 0  L 709.041666666667 0  L 1052.33333333333 0  C 1066.70666666667 0  1078 28.3846808510639  1078 64.5106382978723  L 1078 177.404255319149  L 1078 693.489361702128  C 1078 729.615319148936  1066.70666666667 758  1052.33333333333 758  L 25.6666666666667 758  C 11.2933333333333 758  0 729.615319148936  0 693.489361702128  Z " fill-rule="evenodd" />
    </mask>
    <filter x="-3px" y="48px" width="1108px" height="788px" filterUnits="userSpaceOnUse" id="filter1992">
      <feOffset dx="2" dy="2" in="SourceAlpha" result="shadowOffsetInner" />
      <feGaussianBlur stdDeviation="7.5" in="shadowOffsetInner" result="shadowGaussian" />
      <feComposite in2="shadowGaussian" operator="atop" in="SourceAlpha" result="shadowComposite" />
      <feColorMatrix type="matrix" values="0 0 0 0 0.6  0 0 0 0 0.6  0 0 0 0 0.6  0 0 0 0.149019607843137 0  " in="shadowComposite" />
    </filter>
    <g id="widget1993">
      <path d="M 0 693.489361702128  L 0 64.5106382978723  C 0 28.3846808510639  11.2933333333333 0  25.6666666666667 0  L 709.041666666667 0  L 1052.33333333333 0  C 1066.70666666667 0  1078 28.3846808510639  1078 64.5106382978723  L 1078 177.404255319149  L 1078 693.489361702128  C 1078 729.615319148936  1066.70666666667 758  1052.33333333333 758  L 25.6666666666667 758  C 11.2933333333333 758  0 729.615319148936  0 693.489361702128  Z " fill-rule="nonzero" fill="#ffffff" stroke="none" transform="matrix(1 0 0 1 10 61 )" />
      <path d="M 0 693.489361702128  L 0 64.5106382978723  C 0 28.3846808510639  11.2933333333333 0  25.6666666666667 0  L 709.041666666667 0  L 1052.33333333333 0  C 1066.70666666667 0  1078 28.3846808510639  1078 64.5106382978723  L 1078 177.404255319149  L 1078 693.489361702128  C 1078 729.615319148936  1066.70666666667 758  1052.33333333333 758  L 25.6666666666667 758  C 11.2933333333333 758  0 729.615319148936  0 693.489361702128  Z " stroke-width="4" stroke="#f2f2f2" fill="none" transform="matrix(1 0 0 1 10 61 )" mask="url(#clip1991)" />
    </g>
  </defs>
  <g transform="matrix(1 0 0 1 3 -48 )">
    <use xlink:href="#widget1993" filter="url(#filter1992)" />
    <use xlink:href="#widget1993" />
  </g>
</svg>