<?xml version="1.0" encoding="utf-8"?>
<svg version="1.1" xmlns:xlink="http://www.w3.org/1999/xlink" width="12px" height="12px" viewBox="273 590.5  12 12" xmlns="http://www.w3.org/2000/svg">
  <path d="M 279 590.5  C 282.36 590.5  285 593.14  285 596.5  C 285 599.86  282.36 602.5  279 602.5  C 275.64 602.5  273 599.86  273 596.5  C 273 593.14  275.64 590.5  279 590.5  Z " fill-rule="nonzero" fill="#ffffff" stroke="none" />
  <path d="M 279 591  C 282.08 591  284.5 593.42  284.5 596.5  C 284.5 599.58  282.08 602  279 602  C 275.92 602  273.5 599.58  273.5 596.5  C 273.5 593.42  275.92 591  279 591  Z " stroke-width="1" stroke="#797979" fill="none" />
  <path d="M 279 599.5  C 277.32 599.5  276 598.18  276 596.5  C 276 594.82  277.32 593.5  279 593.5  C 280.68 593.5  282 594.82  282 596.5  C 282 598.18  280.68 599.5  279 599.5  " fill-rule="nonzero" fill="#797979" stroke="none" />
</svg>