<?xml version="1.0" encoding="utf-8"?>
<svg version="1.1" xmlns:xlink="http://www.w3.org/1999/xlink" width="12px" height="12px" viewBox="165 504  12 12" xmlns="http://www.w3.org/2000/svg">
  <path d="M 171 504  C 174.36 504  177 506.64  177 510  C 177 513.36  174.36 516  171 516  C 167.64 516  165 513.36  165 510  C 165 506.64  167.64 504  171 504  Z " fill-rule="nonzero" fill="#ffffff" stroke="none" />
  <path d="M 171 504.5  C 174.08 504.5  176.5 506.92  176.5 510  C 176.5 513.08  174.08 515.5  171 515.5  C 167.92 515.5  165.5 513.08  165.5 510  C 165.5 506.92  167.92 504.5  171 504.5  Z " stroke-width="1" stroke="#797979" fill="none" />
  <path d="M 171 513  C 169.32 513  168 511.68  168 510  C 168 508.32  169.32 507  171 507  C 172.68 507  174 508.32  174 510  C 174 511.68  172.68 513  171 513  " fill-rule="nonzero" fill="#797979" stroke="none" />
</svg>