<?xml version="1.0" encoding="utf-8"?>
<svg version="1.1" xmlns:xlink="http://www.w3.org/1999/xlink" width="12px" height="12px" viewBox="231 652  12 12" xmlns="http://www.w3.org/2000/svg">
  <path d="M 237 652  C 240.36 652  243 654.64  243 658  C 243 661.36  240.36 664  237 664  C 233.64 664  231 661.36  231 658  C 231 654.64  233.64 652  237 652  Z " fill-rule="nonzero" fill="#ffffff" stroke="none" />
  <path d="M 237 652.5  C 240.08 652.5  242.5 654.92  242.5 658  C 242.5 661.08  240.08 663.5  237 663.5  C 233.92 663.5  231.5 661.08  231.5 658  C 231.5 654.92  233.92 652.5  237 652.5  Z " stroke-width="1" stroke="#797979" fill="none" />
  <path d="M 237 661  C 235.32 661  234 659.68  234 658  C 234 656.32  235.32 655  237 655  C 238.68 655  240 656.32  240 658  C 240 659.68  238.68 661  237 661  " fill-rule="nonzero" fill="#797979" stroke="none" />
</svg>