<?xml version="1.0" encoding="utf-8"?>
<svg version="1.1" xmlns:xlink="http://www.w3.org/1999/xlink" width="11px" height="11px" xmlns="http://www.w3.org/2000/svg">
  <g transform="matrix(1 0 0 1 -784 -47 )">
    <path d="M 8.16713169642857 8.61762152777778  C 8.98763020833333 7.84418402777778  9.67001488095238 6.80497685185185  10.2142857142857 5.5  C 9.59226190476191 3.99768518518519  8.81268601190476 2.87413194444444  7.87555803571429 2.12934027777778  C 8.12518601190476 2.79137731481481  8.25 3.50752314814815  8.25 4.27777777777778  C 8.25 5.45543981481481  7.98093377976191 6.46281828703704  7.44280133928571 7.29991319444444  C 6.90466889880952 8.13700810185185  6.25706845238095 8.55555555555556  5.5 8.55555555555556  C 4.74293154761905 8.55555555555556  4.09533110119048 8.13700810185185  3.55719866071429 7.29991319444444  C 3.0190662202381 6.46281828703704  2.75 5.45543981481481  2.75 4.27777777777778  C 2.75 3.50752314814815  2.87481398809524 2.79137731481481  3.12444196428571 2.12934027777778  C 2.18731398809524 2.87413194444444  1.4077380952381 3.99768518518519  0.785714285714286 5.5  C 1.32998511904762 6.80497685185185  2.01236979166667 7.84418402777778  2.83286830357143 8.61762152777778  C 3.65336681547619 9.39105902777778  4.54241071428571 9.77777777777778  5.5 9.77777777777778  C 6.45758928571429 9.77777777777778  7.34663318452381 9.39105902777778  8.16713169642857 8.61762152777778  Z M 5.70870535714286 2.15798611111111  C 5.76599702380952 2.06886574074074  5.79464285714286 1.96064814814815  5.79464285714286 1.83333333333333  C 5.79464285714286 1.70601851851852  5.76599702380952 1.59780092592592  5.70870535714286 1.50868055555556  C 5.65141369047619 1.41956018518518  5.58184523809524 1.375  5.5 1.375  C 4.98846726190476 1.375  4.54957217261905 1.65986689814815  4.18331473214286 2.22960069444444  C 3.81705729166667 2.79933449074074  3.63392857142857 3.48206018518519  3.63392857142857 4.27777777777778  C 3.63392857142857 4.40509259259259  3.66257440476191 4.51331018518519  3.71986607142857 4.60243055555556  C 3.77715773809524 4.69155092592592  3.84672619047619 4.73611111111111  3.92857142857143 4.73611111111111  C 4.01041666666667 4.73611111111111  4.07998511904762 4.69155092592592  4.13727678571429 4.60243055555556  C 4.19456845238095 4.51331018518519  4.22321428571429 4.40509259259259  4.22321428571429 4.27777777777778  C 4.22321428571429 3.73032407407407  4.34802827380952 3.26244212962963  4.59765625 2.87413194444444  C 4.84728422619048 2.48582175925926  5.14806547619048 2.29166666666667  5.5 2.29166666666667  C 5.58184523809524 2.29166666666667  5.65141369047619 2.24710648148148  5.70870535714286 2.15798611111111  Z M 10.8772321428571 4.84114583333333  C 10.9590773809524 5.06394675925926  11 5.28356481481481  11 5.5  C 11 5.71643518518518  10.9590773809524 5.93605324074074  10.8772321428571 6.15885416666667  C 10.3043154761905 7.62297453703704  9.53394717261905 8.79586226851852  8.56612723214286 9.67751736111111  C 7.59830729166667 10.5591724537037  6.57626488095238 11  5.5 11  C 4.42373511904762 11  3.40169270833333 10.5575810185185  2.43387276785714 9.67274305555556  C 1.46605282738095 8.78790509259259  0.695684523809524 7.6166087962963  0.122767857142857 6.15885416666667  C 0.040922619047619 5.93605324074074  0 5.71643518518518  0 5.5  C 0 5.28356481481481  0.040922619047619 5.06394675925926  0.122767857142857 4.84114583333333  C 0.695684523809524 3.3833912037037  1.46605282738095 2.21209490740741  2.43387276785714 1.32725694444444  C 3.40169270833333 0.442418981481481  4.42373511904762 0  5.5 0  C 6.57626488095238 0  7.59830729166667 0.442418981481481  8.56612723214286 1.32725694444444  C 9.53394717261905 2.21209490740741  10.3043154761905 3.3833912037037  10.8772321428571 4.84114583333333  Z " fill-rule="nonzero" fill="#009999" stroke="none" transform="matrix(1 0 0 1 784 47 )" />
  </g>
</svg>