<?xml version="1.0" encoding="utf-8"?>
<svg version="1.1" xmlns:xlink="http://www.w3.org/1999/xlink" width="26px" height="20px" xmlns="http://www.w3.org/2000/svg">
  <g transform="matrix(1 0 0 1 -383 -683 )">
    <path d="M 7.90833333333333 4.0625  C 8.41388888888889 4.54861111111111  8.66666666666667 5.13888888888889  8.66666666666667 5.83333333333333  C 8.66666666666667 6.52777777777778  8.41388888888889 7.11805555555556  7.90833333333333 7.60416666666667  C 7.40277777777778 8.09027777777778  6.78888888888889 8.33333333333333  6.06666666666667 8.33333333333333  C 5.34444444444445 8.33333333333333  4.73055555555556 8.09027777777778  4.225 7.60416666666667  C 3.71944444444445 7.11805555555556  3.46666666666667 6.52777777777778  3.46666666666667 5.83333333333333  C 3.46666666666667 5.13888888888889  3.71944444444445 4.54861111111111  4.225 4.0625  C 4.73055555555556 3.57638888888889  5.34444444444445 3.33333333333333  6.06666666666667 3.33333333333333  C 6.78888888888889 3.33333333333333  7.40277777777778 3.57638888888889  7.90833333333333 4.0625  Z M 16.9 5.41666666666667  L 22.5333333333333 10.8333333333333  L 22.5333333333333 16.6666666666667  L 3.46666666666667 16.6666666666667  L 3.46666666666667 14.1666666666667  L 7.8 10  L 9.96666666666667 12.0833333333333  L 16.9 5.41666666666667  Z M 24.1380208333333 1.79036458333333  C 24.0522569444444 1.70789930555555  23.9506944444444 1.66666666666667  23.8333333333333 2  L 2.16666666666667 2  C 2.04930555555556 1.66666666666667  1.94774305555556 1.70789930555555  1.86197916666667 1.79036458333333  C 1.77621527777778 1.87282986111111  1.73333333333333 1.97048611111111  2 2.08333333333333  L 2 17.9166666666667  C 1.73333333333333 18.0295138888889  1.77621527777778 18.1271701388889  1.86197916666667 18.2096354166667  C 1.94774305555556 18.2921006944444  2.04930555555556 18.3333333333333  2.16666666666667 18  L 23.8333333333333 18  C 23.9506944444444 18.3333333333333  24.0522569444444 18.2921006944444  24.1380208333333 18.2096354166667  C 24.2237847222222 18.1271701388889  24.2666666666667 18.0295138888889  24 17.9166666666667  L 24 2.08333333333333  C 24.2666666666667 1.97048611111111  24.2237847222222 1.87282986111111  24.1380208333333 1.79036458333333  Z M 25.3635416666667 0.611979166666667  C 25.7878472222222 1.01996527777778  26 1.51041666666667  26 2.08333333333333  L 26 17.9166666666667  C 26 18.4895833333333  25.7878472222222 18.9800347222222  25.3635416666667 19.3880208333333  C 24.9392361111111 19.7960069444444  24.4291666666667 20  23.8333333333333 20  L 2.16666666666667 20  C 1.57083333333333 20  1.06076388888889 19.7960069444444  0.636458333333333 19.3880208333333  C 0.212152777777778 18.9800347222222  0 18.4895833333333  0 17.9166666666667  L 0 2.08333333333333  C 0 1.51041666666667  0.212152777777778 1.01996527777778  0.636458333333333 0.611979166666667  C 1.06076388888889 0.203993055555554  1.57083333333333 0  2.16666666666667 0  L 23.8333333333333 0  C 24.4291666666667 0  24.9392361111111 0.203993055555554  25.3635416666667 0.611979166666667  Z " fill-rule="nonzero" fill="#000000" stroke="none" transform="matrix(1 0 0 1 383 683 )" />
  </g>
</svg>