<?xml version="1.0" encoding="utf-8"?>
<svg version="1.1" xmlns:xlink="http://www.w3.org/1999/xlink" width="21px" height="24px" xmlns="http://www.w3.org/2000/svg">
  <g transform="matrix(1 0 0 1 -252 -524 )">
    <path d="M 16.365234375 13.703125  C 16.5384114583333 13.5052083333333  16.625 13.2708333333333  16.625 13  L 16.625 11  C 16.625 10.7291666666667  16.5384114583333 10.4947916666667  16.365234375 10.296875  C 16.1920572916667 10.0989583333333  15.9869791666667 10  15.75 10  L 5.25 10  C 5.01302083333333 10  4.80794270833333 10.0989583333333  4.634765625 10.296875  C 4.46158854166667 10.4947916666667  4.375 10.7291666666667  4.375 11  L 4.375 13  C 4.375 13.2708333333333  4.46158854166667 13.5052083333333  4.634765625 13.703125  C 4.80794270833333 13.9010416666667  5.01302083333333 14  5.25 14  L 15.75 14  C 15.9869791666667 14  16.1920572916667 13.9010416666667  16.365234375 13.703125  Z M 19.591796875 5.9765625  C 20.5305989583333 7.81510416666666  21 9.82291666666666  21 12  C 21 14.1770833333333  20.5305989583333 16.1848958333333  19.591796875 18.0234375  C 18.6529947916667 19.8619791666667  17.3792317708333 21.3177083333333  15.7705078125 22.390625  C 14.1617838541667 23.4635416666667  12.4049479166667 24  10.5 24  C 8.59505208333333 24  6.83821614583333 23.4635416666667  5.2294921875 22.390625  C 3.62076822916667 21.3177083333333  2.34700520833333 19.8619791666667  1.408203125 18.0234375  C 0.469401041666667 16.1848958333333  0 14.1770833333333  0 12  C 0 9.82291666666666  0.469401041666667 7.81510416666666  1.408203125 5.9765625  C 2.34700520833333 4.13802083333333  3.62076822916667 2.68229166666666  5.2294921875 1.609375  C 6.83821614583333 0.536458333333331  8.59505208333333 0  10.5 0  C 12.4049479166667 0  14.1617838541667 0.536458333333331  15.7705078125 1.609375  C 17.3792317708333 2.68229166666666  18.6529947916667 4.13802083333333  19.591796875 5.9765625  Z " fill-rule="nonzero" fill="#d9001b" stroke="none" transform="matrix(1 0 0 1 252 524 )" />
  </g>
</svg>